<mxfile host="Electron" agent="Mozilla/5.0 (Windows NT 10.0; Win64; x64) AppleWebKit/537.36 (KHTML, like Gecko) draw.io/28.0.6 Chrome/138.0.7204.100 Electron/37.2.3 Safari/537.36" version="28.0.6">
  <diagram name="PÃ¡gina-1" id="51fJ6EakjT8RsoHITTC2">
    <mxGraphModel dx="2066" dy="1201" grid="1" gridSize="10" guides="1" tooltips="1" connect="1" arrows="1" fold="1" page="1" pageScale="1" pageWidth="1169" pageHeight="827" math="0" shadow="0">
      <root>
        <mxCell id="0" />
        <mxCell id="1" parent="0" />
        <mxCell id="U22hUHlgl1O_JhfOZm2w-88" value="" style="rounded=0;whiteSpace=wrap;html=1;fillColor=none;dashed=1;strokeWidth=1;strokeColor=#003562;" vertex="1" parent="1">
          <mxGeometry x="724" y="300" width="880" height="640" as="geometry" />
        </mxCell>
        <mxCell id="U22hUHlgl1O_JhfOZm2w-42" value="&lt;b&gt;&lt;font style=&quot;font-size: 32px;&quot;&gt;High Level Architecture&lt;/font&gt;&lt;/b&gt;" style="rounded=0;whiteSpace=wrap;html=1;strokeColor=default;container=0;" vertex="1" parent="1">
          <mxGeometry x="976.4200000000001" y="185" width="395" height="50" as="geometry" />
        </mxCell>
        <mxCell id="U22hUHlgl1O_JhfOZm2w-2" value="" style="rounded=0;whiteSpace=wrap;html=1;dashed=1;container=0;" vertex="1" parent="1">
          <mxGeometry x="437" y="300" width="200" height="640" as="geometry" />
        </mxCell>
        <mxCell id="U22hUHlgl1O_JhfOZm2w-7" value="CRM" style="text;strokeColor=none;align=center;fillColor=none;html=1;verticalAlign=middle;whiteSpace=wrap;rounded=0;fontSize=14;fontStyle=1;container=0;" vertex="1" parent="1">
          <mxGeometry x="500.5799999999999" y="520" width="60" height="30" as="geometry" />
        </mxCell>
        <mxCell id="U22hUHlgl1O_JhfOZm2w-8" value="" style="rounded=0;whiteSpace=wrap;html=1;fillStyle=hatch;fillColor=none;strokeColor=#D79B00;container=0;" vertex="1" parent="1">
          <mxGeometry x="775" y="380" width="200" height="520" as="geometry" />
        </mxCell>
        <mxCell id="U22hUHlgl1O_JhfOZm2w-9" value="&lt;font style=&quot;font-size: 16px;&quot;&gt;&lt;b style=&quot;&quot;&gt;Bronze Layer&lt;/b&gt;&lt;/font&gt;" style="rounded=0;whiteSpace=wrap;html=1;fillColor=#FFCC99;strokeColor=#D79B00;container=0;" vertex="1" parent="1">
          <mxGeometry x="775" y="340" width="200" height="40" as="geometry" />
        </mxCell>
        <mxCell id="U22hUHlgl1O_JhfOZm2w-22" value="" style="rounded=0;whiteSpace=wrap;html=1;fillStyle=hatch;fillColor=none;strokeColor=light-dark(#828690,#BABDC0);container=0;" vertex="1" parent="1">
          <mxGeometry x="1064" y="380" width="200" height="520" as="geometry" />
        </mxCell>
        <mxCell id="U22hUHlgl1O_JhfOZm2w-23" value="&lt;span style=&quot;font-size: 16px;&quot;&gt;&lt;b&gt;Silver Layer&lt;/b&gt;&lt;/span&gt;" style="rounded=0;whiteSpace=wrap;html=1;fillColor=#eeeeee;strokeColor=light-dark(#828690,#BABDC0);container=0;" vertex="1" parent="1">
          <mxGeometry x="1064" y="340" width="200" height="40" as="geometry" />
        </mxCell>
        <mxCell id="U22hUHlgl1O_JhfOZm2w-30" value="" style="rounded=0;whiteSpace=wrap;html=1;fillStyle=hatch;fillColor=none;strokeColor=light-dark(#F4C736,#D4AF37);container=0;" vertex="1" parent="1">
          <mxGeometry x="1350" y="380" width="200" height="520" as="geometry" />
        </mxCell>
        <mxCell id="U22hUHlgl1O_JhfOZm2w-31" value="&lt;span style=&quot;font-size: 16px;&quot;&gt;&lt;b&gt;Gold Layer&lt;/b&gt;&lt;/span&gt;" style="rounded=0;whiteSpace=wrap;html=1;fillColor=#F9DF7F;strokeColor=light-dark(#F4C736,#D4AF37);container=0;" vertex="1" parent="1">
          <mxGeometry x="1350" y="340" width="200" height="40" as="geometry" />
        </mxCell>
        <mxCell id="U22hUHlgl1O_JhfOZm2w-41" value="" style="endArrow=none;html=1;rounded=0;strokeWidth=1;" edge="1" parent="1">
          <mxGeometry width="50" height="50" relative="1" as="geometry">
            <mxPoint x="440" y="260" as="sourcePoint" />
            <mxPoint x="1890" y="260" as="targetPoint" />
          </mxGeometry>
        </mxCell>
        <mxCell id="U22hUHlgl1O_JhfOZm2w-49" value="ERP" style="text;strokeColor=none;align=center;fillColor=none;html=1;verticalAlign=middle;whiteSpace=wrap;rounded=0;fontSize=14;fontStyle=1;container=0;" vertex="1" parent="1">
          <mxGeometry x="500.5799999999999" y="650" width="60" height="30" as="geometry" />
        </mxCell>
        <mxCell id="U22hUHlgl1O_JhfOZm2w-5" value="" style="image;aspect=fixed;html=1;points=[];align=center;fontSize=12;image=img/lib/azure2/general/Folder_Blank.svg;container=0;" vertex="1" parent="1">
          <mxGeometry x="500.5799999999999" y="470" width="58.271895543789974" height="47.293401720714755" as="geometry" />
        </mxCell>
        <mxCell id="U22hUHlgl1O_JhfOZm2w-6" value="" style="image;aspect=fixed;html=1;points=[];align=center;fontSize=12;image=img/lib/azure2/general/File.svg;container=0;" vertex="1" parent="1">
          <mxGeometry x="547.429315068493" y="496.1288418266049" width="25.9955879108758" height="32.03027796161482" as="geometry" />
        </mxCell>
        <mxCell id="U22hUHlgl1O_JhfOZm2w-47" value="" style="image;aspect=fixed;html=1;points=[];align=center;fontSize=12;image=img/lib/azure2/general/Folder_Blank.svg;container=0;" vertex="1" parent="1">
          <mxGeometry x="500.5799999999999" y="600" width="58.271895543789974" height="47.293401720714755" as="geometry" />
        </mxCell>
        <mxCell id="U22hUHlgl1O_JhfOZm2w-48" value="" style="image;aspect=fixed;html=1;points=[];align=center;fontSize=12;image=img/lib/azure2/general/File.svg;container=0;" vertex="1" parent="1">
          <mxGeometry x="547.429315068493" y="626.1288418266049" width="25.9955879108758" height="32.03027796161482" as="geometry" />
        </mxCell>
        <mxCell id="U22hUHlgl1O_JhfOZm2w-56" value="" style="shape=flexArrow;endArrow=classic;html=1;rounded=0;fillColor=#cce5ff;strokeColor=#36393d;" edge="1" parent="1">
          <mxGeometry width="50" height="50" relative="1" as="geometry">
            <mxPoint x="644" y="570" as="sourcePoint" />
            <mxPoint x="719" y="570" as="targetPoint" />
          </mxGeometry>
        </mxCell>
        <mxCell id="U22hUHlgl1O_JhfOZm2w-57" value="" style="shape=flexArrow;endArrow=classic;html=1;rounded=0;exitX=1;exitY=0.5;exitDx=0;exitDy=0;fillColor=#cce5ff;strokeColor=#36393d;fontStyle=0;fontFamily=Helvetica;" edge="1" parent="1">
          <mxGeometry width="50" height="50" relative="1" as="geometry">
            <mxPoint x="982" y="568.51" as="sourcePoint" />
            <mxPoint x="1057" y="568.51" as="targetPoint" />
          </mxGeometry>
        </mxCell>
        <mxCell id="U22hUHlgl1O_JhfOZm2w-58" value="" style="shape=flexArrow;endArrow=classic;html=1;rounded=0;exitX=1;exitY=0.5;exitDx=0;exitDy=0;fillColor=#cce5ff;strokeColor=#36393d;fontStyle=0;fontFamily=Helvetica;" edge="1" parent="1">
          <mxGeometry width="50" height="50" relative="1" as="geometry">
            <mxPoint x="1270" y="570" as="sourcePoint" />
            <mxPoint x="1345" y="570" as="targetPoint" />
          </mxGeometry>
        </mxCell>
        <mxCell id="U22hUHlgl1O_JhfOZm2w-59" value="&lt;b&gt;Object Type:&lt;/b&gt; CSV Files&lt;div&gt;&lt;br&gt;&lt;/div&gt;&lt;div&gt;&lt;b&gt;Interface: &lt;/b&gt;Files in Folders&lt;/div&gt;" style="text;strokeColor=none;align=left;fillColor=none;html=1;verticalAlign=middle;whiteSpace=wrap;rounded=0;" vertex="1" parent="1">
          <mxGeometry x="462" y="760" width="150" height="47" as="geometry" />
        </mxCell>
        <mxCell id="U22hUHlgl1O_JhfOZm2w-61" value="&lt;b&gt;Object Type:&lt;/b&gt;&amp;nbsp;Tables&lt;div&gt;&lt;br&gt;&lt;/div&gt;&lt;div&gt;&lt;b&gt;Load:&lt;/b&gt;&lt;/div&gt;&lt;div&gt;&lt;ul&gt;&lt;li&gt;Batch Processing&lt;/li&gt;&lt;li&gt;Full Load&lt;/li&gt;&lt;li&gt;Truncate and Insert&lt;/li&gt;&lt;/ul&gt;&lt;/div&gt;&lt;div&gt;&lt;b&gt;No transformations&lt;br&gt;&lt;/b&gt;&lt;div&gt;&lt;br&gt;&lt;/div&gt;&lt;div&gt;&lt;b&gt;Data Model: &lt;/b&gt;None&lt;/div&gt;&lt;/div&gt;" style="text;strokeColor=none;align=left;fillColor=none;html=1;verticalAlign=middle;whiteSpace=wrap;rounded=0;" vertex="1" parent="1">
          <mxGeometry x="796.4200000000001" y="590" width="157.16" height="230" as="geometry" />
        </mxCell>
        <mxCell id="U22hUHlgl1O_JhfOZm2w-64" value="&lt;b&gt;Object Type:&lt;/b&gt;&amp;nbsp;Tables&lt;div&gt;&lt;br&gt;&lt;/div&gt;&lt;div&gt;&lt;b&gt;Load:&lt;/b&gt;&lt;/div&gt;&lt;div&gt;&lt;ul&gt;&lt;li&gt;Batch Processing&lt;/li&gt;&lt;li&gt;Full Load&lt;/li&gt;&lt;li&gt;Truncate and Insert&lt;/li&gt;&lt;/ul&gt;&lt;/div&gt;&lt;div&gt;&lt;b&gt;Transformations:&lt;/b&gt;&lt;/div&gt;&lt;div&gt;&lt;ul&gt;&lt;li&gt;Data Cleansing&lt;/li&gt;&lt;li&gt;Data Standarization&lt;/li&gt;&lt;li&gt;Data Normalization&lt;/li&gt;&lt;li&gt;Derivded Columns&lt;/li&gt;&lt;li&gt;Data Enrichment&lt;/li&gt;&lt;/ul&gt;&lt;/div&gt;&lt;div&gt;&lt;div&gt;&lt;br&gt;&lt;/div&gt;&lt;div&gt;&lt;b&gt;Data Model: &lt;/b&gt;None&lt;/div&gt;&lt;/div&gt;" style="text;strokeColor=none;align=left;fillColor=none;html=1;verticalAlign=middle;whiteSpace=wrap;rounded=0;" vertex="1" parent="1">
          <mxGeometry x="1085.42" y="590" width="157.16" height="320" as="geometry" />
        </mxCell>
        <mxCell id="U22hUHlgl1O_JhfOZm2w-66" value="" style="endArrow=none;html=1;rounded=0;" edge="1" parent="1">
          <mxGeometry width="50" height="50" relative="1" as="geometry">
            <mxPoint x="782.5" y="590" as="sourcePoint" />
            <mxPoint x="967.5" y="590" as="targetPoint" />
          </mxGeometry>
        </mxCell>
        <mxCell id="U22hUHlgl1O_JhfOZm2w-67" value="&lt;b&gt;Object Type:&lt;/b&gt;&amp;nbsp;Views&lt;div&gt;&lt;br&gt;&lt;/div&gt;&lt;div&gt;&lt;b&gt;No Load&lt;/b&gt;&lt;/div&gt;&lt;div&gt;&lt;b&gt;&lt;br&gt;&lt;/b&gt;&lt;/div&gt;&lt;div&gt;&lt;b&gt;Transformations:&lt;/b&gt;&lt;/div&gt;&lt;div&gt;&lt;ul&gt;&lt;li&gt;Data Integrations&lt;/li&gt;&lt;li&gt;Aggregations&lt;/li&gt;&lt;li&gt;Bussiness Logics&lt;/li&gt;&lt;/ul&gt;&lt;/div&gt;&lt;div&gt;&lt;div&gt;&lt;br&gt;&lt;/div&gt;&lt;div&gt;&lt;b&gt;Data Model:&lt;/b&gt;&lt;/div&gt;&lt;/div&gt;&lt;div&gt;&lt;ul&gt;&lt;li&gt;Star Schema&lt;/li&gt;&lt;li&gt;Flat Table&lt;/li&gt;&lt;li&gt;Aggregated Table&lt;/li&gt;&lt;/ul&gt;&lt;/div&gt;" style="text;strokeColor=none;align=left;fillColor=none;html=1;verticalAlign=middle;whiteSpace=wrap;rounded=0;" vertex="1" parent="1">
          <mxGeometry x="1371.42" y="590" width="157.16" height="310" as="geometry" />
        </mxCell>
        <mxCell id="U22hUHlgl1O_JhfOZm2w-70" value="" style="endArrow=none;html=1;rounded=0;" edge="1" parent="1">
          <mxGeometry width="50" height="50" relative="1" as="geometry">
            <mxPoint x="1071.5" y="590" as="sourcePoint" />
            <mxPoint x="1256.5" y="590" as="targetPoint" />
          </mxGeometry>
        </mxCell>
        <mxCell id="U22hUHlgl1O_JhfOZm2w-71" value="" style="endArrow=none;html=1;rounded=0;" edge="1" parent="1">
          <mxGeometry width="50" height="50" relative="1" as="geometry">
            <mxPoint x="1357.5" y="590" as="sourcePoint" />
            <mxPoint x="1542.5" y="590" as="targetPoint" />
          </mxGeometry>
        </mxCell>
        <mxCell id="U22hUHlgl1O_JhfOZm2w-72" value="" style="endArrow=none;html=1;rounded=0;" edge="1" parent="1">
          <mxGeometry width="50" height="50" relative="1" as="geometry">
            <mxPoint x="444.5" y="730" as="sourcePoint" />
            <mxPoint x="629.5" y="730" as="targetPoint" />
          </mxGeometry>
        </mxCell>
        <mxCell id="U22hUHlgl1O_JhfOZm2w-74" value="" style="html=1;verticalLabelPosition=bottom;align=center;labelBackgroundColor=#ffffff;verticalAlign=top;strokeWidth=2;strokeColor=light-dark(#d79a02, #babdc0);shadow=0;dashed=0;shape=mxgraph.ios7.icons.data;fillColor=#ffcc99;" vertex="1" parent="1">
          <mxGeometry x="846.5" y="448.18" width="57" height="69.11" as="geometry" />
        </mxCell>
        <mxCell id="U22hUHlgl1O_JhfOZm2w-75" value="&lt;span&gt;Raw Data&lt;/span&gt;" style="text;strokeColor=none;align=center;fillColor=none;html=1;verticalAlign=middle;whiteSpace=wrap;rounded=0;fontSize=16;fontStyle=0;fontFamily=Helvetica;" vertex="1" parent="1">
          <mxGeometry x="830" y="528.16" width="90" height="30" as="geometry" />
        </mxCell>
        <mxCell id="U22hUHlgl1O_JhfOZm2w-77" value="" style="html=1;verticalLabelPosition=bottom;align=center;labelBackgroundColor=#ffffff;verticalAlign=top;strokeWidth=2;strokeColor=light-dark(#828690, #babdc0);shadow=0;dashed=0;shape=mxgraph.ios7.icons.data;fillColor=#eeeeee;" vertex="1" parent="1">
          <mxGeometry x="1135.5" y="440.73" width="57" height="69.11" as="geometry" />
        </mxCell>
        <mxCell id="U22hUHlgl1O_JhfOZm2w-78" value="&lt;span&gt;Cleaned, Standarized Data&lt;/span&gt;" style="text;strokeColor=none;align=center;fillColor=none;html=1;verticalAlign=middle;whiteSpace=wrap;rounded=0;fontSize=16;fontStyle=0;fontFamily=Helvetica;" vertex="1" parent="1">
          <mxGeometry x="1083.5" y="517.8" width="161" height="50.71" as="geometry" />
        </mxCell>
        <mxCell id="U22hUHlgl1O_JhfOZm2w-81" value="" style="html=1;verticalLabelPosition=bottom;align=center;labelBackgroundColor=#ffffff;verticalAlign=top;strokeWidth=2;strokeColor=light-dark(#DDB52F,#32A0FF);shadow=0;dashed=0;shape=mxgraph.ios7.icons.data;fillColor=light-dark(#EED47A,#EDEDED);" vertex="1" parent="1">
          <mxGeometry x="1421.5" y="437.01" width="57" height="69.11" as="geometry" />
        </mxCell>
        <mxCell id="U22hUHlgl1O_JhfOZm2w-82" value="&lt;span&gt;Business-Ready Data&lt;/span&gt;" style="text;strokeColor=none;align=center;fillColor=none;html=1;verticalAlign=middle;whiteSpace=wrap;rounded=0;fontSize=16;fontStyle=0;fontFamily=Helvetica;" vertex="1" parent="1">
          <mxGeometry x="1369.5" y="514.0799999999999" width="161" height="50.71" as="geometry" />
        </mxCell>
        <mxCell id="U22hUHlgl1O_JhfOZm2w-89" value="&lt;font style=&quot;font-size: 20px;&quot;&gt;Data Warehouse&lt;/font&gt;" style="text;html=1;align=center;verticalAlign=middle;resizable=0;points=[];autosize=1;strokeColor=none;fillColor=default;fontStyle=1" vertex="1" parent="1">
          <mxGeometry x="1079" y="280" width="170" height="40" as="geometry" />
        </mxCell>
        <mxCell id="U22hUHlgl1O_JhfOZm2w-90" value="&lt;font style=&quot;font-size: 20px;&quot;&gt;Sources&lt;/font&gt;" style="text;html=1;align=center;verticalAlign=middle;resizable=0;points=[];autosize=1;strokeColor=none;fillColor=default;fontStyle=1" vertex="1" parent="1">
          <mxGeometry x="487" y="280" width="100" height="40" as="geometry" />
        </mxCell>
        <mxCell id="U22hUHlgl1O_JhfOZm2w-91" value="" style="rounded=0;whiteSpace=wrap;html=1;dashed=1;container=0;" vertex="1" parent="1">
          <mxGeometry x="1689" y="300" width="200" height="640" as="geometry" />
        </mxCell>
        <mxCell id="U22hUHlgl1O_JhfOZm2w-101" value="&lt;font style=&quot;font-size: 20px;&quot;&gt;Consume&lt;/font&gt;" style="text;html=1;align=center;verticalAlign=middle;resizable=0;points=[];autosize=1;strokeColor=none;fillColor=default;fontStyle=1" vertex="1" parent="1">
          <mxGeometry x="1734" y="280" width="110" height="40" as="geometry" />
        </mxCell>
        <mxCell id="U22hUHlgl1O_JhfOZm2w-102" value="" style="shape=flexArrow;endArrow=classic;html=1;rounded=0;fillColor=#cce5ff;strokeColor=#36393d;fontSize=14;" edge="1" parent="1">
          <mxGeometry width="50" height="50" relative="1" as="geometry">
            <mxPoint x="1609" y="568.51" as="sourcePoint" />
            <mxPoint x="1684" y="568.51" as="targetPoint" />
          </mxGeometry>
        </mxCell>
        <mxCell id="U22hUHlgl1O_JhfOZm2w-104" value="Machine Learning" style="text;html=1;align=center;verticalAlign=middle;resizable=0;points=[];autosize=1;strokeColor=none;fillColor=none;fontStyle=0;fontSize=14;" vertex="1" parent="1">
          <mxGeometry x="1724" y="815.71" width="130" height="30" as="geometry" />
        </mxCell>
        <mxCell id="U22hUHlgl1O_JhfOZm2w-106" value="" style="shape=image;verticalLabelPosition=bottom;labelBackgroundColor=default;verticalAlign=top;aspect=fixed;imageAspect=0;image=data:image/png,iVBORw0KGgoAAAANSUhEUgAABLAAAASwCAYAAADrIbPPAAAQAElEQVR4AezdCbBl6V0Y9u+819v09GzdPYs0owUhISQkJCSQEWCxmmJRHJsdKiIkJipTsVHAVSEboZHAaAMUyllIuZICB2NUdio2BEuaIaokRE6wKlQSKlUxKCo8i4RmJDABM92afiffed1v5vV9d79n+ZbfzDn93j3L933/3/d/99z7f/fetxf8R4AAAQIECBAgQGAigU9/8OILnvrQpa996uFLP/DUI5fe9+TDl38trr8V1/87rr//5COXPxO/Xo9ra73M4GEGfg6qyoE/i/P9ZFw/FtffjutvxvXvxfvFH49fv+fJD15+/ZO/efmODe6+HUogawEFrKynz+AJECBAgAABAnkJfPKR+14Sn3y99alHLr8/PgF78mBv75+3TfNIG5r/rG2bt8VovjmuXxLXV8T1haEN98SvHrNGBEsKAsZAYFSBc7G3y3F9SVxfG9cvj+t3xvvF/zh+/aWwFz4a/iz8cbwv7QpcP/+pD9377X/8yB2X4j4LgSIFPBgocloFRYAAAQIECBBIR+DTj1x8Y3yC9Z/H9RP77cHH4pOvn2/b8O1xhN0Ts/jFQoAAAQI7CHQFrrc2Tfv+q+3ZT8X72n8a1x/61IfvfWCHNp1KIDkBBazkpsSACBAgQIDAcgF7CeQg8Ie/cfeLnnzk8o/GJ1H/7KDd+0gc81+NqydTEcFCgACBAQW65/hfHNv/meaZ9tF4H/zfx/vi7/r4h1/cvZorbrYQyFegS+58R2/kBAgQ2E7AWQQIECAwkMCn/4eLXxCfMP3iMwenfi+04e2xm5fF1UKAAAEC4wucil1+U7wv/uULz/zJ78f75iufefieu+I2C4EsBRSwspy2FAZtDAQIECBAgACB5wT+4AP3vSY+OfrFg+t7/0fc+pa4dk+c4hcLAQIECCQgcF8cw489E051n5d15V984M6L8baFwJoCaRymgJXGPBgFAQIECBAgQCBLge4Dg2Ph6uf39g9+OwbQFa7241cLAQIECBwXSOT7JrTdh7z/2LVTZ37vUx+6923t+4P77ETmxjBWCyhgrTZyBAECBAgQIECAwIxAeyXsPfXwpe99uj33/8Rdb41rE1cLgcEENEyAQI8Cbbinadr3PXXx8v/21G9cekOPLWuKwGACCliD0WqYAAECBAgQIJCUQG+D+fQjF1/51Fdc/q02NL9w87f5vbWtIQIECBAYUaANr28Pmo88+fDln/ndX3/p2RF71hWBjQUUsDYmcwIBAgQI1CsgcgIEulddHbR7vxXikx4aBAgQIFCEQPc2wh+6+/QffeRTH7j3pUVEJIgiBRSwipxWQRFIWMDQCBAgQCBLgUc/8tBtT37w8n/Zts0vxOLV7XEN1jiVrVUeyAE5UEwOvK7Zb//3eF//XTEiC4HkBBSwkpuS1QNyBAECBAgQIEBgTIE//I27X3TuT57+aGjCvzVmv/oiQIAAgZEF2nBHvK//5Sc/dPmn2ytBvWBk/nnd2facgIR8zsJ3BAgQIECAAAECMwJPPXzpFc9cP/U/x82vjKuFAAECuQkY73YCP/zUGy//nfaj4fR2pzuLQP8CClj9m2qRAAECBAgQIFCEwFMfuPSGtm3+pxjMC+JqqVZA4AQIVCnQhO956jOX//GT//DyHVXGL+jkBBSwkpsSAyJAgAABAgSKE8gwoE9/8OJfaPeaD8ehX46rhQABAgTqFPjacFt45DMP33NXneGLOiUBBayUZsNYCBAgQGChgB0ECIwn8NQjl77kerP337YhnI+rz2eO9Bx8Zr8ckAMV58Abnmn3/7uPf/jF5+LdoYXAZAIKWJPR65jA6AI6JECAAAECKwU+9aF7X3Zw0PxaPPBCXC0ECBAgQKAT+Krzn/2TX2k/HE51N6wEphBQwNpI3cEECBAgQIAAgXIFnvqNSw82oX04RnhfXC0ECBAgQOBZgSaEv/ipZy7/p89uKP4bAaYmoICV2owYDwECBAgQIEBgAoHuL00dXN/7+20IL5qge10SIFCigJiKE2ja8NZPPXzprxUXmICyEFDAymKaDJIAAQIECBAgMKzAk5++9NMhtF86bC9a31TA8QQIEEhOoG3e++QHL78+uXEZUPECCljFT7EACRAgQIBA1QKCX0MgPhF5c2gav1Ffw8ohBAgQIBDOtiH8ir9MKBPGFlDAGltcfwQIEMhOwIAJEChZ4BP/+IEXt034OzHGJq4WAgQIECCwWqAJn/tMu/e3Vx/oCAL9CShg9WepJQKLBewhQIAAAQKJCuzvP/O3QhvujmuwBgYtAz8HckAOrJsDzbf9wQfu+9Z4tIXAKALZFLBG0dAJAQIECBAgQKAigU998N5vi0/UvrmikIVKgAABAj0KNM3B+z714Xsv9NjkYVP+ITBPQAFrnoptBAgQIECAAIHCBZ741eefb5r2vYWHKTwCtQqIm8BYAg81V9sfHasz/dQtoIBV9/yLngABAgQIEKhU4PSZa1faNryo0vDXCNshBAgQILCOQNuEH/rEBy5+wTrHOobALgIKWLvoOZcAAQIECBBYLGBPsgJPfuDy89oQ/nqyAzQwAgQIEMhJ4PR+s/+OnAZsrHkKKGDlOW9GTYBAJQLCJECAwBAC8bfl/25s91xcLQQIECBAoAeB9i998uH7X91DQ5ogsFBAAWshjR2FCAiDAAECBAgQOCbw2CN3XIo3vz+uFgIECBAg0JdA0xxc//f6akw7BOYJrFHAmneabQQIECBAgAABAjkKnHnmzA/HcfuLURHBQoAAAQKzAtvfbkL4zicfufx527fgTALLBRSwlvvYS4AAAQIECBAoRuDjH37xudA0P1BMQAIhkKKAMRGoV2C/fab5wXrDF/nQAgpYQwtrnwABAgQIECCQiMDt1/70X41DuSeuSS8GR4AAAQJ5CrRN+92/++svPZvn6I06dQEFrNRnyPgIECBAgMDmAs4gMF+gad8yf4etBAgQIEBgd4EmhIt37P3hN+zekhYInBRQwDppYgsBAgRCCBAIECBQlsAnP3j/feEgfH1oY1zWwEEeyAE5IAeGyYFYZPDLkkhr6V8g5lb/jWqRwKGAfwgQIECAAIFkBPbbz35PrNqcjmsckwoWBzkgB+SAHBgqB8Kb/+jX7vJ29Xi1rWoZIVgFrBGQdUGAAAECBAgQmFqgDc03TT0G/RMgQIDAYoGC9py9dnr/awuKRyiJCChgJTIRhkGAAAECBAgQGErgd94fzrQhfFlcvWMmInMo9nUn8lt+y4FUcqBtviYOxUKgVwEFrF45NUaAAAECBAgQSE/gvrvu/dI4qtvjumKxmwABAgQI9CKggNULo0aOCyhgHdfwPQECBAgQ2FXA+QQSFGjD9a9OcFiGRIAAAQLlCrz8079+8aFywxPZFAIKWFOo65MAgaUCdhIgQIBAzwIHzZt6blFzBAgQIEBgqcBn9/Zce5YK2bmpgALWpmJ5HG+UBAgQIECAAIHnBJrwBc/d8B0BAgQIEBheYC+0rxy+Fz2EEKpBUMCqZqoFSoAAAQIECNQo8JmH77krxn1/XC0ECBAgMFfAxiEE2ja8fIh2tVmvgAJWvXMvcgIECBAgQKACgavX9zyBqGCeJw/RAAgQIDArsKeANUvi9m4CCli7+TmbAAECBAgQINCLwFCNxAd7ClhD4WqXAAECBBYLtOFl7fvD/uID7CGwmUB8TLPZCY4mQIAAAQKJChgWAQLzBJr2JfM220aAAAECBAYWOPfEXRefP3Afmq9IQAGroskWKoHVAo4gQIAAgdIEmnbv7tDGqKyBgzyQA3JADoybA/uh7T6HMXZqIbC7wN7uTWjhFgE3CBAgQIAAAQIpCbThjpSGYywECBAgUI9Ac9CUfQ2qZyqTiFQBK4lpMAgCBAgQIECAwDACB0EBaxhZrRIg0IeANgoX8EuUwid43PAUsMb11hsBAgQIECBAYFSBplHAGhV8/M70SIAAgWQFmhDuTHZwBpadgAJWdlNmwAQIECBAgEC/AqW3dnB76RGKjwABAgQSFWiaC4mOzLAyFFDAynDSDJkAAQLJCRgQAQLpCrQh/gI83eEZGQECBAgULNC2ag4FT+/YoUmmscX1R2CBgM0ECBAgQIAAAQIECBAgQIDAfIGSCljzI7SVAAECBAgQIECAAAECBAgQKElALBUKKGBVOOlCJkCAAAECBAgQIECgdgHxEyBAIC8BBay85stoCRAgQIAAAQIEUhEwDgIECBAgQGA0AQWs0ah1RIAAAQIECMwKuE2AAAECBAgQIEBgHQEFrHWUHEOAAIF0BYyMAAECywUOQmhbKwM5IAfkgBwYPwfiJWj5NcpeAhsIKGBtgOXQUgXERYAAAQIECBAgQIAAAQIECKQs0E8BK+UIjY0AAQIECBAgQIAAAQIECBDoR0ArBCYSUMCaCF63BAgQIECAAAECBAjUKSBqAgQIENhcQAFrczNnECBAgAABAgQITCugdwIECBAgQKAyAQWsyiZcuAQIECBA4IaAfwkQIECAAAECBAjkI6CAlc9cGSkBAqkJGA8BAgQIECBAgAABAgQIjCKggDUKs04WCdhOgAABAgQIECBAgAABAgQIlC+wa4QKWLsKOp8AAQIECBAgQIAAAQIECAwvoAcCVQsoYFU9/YInQIAAAQIECBAgUJOAWAkQIEAgVwEFrFxnzrgJECBAgAABAlMI6JMAAQIECBAgMIGAAtYE6LokQIAAgboFRE+AAAECBAgQIECAwGYCClibeTmaAIE0BIyCAAECBDYRaOPB1hAYMJADckAOjJsD8fJjIdCXgAJWX5LZtWPABAgQIECAAAECBAgQIECAQPkCZUSogFXGPIqCAAECBAgQIECAAAECBIYS0C4BApMLKGBNPgUGQIAAAQIECBAgQKB8ARESIECAAIFdBBSwdtFzLgECBAgQIEBgPAE9ESBAgAABAgSqFVDAqnbqBU6AAIEaBcRMgAABAgQIECBAgECOAgpYOc6aMROYUkDfBAgQIECAAAECBAgQIEBgZAEFrJHBu+6sBAgQIECAAAECBAgQIECAQPkCIuxPQAGrP0stESBAgAABAgQIECBAgEC/AlojQIDAoYAC1iGDfwgQIECAAAECZQocxLBaa6jbIIjfz4AckAOT5EBktxDoTUABqzdKDREgQIAAAQLFCgiMAAECBAgQIEBgUgEFrEn5dU6AAIF6BERKgMBEAl565OVHckAOyAE5MFUOdC8Dnujyp9vyBBSwyptTEZUrIDICBAgQIECAAAECBAgQIFClQGUFrCrnWNAECBAgQIAAAQIECBAgQKAyAeGWJqCAVdqMiocAAQIECBAgQIAAAQJ9CGiDAAECCQkoYCU0GYZCgAABAgQIECBQloBoCBAgQIAAgX4EFLD6cdQKAQIECBAgMIyAVgkQIECAAAECBAgEBSxJQIAAgeIFBEiAAAECBAgQIECAAIG8BRSw8p4/ox9LQD8ECBAgQIAAAQIECBAgQIDARfSxFAAAEABJREFUZAKjFbAmi1DHBAgQIECAAAECBAgQIECAwGgCOiIwhIAC1hCq2iRAgAABAgQIECBAgMD2As4kQIAAgRkBBawZEDcJECBAgAABAgRKEBADAQIECBAgUJKAAlZJsykWAgQIECDQp4C2CBAgQIAAAQIECCQioICVyEQYBgECZQqIigABApMLtHEE1hAYMJADckAOjJ8D8RJkIdCXgAJWX5LaGUpAuwQIECBAgAABAgQIECBAgED5AksjVMBaymMnAQIECBAgQIAAAQIECBDIRcA4CZQroIBV7tyKjAABAgQIECBwU8D7ZsZ/3wzzbM293zTeb8hf+dtXDsR0shDoSUABqydIzRAgQIAAAQIECNwQ8C8BAgQIECBAoG8BBay+RbVHgAABAgR2F9ACAQIECBAgQIAAAQLHBBSwjmH4lgCBkgTEQoAAAQIECBAgQIAAAQKlCChglTKTQ8ShTQIECBAgQCB7gb4+xUQ7PhFHDsgBOSAHNs2B69lfRSsKIINQFbAymCRDJECAAAECBAgQIECAAIG0BYyOAIFhBRSwhvXVOgECBAgQIECAAAEC6wk4igABAgQILBRQwFpIYwcBAgQIECBAIDcB4yVAgAABAgQIlCmggFXmvIqKAAECBLYVcB4BAgQIECBAgAABAskJKGAlNyUGRCB/AREQIECAQEICB3Esm37qruN9UrMckANyQA70kQM+xT1ehC19CShg9SXZbztaI0CAAAECBAgQIECAAAECBMoXEOGaAgpYa0I5jAABAgQIECBAgAABAgRSFDAmAgRqEFDAqmGWxUiAAAECBAgQIEBgmYB9BAgQIEAgcQEFrMQnyPAIECBAgACBPASMkgABAgQIECBAYDgBBazhbLVMgAABApsJOJoAAQIECBAgQIAAAQJzBRSw5rLYSCBXAeMmQIAAAQIECBAgQIAAAQLlCShgzc6p2wQIECBAgAABAgQIECBAgED5AiLMSkABK6vpMlgCBAgQIECAAAECBAikI2AkBAgQGEtAAWssaf0QIECAAAECBAgQOClgCwECBAgQILCGgALWGkgOIUCAAAECBFIWMDYCBAgQIECAAIHSBRSwSp9h8REgQGAdAccQIFC2QBvDs4bAgIEckANyYNwciJcfC4G+BBSw+pLUTvUCAAgQIECAAAECBAgQIECAAIFhBFIqYA0ToVYJECBAgAABAgQIECBAgACBlASMhcDGAgpYG5M5gQABAgQIECBAgAABAlML6J8AAQJ1CShg1TXfoiVAgAABAgQIEDgS8JUAAQIECBDIRkABK5upMlACBAgQIJCegBGlL+Dzisf9vGLevOWAHJADz+VA+ldJI8xJQAErp9kyVgIEShQQEwECBAgQIECAAAECBAisEFDAWgFkdw4CxkiAAAECBAgQIECAAAECBAiULHCjgFVyhGIjQIAAAQIECBAgQIAAAQIEbgj4l0CmAgpYmU6cYRMgQIAAAQIECBAgMI2AXgkQIEBgfAEFrPHN9UiAAAECBAgQqF1A/AQIECBAgACBjQQUsDbicjABAgQIEEhFwDgIECBAgAABAgQI1COggFXPXIuUAIFZAbcJECBQg0Abg7SGwICBHJADcmD8HIiXIAuBvgQUsPqSrLQdYRMgQIAAAQIECBAgQIAAAQLlC0wdoQLW1DOgfwIECBAgQIAAAQIECBCoQUCMBAjsIKCAtQOeUwkQIECAAAECBAgQGFNAXwQIECBQq4ACVq0zL24CBAgQIECgTgFREyBAgAABAgQyFFDAynDSDJkAAQIEphXQOwECBAgQIECAAAEC4wooYI3rrTcCBG4I+JcAAQIECBAgQIAAAQIECKwtoIC1NlVqBxoPAQIECBAgQIAAAQIECBAgUL6ACDsBBaxOwUqAAAECBAgQIECAAAEC5QqIjACB7AUUsLKfQgEQIECAAAECBAgQGF5ADwQIECBAYEoBBawp9fVNgAABAgQI1CQgVgIECBAgQIAAgS0FFLC2hHMaAQIECEwhoE8CBDYWaOMZ1hAYMJADckAOjJ8D1+M1yEKgJwEFrJ4gNUMgGwEDJUCAAAECBAgQIECAAAECmQkoYG0xYU4hQIAAAQIECBAgQIAAAQIEyhcQYToCCljpzIWRECBAgAABAgR6FziILXrXzPjvmmHOXA48mwPewVvx/XAM3UKgNwEFrN4oNUSAAAECBAgQIEBgCAFtEiBAgAABAgpYcoAAAQIECBAoX0CEBAgQIECAAAECWQsoYGU9fQZPgACB8QT0RIAAAQIECBAgQIAAgakEFLCmktdvjQJiJkCAAAECBAgQIECAAAECBLYQyKyAtUWETiFAgAABAgQIECBAgAABAgQyEzBcArcKKGDd6uEWAQIECBAgQIAAAQIEyhAQBQECBAoSUMAqaDKFQoAAAQIECBAg0K+A1ggQIECAAIE0BBSw0pgHoyBAgAABAqUKiIsAAQIECBAgQIDAzgIKWDsTaoAAAQJDC2ifAAECOwi08VxrCAwYyAE5IAfGz4F4CbIQ6EtAAasvSe2kLWB0BAgQIECAAAECBAgQIECAQLYCaxewso3QwAkQIECAAAECBAgQIECAAIG1BRxIIEUBBawUZ8WYCBAgQIAAAQIECBDIWcDYCRAgQKBnAQWsnkE1R4AAAQIECBBISyDXD30x7vE/rIY5czkgB/rOgbSuiEaTt4ACVt7zZ/QECBAgQGCxgD0ECBAgQIAAAQIEChFQwCpkIoVBgMAwAlolQIAAAQIECBAgQIAAgekFFLCmn4PSRyA+AgQIECBAgAABAgQIECBAoHyBQSNUwBqUV+MECBAgQIAAAQIECBAgQGBdAccRILBIQAFrkYztBAgQIECAAAECBAjkJ2DEBAgQIFCkgAJWkdMqKAIECBAgQIDA9gLOJECAAAECBAikJqCAldqMGA8BAgQIlCAgBgJpCbRxONYQGDCQA3JADoybAwfx+mMh0JOAAlZPkJohQKBvAe0RIECAQF8Cnq+N+3yNN285IAfkwI0cuN7XhUw7BKKAAlZEKHYRGAECBAgQIECAAAECBAgQIFC+QAURKmBVMMlCJECAAAECBAgQIECAAIHlAvYSIJC2gAJW2vNjdAQIECBAgAABAgRyETBOAgQIECAwmIAC1mC0GiZAgAABAgQIbCrgeAIECBAgQIAAgXkCCljzVGwjQIAAgXwFjJwAAQIECBAgQIAAgeIEFLCKm1IBEdhdQAsECBAgQIAAAQIECBAgQCAlAQWsYWZDqwQIECBAgAABAgQIECBAgED5AiIcSUABayRo3RAgQIAAAQIECBAgQIDAPAHbCBAgsFpAAWu1kSMIECBAgAABAgQIpC1gdAQIECBAoHABBazCJ1h4BAgQIECAwHoCjiJAgAABAgQIEEhXQAEr3bkxMgIECOQmYLwECKQocBAH1VoDg8DAz4EckAOj50AktxDoS0ABqy9J7RDoRUAjBAgQIECAAAECBAgQIECAwKxAeQWs2QjdJkCAAAECBAgQIECAAAECBMoTEFFVAgpYVU23YAkQIECAAAECBAgQIPCcgO8IECCQi4ACVi4zZZwECBAgQIAAAQIpChgTAQIECBAgMIKAAtYIyLogQIAAAQIElgnYR4AAAQIECBAgQGC5gALWch97CRAgkIeAURIgQIAAAQIECBAgQKBgAQWsgidXaJsJOJoAAQIECBAgQIAAAQIECBBIU6DPAlaaERoVAQIECBAgQIAAAQIECBAg0KeAtgiMLqCANTq5DgkQIECAAAECBAgQIECAAAECBDYRUMDaRMuxBAgQIECAAIHMBNo43mJXsQVzGxj4OZADCedAHJqFQG8CCli9UWqIAAECBAjkJ2DEBAgQIECAAAECBHIQUMDKYZaMkQCBlAWMjQABAmkLeImOl+jIATkgB+TAVDmQ9hXS6DITUMDKbMLKHK6oCBAgQIAAAQIECBAgQIAAgfIFto9QAWt7O2cSIECAAAECBAgQIECAAIFxBfRGoFIBBaxKJ17YBAgQIECAAAECBGoVEDcBAgQI5CeggJXfnBkxAQIECBAgQGBqAf0TIECAAAECBEYVUMAalVtnBAgQIEDgSMBXAgQIECBAgAABAgTWFVDAWlfKcQQIpCdgRAQIECBAgAABAgQIECBQhYACVhXTvDhIewgQIECAAAECBAgQIECAAIHyBXKPUAEr9xk0fgIECBAgQIAAAQIECBAYQ0AfBAhMKKCANSG+rgkQIECAAAECBAjUJSBaAgQIECCwnYAC1nZuziJAgAABAgQITCOgVwIECBAgQIBAhQIKWBVOupAJECBQu4D4CVQl0MZorSEwYCAH5IAcGD8HrsdrkIVATwIKWD1BaoZAZQLCJUCAAAECBAgQIECAAAECowkoYI1GPduR2wQIECBAgAABAgQIECBAgED5AiLsQ0ABqw9FbRAgQIAAAQIECBAgQIDAcAJaJkCgegEFrOpTAAABAgQIECBAgEANAmIkQIAAAQI5Cyhg5Tx7xk6AAAECBAiMKaAvAgQIECBAgACBiQQUsCaC1y0BAgTqFBA1AQIECBAgQIAAAQIENhdQwNrczBkEphXQOwECBAgQIECAAAECBAgQqEygygJWZXMsXAIECBAgQKBigTbGbg2BAQM5IAfkwPg5cBCvQVMv+i9HQAGrnLkUCQECBAgQIECAAAECBPoW0B4BAgSSEFDASmIaDIIAAQIECBAgQKBcAZERIECAAAECuwooYO0q6HwCBAgQIEBgeAE9ECBAgAABAgQIVC2ggFX19AueAIGaBMRKgEDFAj74ZfwPfmHOXA7IATlQ8YVX6EMIKGANoarNUgXERYAAAQIECBAgQIAAAQIECEwgMHIBa4IIdUmAAAECBAgQIECAAAECBAiMLKA7Av0KKGD166k1AgQIECBAgAABAgQI9COgFQIECBB4VkAB61kK3xAgQIAAAQIECJQmIB4CBAgQIECgDAEFrDLmURQECBAgQGAoAe0SIECAAAECBAgQmFxAAWvyKTAAAgTKFxAhAQIEphTwZ7D8KTQ5IAfkgByYKgcOprwA6rswAQWswia02HAERoAAAQIECBAgQIAAAQIECJQvsCBCBawFMDYTIECAAAECBAgQIECAAIEcBYyZQIkCClglzqqYCBAgQIAAAQIECBDYRcC5BAgQIJCYgAJWYhNiOAQIECBAgACBMgREQYAAAQIECBDoT0ABqz9LLREgQIAAgX4FtEagD4Hu83On+uxe/frcaDkgB+RA3TnQx3VMGwRuCihg3YTwhQCBMgVERYAAAQIECBAgQIAAAQL5Cyhg5T+HQ0egfQIECBAgQIAAAQIECBAgQKB8gaQjVMBKenoMjgABAgQIECBAgAABAgTyETBSAgSGElDAGkpWuwQIECBAgAABAgQIbC7gDAIECBAgMEdAAWsOik0ECBAgQIAAgZwFjJ0AAQIECBAgUJqAAlZpMyoeAgQIEOhDQIWQeScAABAASURBVBsEihHwRwjr/gNg/gCc+ZcDcmDKHCjmYiqQJAQUsJKYBoMgUKKAmAgQIECAAAECBAgQIECAQD8CClj9OA7TilYJECBAgAABAgQIECBAgACB8gVEuFJAAWslkQMIECBAgAABAgQIECBAIHUB4yNAoGwBBayy51d0BAgQIECAAAECBNYVcBwBAgQIEEhWQAEr2akxMAIECBAgQCA/ASMmQIAAAQIECBAYQkABawhVbRIgQIDA9gLOJECgX4Ep//yUvv35MzkgB+RA3TnQ/Sncfq9qWqtYQAGr4skXerkCIiNAgAABAgQIECBAgAABAiUJKGDNn01bCRAgQIAAAQIECBAgQIAAgfIFRJiJgAJWJhNlmAQIECBAgAABAgQIEEhTwKgIECAwvIAC1vDGeiBAgAABAgQIECCwXMBeAgQIECBAYKmAAtZSHjsJECBAgACBXASMkwABAgQIECBAoFwBBaxy51ZkBAgQ2FTA8QQIECBAgAABAgQIEEhSQAEryWkxqHwFjJwAAQIECBAgQIAAAQIECBDoWyC9AlbfEWqPAAECBAgQIECAAAECBAgQSE/AiAhsIKCAtQGWQwkQIECAAAECBAgQIJCSgLEQIECgFgEFrFpmWpwECBAgQIAAAQLzBGwjQIAAAQIEMhBQwMpgkgyRAAECBAikLWB0SQu0cXTWEBgwkANyQA6MnwPxEmQh0JeAAlZfktohQIDALgLOJUCAAAECBAgQIECAAIGFAgpYC2nsyE3AeAkQIECAAAECBAgQIECAAIEyBY4XsMqMUFQECBAgQIAAAQIECBAgQIDAcQHfE8hOQAEruykzYAIECBAgQIDAZgI+9mX8j31hXoO5GOW5HFiVA5tdrRxNYLmAAtZyH3sJECBAgAABAgSGEtAuAQIECBAgQGBNAQWsNaEcRoAAAQIEUhQwJgIECBAgQIAAAQI1CChg1TDLYiRAYJmAfQQIECBAgAABAgQIECCQuIACVuITlMfwjJIAAQIECBAgQIAAAQIECBAoX2C6CBWwprPXMwECBAgQIECAAAECBAjUJiBeAgS2ElDA2orNSQQIECBAgAABAgQITCWgXwIECBCoT0ABq745FzEBAgQIECBAgAABAgQIECBAICsBBayspstgCRAgQCAdASMhkJFAG8dqDYEBAzkgB+TAuDlwPV5/LAR6ElDA6glSMwQIbCHgFAIECBAgQIAAAQIECBAgsIaAAtYaSCkfYmwECBAgQIAAAQIECBAgQIBA+QK1R6iAVXsGiJ8AAQIECBAgQIAAAQJ1CIiSAIGMBRSwMp48QydAgAABAgQIECAwroDeCBAgQIDANAIKWNO465UAAQIECBCoVUDcBAgQIECAAAECGwsoYG1M5gQCBAgQmFpA/wQIECBAgAABAgQI1CWggFXXfIuWwJGArwQIECBAgAABAgQIECBAIBsBBaytp8qJBAgQIECAAAECBAgQIECAQPkCIkxBQAErhVkwBgIECBAgQIAAAQIECJQsIDYCBAjsKKCAtSOg0wkQIECAAAECBAiMIaAPAgQIECBQs4ACVs2zL3YCBAgQIFCXgGgJECBAgAABAgQyFVDAynTiDJsAAQLTCOiVAIHsBA7iiFtrYBAY+DmQA3Jg9ByI5BYCfQkoYPUlqR0C6wo4jgABAgQIjCigbqNuIwfkgByQA1PlwPURr3e6Kl8gywJW+dMiQgIECBAgQIAAAQIECBAgQIAAgSMBBawjCV8JECBAgAABAgQIECBQnoCICBAgUISAAlYR0ygIAgQIECBAgACB4QS0TIAAAQIECEwtoIA19QzonwABAgQI1CAgRgIECBAgQIAAAQI7CChg7YDnVAIECIwpoC8CBAgQIECAAAECBAjUKqCAVevM1xm3qAkQIECAQIUCBzHmqf7+lH797TM5IAfkQN05EC9BFgI9CWxYwOqpV80QIECAAAECBAgQIECAAAECCQsYGoG0BBSw0poPoyFAgAABAgQIECBAoBQBcRAgQIBAbwIKWL1RaogAAQIECBAgQKBvAe0RIECAAAECBDoBBaxOwUqAAAECBMoVEFntAj5+pu6PnzH/5l8OyIEpc6D2a7D4exVQwOqVU2MECJQpICoCBAgQIECAAAECBAgQmFJAAWtK/Zr6FisBAgQIECBAgAABAgQIECBQvsBAESpgDQSrWQIECBAgQIAAAQIECBAgsI2AcwgQOCmggHXSxBYCBAgQIECAAAECBPIWMHoCBAgQKExAAauwCRUOAQIECBAgQKAfAa0QIECAAAECBNIRUMBKZy6MhAABAgRKExAPAQIECBAgQIAAAQK9CChg9cKoEQIEhhLQLgECBAgQIECAAAECBAgQUMAqPwdESIAAAQIECBAgQIAAAQIECJQvUHSEClhFT6/gCBAgQIAAAQIECBAgQGB9AUcSIJCqgAJWqjNjXAQIECBQi0ATA7WGwGAgg4MQwkFrZTB8DsQ0C4drzDlfAwt5IAdiDlgI9CmggNWnprYIECBAgMCtAusUZW49wy0CIQQIBHIUaGPVap01x9iMmQABAgSmF1DAmn4OjIAAAQIE+hcYs8VlRaoxx6EvAvMFYlHBywAiDYdkXhLUHsShzFnlqTyVAwXmwPUYk4VATwIKWD1BaoZAeQIiIkBgjsC8YtWcw2wiQIAAgU0F5r16a9M2HE+AAAEC5QooYA05t9omQIAAgdwFZgtWucdj/AQIEMhKYLaoldXgDZYAgboERDu4gALW4MQ6IECAAIHMBI4XrTIbuuESIECgbIHjBa2yI60zOlETIEBgmYAC1jId+wgQIECgFgFFq1pmWpwEyhaoKjrFrKqmW7AECBAICliSgAABAgRqFVC0qnXml8ZtJwECOQooZuU4a8ZMgACBzQQUsDbzcjQBAgQIrBJIf/9R4Sr9kRohAQIECGwsoJi1MZkTCBAgkIWAAlYW02SQtQmIlwCBQQRqKVwdxelrCAw6g4MQ2mBlcDIHYloUvxwVs4oPVIAECBCoQKDUAlYFUydEAgQIEFhD4HgBY43DRz3k+Nj6/H7UIHRGgEC+AkMV9VIUUchKcVaMiUBvAhqqREABq5KJFiYBAgQqEzgqCE0Z9tEYFn2dcmz6JkCAwGACqwpjg3W8RsMKWYuQbCdAgED6AgpY6c+RERIgQIDA+gJHxaL1z+jnyKN+j3/tp2WtECCQh4BRri2wqMC1dgM9HKiQ1QOiJggQIDCygALWyOC6I0CAAIHtBdrf/bmzVz/5k6+6+sRPfOvVJ97x7199/Cf+62uPv+Phq4+/4yNx/T+vPvYTvxe/fnqC9anYp/Xxd+xkwHAYvwe/5m1vfOir/lqwlm/w4Je/NTzvS78vPPAl/1q473XfHi6/6s3hrpd8Wbj9/leEM3fcH/b2z5z8IKxF1aQJth8VlY6+jvHhbW33GXFxHaMvfcTr/wR5xX1i99i9hUBfAgpYfUlqhwABAtMLFDeC9tNX7nz6sXe8+doT7/iZWNz47Wvn/8WfhusH/1do278fH5D+zfhM7PviY+Gvi4G/Ma6vDk37kvj1HmtgEBgc/RzEosWpvVPngrV8g/3b7gynL1wOZ+56IJy7+KJw/oHPPyxgXXr1N4cH/txbwkNf/YPh+V/+V8LFV3z94b69s7fHNEl3iffv8a4+3tOPMMSuaDZCN7ogQIAAgR0EFLB2wHNqiQJiIkBgaoE/+YOfvP/pJ37i34kFq39y7en9zzRN+NX4xOKH4rheG9f9uFoIECBAYEuBU+fvCRce+sJw+dVvDg+96QfC8974bxwWufZvuzv+biAWi7qq0ZZtD3laN6yjdah+4rXm0GCo9rVLgAABArsJ9F/A2m08ziZAgACBCgXaj185d/Wxt39HLFr96ulnDh5r2vZnI8OXxlXBKiJYCBAgMJTA6QuXwl2f+2Xhwa/4K+H+N3x3uOOh14Rm/+xhIaeNFaNt16HG27UbhzXoK7O6mLt+rAQIrCHgEAIjCihgjYitKwIECBC4VaD91JULTz/xjrddO7P/e6FpfiXufXNcT8XVQoAAAQKjCjTh3N0Phouv/Avhwa/8q+Hi53912D97YesRdEWgRevWjc458aiYNWfXTpuOxr5TI2ue7DACBAgQWE9AAWs9J0cRIECAQI8C3WdbXX38HT9y7bN7v9+07ftCaB+Ma+yhtT77ugIWckIOrJkD7jd6vt/Y2z8V7njh68KDb/r+cPlV3xhOnb87Gve3HBWHjn/dtfXjPy27tnX8/G6Mx2/7ngABAgSmE9ibrms9EyBAgEBtAm17Ze/aY2//3mtP7/2/8YnpO2P8F+NqmVzAAAgQIHBSoGn2w+3Pf2V4/pd/3+ErsvZOnT55UE9bukLR8XWXZo+KWbu0cfzcblzHb/ueAAECBKYRUMCaxl2vBAiUJiCelQLXHn/7F117fO8j8YnFL4Q2XIprrGHF0+IG33OQA3JADqSbA03YD3e84HXh+V/2b4YLz3vljfvuMOx/XdHoaN22p6PLy7bnHz9v17Ecb8v3BAgQILCdgALWdm7OGkBAkwQIlCnQPvozt1179Mf/Vnzw/9EY4Z+Lq4UAAQIEMhToPhPr0qu+Mdz3RX85NGduX++D3mOcR4Wkbb8exBOP1vjtxrXOgziGbt3m3NlzunHMbnP7Rk2TA4d5ORB//CwE5gpss1EBaxs15xAgQIDAWgJPP/6Ol19r/vR/bZvm344nuOZEBAsBAgRyF7jt3peEh974veG2Sy9eHcq8Z7TdttVnzj0i/jLk2cLZ3AOWbNyh21ta7cZwywY3CEwjoFcC1Ql4MlHdlAuYAAEC4whce+zH39K07Ufj7yO/cJwe9UKAAAECYwnsnTkf7n/9t4R7Pu/Ph9Bs8ZSiqybNrmGz/7pCUrductZRlzfO2f7fTfvdvidnEiBAgMCRwBZXm6NTfSVAgAABAicF2vbKqacfe/vPt6H5xbj3QlwtBAiUKiCuygWacNeL3xAeeN23hL1TZ3a3aGMTR2v8dt2lKyZ167rHd8d13XRfd1k37XOXvpxLgAABAiEoYMkCAgQIEOhNoP3dnzt77fG9X25C+9aw8aeUdE8n6ls5mXM5IAdyz4Fzl14YHnjDd4e9MxeefXtfV9w5Wre6HHQfWnW0rpkibTy+W9ftb6fx3RzTJv2tOy7HxYclN31ZFGARfy5jFBYCvQgoYPXCqBECBCYU0HUiAu3Hr9x99fwffig+Efu2RIZkGAQIECAwksCZC5fC89/wneH0+XtO9DivFnHioGUbjjew7Lib+54tTN28vepL1/yqY5bt7/pbtt8+AgQIEOhHQAGrH8fMWzF8AgQI7CbQPnHl8rXTzf/YtOFNu7XkbAIECBDIVeDU+bvC897wHaErZq2KoSsaza6rzjncf3TS4Y3l/3SFpW5dftSNvRs0e+OEmX/X7WfmNDcJECAwgUC+XSpg5Tt3Rk6AAIEkBGLx6vy1g+YfxcH4sPbecPU7AAAQAElEQVSIYCFAgEDNAvtnbw8PfPG3hVO33bkxw1ERqfu68uTuoKN1xcGbFJe6Jlc0t3D3Jv0sbMSOPASMkgCBSQQUsCZh1ykBAgTKEGg/+vOnr7V7/yBG88a4WggQIECAQDgqYu2duf3Zz8SaZVl1uyskHa2rjj38nKQVB3XFpW5dcdjh7q7fw2+2+GfdPrZo2ikECBCoXkABq/oUAECAAIHtBNq2ba498Im/HZ+dfMN2LTiLAIEdBJxKIGmB0+fvDg+8/i+FvVOnD8fZxqrQ7Hq4Y41/4qmra1RrHRTiJWuNDuMhXXPxy1ZLF+dWJzqJAAECBJYKKGAt5bGTAAECBBYJPP3Y23+sDc33tvGAPNf4RMbYD58Umj+5IAfkwBA5cObO+8PlVy/+HUdX6Dm+xrvkpcvxMS488OighQfEuY7HdP0uOeRwVzzs8Kt/CBAgQCANAQWsNObBKAjkKWDU1Qr82aNXvqoJ7X8UumcA1ueeDbFgIQfkgBy4JQduv++l4c4Xvnat6+VxulUndMWlbl14XLezWxcecGOYS3Yf7lrRxOEx8/7pYpm33TYCBAgQ2F5AAWt7u17O1AgBAgRyE/j/PnnlviaEvxvHvR9XCwECBAgQWCpw8eV/PnSvxlp60MzOrgDUrTObT9zsCkzdemLH0YalOxWxjph8JUBgHAG97CaggLWbn7MJECBQlUDbXtk7fS38Ugz6eXG1ECBAgACBlQLN3qlw32u+KTSnzp542/Kqk7si1tG67NildaqlOxWxlrkmuM+QCBCoWEABq+LJFzoBAgQ2Fbj6eHhraMLXbXqe4wkQIEAgFYFpxtF9qPvFl33Zic672tLRemLnzIZVhayl7SzdOWwRayYMNwkQIEBgSwEFrC3hnEaAAIHaBP74sb95Kf7q/B21xS1eAicEbCBAYCuBO1/wmnDuzgditSieflRQOvb1qEDVfY3Xm8XHHcRdcV10zOH5sYu5y7H+Zs9vl7R5dOxh20vaODru+Nd12j1+vO/jzG1ozCxhszg0C4G+BBSw+pLUDgECBAoXOBuuvTeGeDmuOy8aIECAAIEKBZomXHzl14TQrH4Kcrx+ERb81xWTunXe7m57t87bt2zbOud0Y1vWxrx967Q77zzbCBAgQOA5gdVXj+eO9R0BAukIGAmBUQX+5e//2Fe0bfjXR+1UZwQIECBQnMC5u+4Pdzz0qlv+iO2qILuCUbcuOi5enxbtOuxn4c4FO5a1t+AUmwkQIEBgBIGKC1gj6OqCAAEChQjs7YefCqFt4hoj6p5GWFnIATkgB+TAdjlw8WVfGpr95/6QbVcwOlrjRWbhctTbvAOWnd/tm3fOsm2rzunGsuz8eftWtTnvHNsIEOhLQDslCChglTCLYiBAgMCAAn/26JWvCm34igG70DQBAgQIVCSwf+Z8uPOhV8+NuCvydOvcnTc3dsWjbr1585Yvi87ttnfrLQevuLHq+EVjWNFsvruNnAABAhMLKGBNPAG6J0CAQOoCTdv+h6mP0fgIECCQg4AxPidw90u+ODTNc6/Cem7Pje+64tHRemPLyX8XFZCWndftO9nS4i2rjl80hkUtrmpv0Xm2EyBAgEAICliygAABAgQWClx79MobQhO+buEBdhAYV0BvBAgUInDq3IVw+4OvCAexotMVgZatB3Fnt8YvYXbt/nBgt85u724vPCfujMuJthZtW9TOouNXbe+7vVX92e/NvlPmQPfzWcjdljASEFDASmASDIEAAQLjCWzW0/W2/RubneFoAgQIECCwnsA9n/O6wwPbroh1cz3csOCfeMiCPTcKFPN2Ljpn0fZ5bXTblh3fFQe6Y6wECBAgMKyAAtawvlovUUBMBCoRaD/2I3c1oflX1v4VdfcI3nrjWRQHDnJADsiBlTlw5vaL4dzdD9xyVT0qZt2y8diNrpDUrcc2PfttR/7sjWPfLDx+0QnHzl33202bWjSmdftzHAECBGoUmKSAVSO0mAkQIJCbwNXTZ747hIPbggpWnLruqYlVLsgBOSAH+s6BO57/ingfe3LZtpB1NEOzLS4qGC3aPnt+d3uTY7vjrQQI3BDwL4G+BBSw+pLUDgECBAoTaJrmLYWFJBwCBAgQSEzgjue/PDRLP8y9DV0xa1HhbNG+eFaM9KicdePrwmMPK1M3jlnUz9H2RW10++f12W1ftC5ra+acE7HYv958cUrB6XrMXwuBfgQUsPpx1AoBAgSKEnj60SsvjY/n31hUUIIhQKBiAaGnKrB/+lw4f9+Lwo3iz+JRxmtSLGTN39/tm7ene+o+u33RsbPHbXt7Xp/btuU8AgQIELhVQAHrVg+3CBAgQKATODj45viliauFwA0B/xIgQGAggdsvf87hC2W6VyR1a6xmHd6e97Xt/qRZVyWaWbvt3Tp7zmHBas6xJ45b0O7scd3tef1027dZ+2xrm/6dE5N6Jj+Y9GwSm7MQ6EtAAasvSe0QIEBghUBWu5vw1VmN12AJECBAIFuB85dfeMvYu1djdestG4/d6IpS3Xps07Pfztve1SeePeDmN3OPm3fgzeNnv8w7/+iYDZo5OsVXAgQIEFhDQAFrDSSHJCNgIAQIjCDQtt++H7t5U1wtBAgQIEBgcIHT5+8Kp2+780Q/XRGrW0/suLlhURFp3vZ5RaW5x8078GZ/vhAgQIDAqAInOlPAOkFiAwECBOoW+Ow///zXRoF74mohQIAAAQKjCNx26QUL++mKWN0674B5RajuuHnb59Wm5h3Xnb/OuuzceX0tanNZO4vOsZ3AegKOIlCWgAJWWfMpGgIECOwscNCEr1z44SOhe0hu5SMH5IAckAP95sD5Sw/dIF1yFVtWxJpXBJq7bUn7R7tuOe9oo68ECBAgMLmAAtbkU2AABAgQSEugCe2r0hqR0RAgkLOAsRNYR+DMhUs3Djuqi924deLfrojVrSd2xA3zCk/ztsVDb1nmHTNv2y0n3byx7LgulJuHrfyyrJ2VJzuAAAEClQgoYFUy0cIkQIDAugJtaD5v3WMdN4qATggQIFC8wJnbZ9653i4PeZci1rymFZCWe9tLgACBFAQUsFKYBWMgQGBgAc1vJNCGl3unYBTrnuFYb7ylhwMHOSAHBs6Bvf3TYf/s7fHO99hy1OexTce/3aSIdfy87vuu6e7rsnXdota6xy3ryz4CBAgQWC2ggLXayBGdgJUAgSoE2kevXIyBXo6rhQABAgQIjCpw4lVYR70vqTYtKmIdnXr0dV6RabbZecccnb/t19k+lrUzRP/L+rOPAAECCwUS3aGAlejEGBYBAgSmEPhs+OxLp+hXnwQIECBA4Mztdy9GWFIJmlfEmlcMmrdttsPZY2Zvzx5/dHvd446O97V8ARESINC/gAJW/6ZaJECAQLYCB22z5NlDtmEZOAECBAhkILB36uzxUZ78vitidevJPWHbItaC5m7pYdfi1Dp93NKhGwQIECAwV0ABay6LjQQIEKhToDlo7/BBL91TDas8KCEHxCCP88qB5tTp0BWLujVWpBZP30G8Rs8Jre1OnNneLjh2WfvbnNO1t+153blHax9tHLXl6/w84TKyy/XYn4VATwIKWD1BaoYAAQIlCBzs7cUCVgmR9BSDZggQIEBgNIH9Y6/A6upQSztecMC8V2LNttPVuY5vW9DU8UMOC2u3bHCDAAECBEYXUMAanVyHBOoSEG1eAs1BuJDXiI2WAAECBEoR2Dt1+pZQVhaWVh5wo7nZgtWNrbf+O9vUOufc2sLyW7PtLz/aXgIECBCYJ6CANU8lrW1GQ4AAgdEEmqa9fbTOdESAAAECBI4JNPu3FrC6XV3hp1u779dd570Ka7YgNXt73bZXHddHu320sWqc9hMgkKyAgS0RUMBagmMXAQIEqhNo2v3qYhYwAQIECKQh0DShK1bNWxd+lFU8OC4nzjuIW+ZtX7Ztto+DeHBcYks3Po5r9vbxfb6/YZSGg7GkNA9p3LkYRSkCClilzKQ4CBAgQIAAAQIECPQhkFsb3bP1NcY8+8qm2dtrNLHTIWsOc6c+nEyAAIGSBRSwSp5dsREgQGBDgdnfPncPtq1+kysHNs8BZszkwOY5sOqS1ZkuPGbOznlvJVx4/po71il6rXPMmt05jAABAgSOCShgHcPwLQECBAh0At2zgMnXOBBj2PzpHzNmckAO5J4D8e5/ydJFt2T3yl2zxaUTt2damN0/s3uwm1P1O1hAGiZAgEAPAgpYPSBqgkCaAkZFYAsBL8Hy3Ld7dmiVB3JADkyVA2tcurqhzT1szo4hXoU1t28bCRAgQGBwAQWsZcT2ESBAgAABAgQIECAwmsC6rzyaU6tae4yzfZy4PdPSif1rdD57zlGTa5x6dKivBAiMLaC/5AUUsJKfIgMkQIAAAQIECBAgUI/AouLPWgJzKkRehbWWXC8HaYQAAQJDCihgDamrbQIECBAgQIAAAQLrCzjypsA6Raw5taobZy/ccWO3fwkQIEAgTwEFrDznzagJECBAgACBuQI2EiCQrUBXeDq2tj1+LmPbVcSWtD3bV3d4OHa872NW8fDZeNvkQEwdC4G+BBSw+pLUDgECBEoREAcBAgQIEEhE4LCQtGQs3fPpJbt72zU7jtnb8zpadMy6Y150/ry+bCNAgEANAgpYNcyyGEcX0CGBfAV6/HW3X1fHNOieplj9yloOyAE5sH4OxLvOPpaOfEU7CkQrgOwmQIBAYgKpFrASYzIcAgQIECBAgAABAgSmEFhVaFqjVnU47FUf5r6qn8NG/EOAwBAC2iSwloAC1lpMDiJAgAABAgQIECBAICuBdStbC4La8fQFrQ61WbsECBAoX0ABq/w5FiEBAgQIECBAgMAqAfuTFlj16qgxik2zY5i9nTSgwREgQKAAAQWsAiZRCAQIECBAIAUBYyBAgEDqArNvI0y9CJX6+FKfb+MjQKAsAQWssuZTNAQI5C1g9AQIECBAgMACgTGKOX33sai9MV4xtoDRZgIECGQroICV7dQZ+HwBWwkQ2Fmge1RtXf8PZrFiJQfkgBzoJwd2vIB103CiibkbTxy1cMOOpy9s1w4CBAgQ2FzgZAFr8zacQYAAAQJFCXQP1639PBvjyFEOyAE5sH4OrL6YLnpF0+ozHUGAwFwBGwlkJKCAldFkGSoBAgQIECBAgAABArsJzH4O1iatzRbQutubnO9YAgQIENheQAFreztnEiBAgAABAgQI7C6gBQKTCihCTcqvcwIECKwtoIC1NpUDCRAgQIBAqgLGRYAAgUIEdnzH5WExaraNg2gzuy1uumU5tr+dd/yx/cH3678rlBWrW37Q3CCwm4AC1m5+ziZAoBQBcRAgQIAAAQKTC6h3qHfIgbJy4Prk9yoGUJKAAlZJszlxLLonQIAAAQIECBAgMLTA4aushu6kx/ZzG2+PoWuKAIGCBaYITQFrCnV9EiBAgAABAgQIECCQhUD3iqAhBjpUu0OMVZuDrAiwZQAAEABJREFUCGiUAIENBRSwNgRzOAECBMoW8MEfZb1wv3t6ZDWnckAO5JQDm1xlHUuAAAECNQkoYNU022IlQIAAAQIECBwX8D2BSgVa7+urdOaFTYBAzgIKWDnPnrETIECAwOQCBkCAAAECaQl0rzfbdESbnKP2tamu4wkQINCPgAJWP45aIUBgewFnpiTgHYTeadQ9i7PKAzkgB6bKgaGuiV08A7WtoDUQrGYJECAwI6CANQOS502jJkCAAAECBAgQIECAAAECBMoXqDdCBax6517kBAgQIECAAAECBLIUGPpVT0O3vwl6SmPZZNxJH2twBAhkKaCAleW0GTQBAgSGFOjeZ2H1/iE5IAfkgBxYnAPD2Qx5fdM2AQIECOQsoICV8+wZOwECBAgQIJCrgHETIDBPYIqamT6Hq0eyZdt9vuq8n3XbCGwhoIC1BZpTCBAgQCAFAWMgQIAAAQIECBAgQKAWAQWsWmZanATmCdhGgAABAgQIECBAgAABAgQyEFDA2nGSnE6AAAECBAgQIECAAAECBAiULyDCaQUUsKb11zsBAgSSE/BxFT6uQg7IATkgB6bKgeQuijcH1Hnc/NaX3QScTYAAga0FFLC2pnMiAQIECBAgQIAAgbEF9EeAAAECBOoUUMCqc95FTYAAgQUC3Z+K6X7PbPX6i4JzIIhNfsuBNHNgwaXJZgIECBAgEAUUsCKChQABAgQ2E3A0AQIECBAgQIAAAQIExhRQwBpTW18EnhPwHYF0BbwwIc0XJpgX8yIH5EANOZDu1dHICBAgQGBigYwLWBPL6Z4AAQIECBAgQIAAAQJrCLRd8XGN4xxCgMAiAdsJhKCAJQsIECBAgAABAgQIECBQuoD4CBAgkLmAAlbmE2j4BAgQIECAAAEC4wjoZViB7kVKbRju/9n3oLbtwYC9DReHlgnkJDDsvYbWaxNQwKptxsVLgAABAgSmE9AzAQIEFgvcqGDN1pnc5iIHcs6BxT/x9hDYWEABa2MyJxAgQGBKgTH6zvlRkrF7lC8H5IAcyDsHxrjO6YMAAQIEchRQwMpx1ox5NwFnEyBAgAABAgQIECBAgAABAlkJbFXAyipCgyVAgAABAgQIECBAgAABAgS2EnASgVQEFLBSmQnjIECAAAECBAgQIECgRAExESBAgEAPAgpYPSBqggABAgQIECBAYEgBbRMgQIAAAQK1Cyhg1Z4B4idAgACBOgRESYAAAQIECBAgQCBjAQWsjCfP0AkQGFdAbwQIECBAgAABAgQIECAwjYAC1jTutfYqbgIEUhe4fhBC21oZyAE5IAfkwPg5EOL1J/XrpPERIECAwLoCvR+ngNU7qQYJECBAgAABAgQIECBAgMCuAs4nQOC4gALWcQ3fEyBAgAABAgQIECBQjoBICBAgQKAYAQWsYqZSIAQIECBAgACB/gW0SGBUge5dhNZw+G5KDhxKyIHro96D6KxwAQWswidYeAQIECAwuYABECBAgAABAgQIECCwo4AC1o6ATidAYAwBfRAgQIAAAQIECBAgQIBAzQIKWLXMvjgJECBAgAABAgQIECBAgACB8gUKjVABq9CJFRYBAgS2FyjhAxfE4IND5IAckAP55cD2Vy5nEuhbQHsECKQnoICV3pwYEQECBAgQIECAAIHcBYyfAAECBAj0KqCA1SunxggQIECAAAECfQlohwABAgQIECBA4EhAAetIwlcCBAgQKE9ARAQIECBAgAABAgQIFCGggFXENAqCwHACWq5QwMfG5PexMebMnMkBOVBKDlR42RUyAQIECKwnoIC1ntMuRzmXAAECBAgQIECAAIE1BEqpw4lDTVkO3MiBNX7sSztEPAMKKGANiKtpAgQIECBAgAABAgQIENhEwLEECBCYL6CANd/FVgIECFQs4HeGN35nyIGDHJADmeZAyHncFV9+hU6AAAECSwUUsJby2EmAAAECBAjUKCBmAgQmEsi59mbsat5y4GQOTHRXotsyBRSwypxXUREgQGBqAf0TIECAAAECBAgQIECgNwEFrN4oNUSgbwHtERhf4CB26ZeHJ395yISJHJADcmCcHIiXIQsBAgQIEJgrUHYBa27INhIgQIAAAQIECBAgQIAAAQJFCQimeAEFrOKnWIAECBAgQIAAAQIECBBYLeAIAgQIpCyggJXy7BgbAQIECBAgQIBATgLGSoAAAQIECAwkoIA1EKxmCRAgkKeAT8Ea51NefJrOYmc2bORA3TmQ59XTqAkQIEBgeAEFrOGN9UCAAIFxBfRGgAABAgQIECBAgACBwgQUsAqbUOH0I6AVAtUKeAFW3S988MIX8y8H5MDUOVDtBVjgBAgQILBKYKgC1qp+7SdAgAABAgQIECBAgAABAgTyFxABgVEEFLBGYdYJAQIECBAgQIAAAQIEFgnYToAAAQKrBBSwVgnZT4AAAQIECBAgkL6AEeYv0OfbF+dp9Nm+trzdVg6slwPzfhZtI7ClgALWlnBOI0CAQLkCHpGt94isPCdxm1M5IAemzYFyr6wiI0CAAIHdBRSwdjfUAgECBI4EfCVAgAABAgQIECBAgACBAQQUsAZA1eQuAs4lQIAAAQIECBAgQIAAAQIEyhfYLEIFrM28HE2AAAECBAgQIECAAAECBNIQMAoCFQkoYFU02UIlQIAAAQIECBAgQOBWAbcIECBAIA8BBaw85skoCRAgQIAAAQKpChgXAQIECBAgQGBwAQWswYl1QIAAAQIEVgnYT4AAAQKdgL8DOe3fgeTPv+8cuN79YFsJ9CSggNUTpGYIEJhYQPc9CRzEdvp+6KI9D4flgByQA3Jg3RyIlyELAQIECBCYI6CANQel1k3iJkCAwKHAus8xHOf5qByQA3JADvSZA4cXIf8QIECAwBgCOfahgJXjrBkzAQIECBAgQIAAAQIECEwpoG8CBEYWUMAaGVx3BAgQIECAAAECBAh0AlYCBAgQILC+gALW+laOJECAAAECBAikJWA0BEoT6PMtidryFlc5MH0O+BT30u6lJ41HAWtSfp0TIECAwNQC+idAgAABAgQIECBAIH0BBaz058gICaQuYHwECBAgQIAAAQIECBAgQGBQAQWsQXnXbdxxBAgQSEnA6+2nf729OTAHckAO1JoDKV0PjYUAAQJDCGhzWwEFrG3lnEeAAAECBAgQIECAAAEC4wvokQCBKgUUsKqcdkETIECAAAECBAjULCB2AgQIECCQm4ACVm4zZrwECBAgQIBACgLGQIAAAQIECBAgMKKAAtaI2LoiQIAAgeMCvidAgAABAgQIECBAgMB6AgpY6zk5ikCaAkZFoG+Bg9hgrZ8bLG6fmS0H5IAcmD4H4mXIQoAAAQIE5glUX8Cah2IbAQIECBAgQIAAAQIECBAgUJaAaPIWUMDKe/6MngABAj0LeAnW9C8/8BIQcyAH5ECtOdDzJU1zQwhokwABApMJKGBNRq9jAgQIECBAgACB+gRETIAAAQIECGwjoIC1jZpzCBAgULBArb/3F3dGr3mJP3/my3zJgfJyIP5opx3U4QBv/iMB054r85PO/Nz8kfGFQB8CClh9KGqDAAECmQkYLgECBAgQSFNgyMrDvIiH7E/b6VRRzMV0czHv5842AtsJKGBt5+YsAgQIECBAgAABAgQIECBAgACBkQQmLGCNFKFuCBAgQIAAAQIECBAgQIAAgQkFdE1gdwEFrN0NtUCAAAECBAgQIECAwI4C3uS14k1e0ZcRo9xyIKathUBvAgpYvVFqiAABAqUI5PbQyHg9nJcDcmC9HOCUg1Mp11JxECBAgEDfAgpYfYtqjwABAgQIlCsgMgIECBAgQIAAAQKTCChgTcKuUwIE6hUQOQECBAgQIECAAAECBAhsKqCAtamY46cXMAICBIYVyOEdJsbonVByQA7IgTJzYNgrnNYJECBAIDeBY+NVwDqG4VsCBAgQIECAAAECBAgQIFCSgFgIlCKggFXKTIqDAAECBAgQIECAAIEhBLRJgAABAgkIKGAlMAmGQIAAAQIECBAoW0B0BAYQ8DbSMt9Gal7LmteDAX72NVmtgAJWtVMvcAIECMwT6B5leOSY5CPHYF7MixyQAzXkwLxrk20ECBAgQCAEBSxZQIBANQICJUCAAAECBAgQIECAAIE8BRSw8py3qUatXwIECBAgQIAAAQIECBAgQKB8geQiVMBKbkoMiAABAgQIECBAgAABAgTyFxABAQJ9Cihg9ampLQIECBAgQIAAAQIE+hPQEgECBAgQuCmggHUTwhcCBAgQIECAQIkCYiJAgAABAgQIlCCggFXCLIqBAAECBIYU0DYBAgQIECBAgAABAhMLKGBNPAG6J1CHgCjzEmjjcK0hMGAgB+SAHBg3B+Llx0KAAAECBBYIKGAtgEluswERIEBgDIGD2Inna+M+X+PNWw7IATlwIwfiJchCgAABAiEECHMFFLDmsthIgAABAgQIECBAgAABArkKGDcBAuUJKGCVN6ciIkCAAAECBAgQILCrgPMJECBAgEBSAgpYSU2HwRAgQIAAAQLlCIiEAIGNBLyV8sZbKTlwKCkHNroTcDCB5QIKWMt97CVAgACBKQX0TYAAAQIECBAgQIAAgSiggBURLARKFhAbgc0EfIq7X/uW9GtfschnOZBbDow9Y8evkX32fbzdo+/7bF9buWV2vePtHlke/Qz4SmBXAQWs1YKOIECAAAECBAgQIECAAAECBMoXEGHCAgpYCU+OoREgQIAAAQIECBAgQCAvAaMlQIDAMAIKWMO4apUAAQIECBAgQIDAdgLOIkCAAAECBE4IKGCdILGBAAECBAgQyF3A+AkQIECAAAECBMoSUMAqaz5FQ4AAgb4EtEOAAAECBAgQIECAAIFkBBSwkpkKAylPQEQEMhXwp43q/VNB5t7cywE5MHUOZHrpNGwCBAgQGF4g7QLW8PHrgQABAgROCEz97EX/nkHLATkgB+rNgRMXJRsIEKhFQJwEVggoYK0AspsAAQIECBAgQIAAAQI5CBgjAQIEShZQwCp5dsVGgACBDQWux+O97qHe1z2Ye3MvB0JgMO3PgQlwIZYDheVADMdCoC8BBay+JLVDgAABAgQIhBAgECBAgAABAgQIEOhfQAGrf1MtEiBAYDcBZxMgQIAAAQIECBAgQIDALQIKWLdwuFGKgDgIECBAgAABAgQIECBAgACBcgQWFbDKiVAkBAgQIECAAAECBAgQIECAwCIB2wlkIaCAlcU0GSQBAgTGEvAx7tN+fLGPj+YvB+RAzTkw1rVuiH60SYAAAQJDCyhgDS2sfQIECBAgQIAAgdUCjiBAgAABAgQILBFQwFqCYxcBAgQIEMhJwFgJECBAgAABAgQIlCqggFXqzIqLAIFtBJxDgAABAgQIECBAgAABAgkKKGAlOCl5D8noCRDIWuAgjr7mj18Ru48fkgNyQA5MmwPxMmQhQIAAgVwExh2nAta43nojQIAAAQIECBAgQLMRIc4AABAASURBVIAAAQI3BPxLgMDaAgpYa1M5kAABAgQIECBAgACBIQW2eQGcc6Z90Rx//styYMj7C23XJ6CAVd+ci5gAAQIrBJY9DLHPw1Q5UGAOxPsE82peE8mBRIYRjMOPhBzoJweux0uMhUBPAgpYPUFqhgABAgRqFhA7AQIECBAgQIAAAQJDCihgDamrbQIE1hdwJAECBAgQIECAAAECBAgQWCCggLUAJsfNxkyAAAECBAgQIECAAAECBAiUL1BjhApYNc66mAkQIECAAAECBAgQIFC3gOgJEMhMQAErswkzXAIECBAgQIAAAQJpCBgFAQIECBAYT0ABazxrPREgQIAAAQIEbhVwiwABAgQIECBAYC0BBay1mBxEgACBWgQOYqB5/d3oEIyXgRyQA3KgnByIlyELAQIECBCYI6CANQfFJgKVCQiXAAECBAgQIECAAAECBAgkLaCA1cv0aIQAAQIFCXghQzkvZDCX5lIOyIGccqCgS6lQCBAoWUBsUwkoYE0lr18CBAgQIECAAAECBAjUKCBmAgQIbCGggLUFmlMIECBAgAABAgQITClQZN9Tv1psFnXq8ejfKyhLyIHZnyu3CewgoIC1A55TCRAgQIAAgWwFDJwAAQIECBAgQCAjAQWsjCbLUAkQIJCWgNEQIECAAAECBAgQIEBgHAEFrHGc9UJgvoCtBJIUKOH16mLwvgs5IAfkQH45kORF0aAIECBAIBGB7AtYiTgaBgECBAgQIECAAAECOwn0WXScN5A+29dWfgVSczbNnF2f98O49TYn1i2ggFX3/IueAAECBAgQIECAAIF6BERKgACBbAUUsLKdOgMnQIAAAQIECBAYX0CPBAgQIECAwBQCClhTqOuTAAECBAjULCB2AgQIECBAgAABAhsKKGBtCOZwAgQIpCBgDAQIECBAgAABAgQIEKhJQAGrptkW63EB3xMgME/gIG70GafTfMYpd+5yQA5UngNtjD8uwepHQQ6UkwPxkaWFQG8COxSwehuDhggQIEAgGYGD+MShtRIgQIAAgUkEkrkcGggBAjMCbhKYXkABa/o5MAICBAgQIECAAAECBEoXEB8BAgQI7CSggLUTn5MJECBAgAABAgTGEtBPBQLeO1bOe8fMpbnscqCCuy0hjieggDWetZ4IECBAgMDUAvonQIAAAQIECBAgkKWAAlaW02bQBAhMJ6BnAgQIECBAgAABAgQIEBhbQAFrbHH9hcCAAAECBAgQIECAAAECBAgQKF+gxwgVsHrE1BQBAgTKEOg+sMDqgyvkgByQA3Jgihwo40oqCgJ9CmiLAIEbAgpYNxz8S4AAAQIECBAgQIBAmQKiIkCAAIECBBSwCphEIRAgQIAAAQIEhhXQOgECBAgQIEBgWgEFrGn99U6AAAECtQiIkwABAgQIECBAgACBrQUUsLamcyIBAmML6I8AAQIECBAgQIAAAQIE6hRQwKpr3kVLgACB1QJTfGavPn1WtByQA3JADnQ5sPoq5QgCBAgQWE+guKMUsIqbUgERIECAAAECBAgQIECAwO4CWiBAICUBBayUZsNYCBAgMLnAQRxB9ytwq5dCyAE5IAfkQA85EDZpI16CLAQIECBAYIGAAtYCGJsJECBAgAABAikIGAOBqgQ2qXc5Vo1VDqSfA93vRqu6ExPskAIKWEPqapsAAQIEUhAwBgIECBAgQIAAAQIEMhdQwMp8Ag2fwDgCeiFAgAABAgQIECBAgAABAtMJKGCNZa8fAgQIECBAgAABAgQIECBAoHwBEQ4ioIA1CKtGCRAgQIAAAQIECBAgQGBbAecRIEBgVkABa1bEbQIECBAgQIAAAQL5C4iAAAECBAgUJaCAVdR0CoYAAQJ9CPiTPun/SR9zNM4cceYsB8bOAeJji+tPzg2bA9f7eGiqDQI3BRSwbkL4QoAAAQIDCGiSAAECBAgQIECAAAECPQgoYPWAqAkCQwpomwABAgQIECBAgAABAgQI1C5QQwGr9jkWPwECBDYT8Fr6YV9Lz5evHJADcmB+Dmx2tXI0AQIE5gnYVrCAAlbBkys0AgQIECBAgAABAgQIbCbgaAIECKQpoICV5rwYFQECBAgQIECAQK4Cxr2dwNCvTJs3qqH71P78V9txqcdl3s+dbQS2FFDA2hLOaQQIECBAgMBwAlomQIAAAQIECBAgcFxAAeu4hu8JECBQjsCWkRzE8/xatJ5fi5prcy0H5EBqORAvQxYCBAgQIDBHQAFrDopNBG4I+JcAAQIECBAgQIAAAQIECBBIQWDYAlYKERoDAQIECBAgQIAAAQIECBAgMKyA1gkMLKCANTCw5gkQIECAAAECBAgQILCOgGMIECBAYLGAAtZiG3sIECBAgAABAgTyEjBaAgQIECBAoFABBaxCJ1ZYBAgQIEBgOwFnESBAgAABAgQIEEhPQAErvTkxIgIEchfIePz+BqG/R5ba3yMzHjkpB+rJgYwvn4ZOgAABAiMIKGCNgKyLzQWcQYDARAKHFaz4dLG1BgbxWbM8kAdyQA6MmQMTXft0S4AAAQKTCqzbuQLWulKOI0CAAAECBAgQIECAAAEC6QkYEYEqBBSwqphmQRIgQIAAAQIECBAgsFjAHgIECBBIXUABK/UZMj4CBAgQIECAQA4CxkigD4E2NmINgQGDUnLgevyZthDoSUABqydIzRAgQIAAgV0FnE+AAAECBAgQIECAwHwBBaz5LrYSIJCngFETIECAAAECBAgQIECAQIECClgFTupuITmbAAECBAgQIECAAAECBAgQKF8grwgVsPKaL6MlQIDAwAIHsf1SPnRBHD5ARA7IATmQWw6YsdxmzHhbj5yWfmRb5LEQ6E1AAas3Sg0RIECAAAECBAgQILCpgOMJECBAgMA6AgpY6yg5hgABAgQIECCQroCRESBAgAABAgSKF1DAKn6KBUiAAAECqwUcQYAAAQIECBAgQIBAygIKWCnPjrERyEnAWAkQIECAAAECBAgQIECAwEACClgDwW7TrHMIECCQhIBP0PWJtHJADsgBOTBVDiRxITQIAgQIDC+gh80FFLA2N3MGAQIECheY6lmLfj1jlgNyQA7IgcIvscLrU0BbBAhUJqCAVdmEC5cAAQIECBAgQIDADYEE/92khrls+Ju041h1UzkwXA4s+zm1j8CGAgpYG4I5nAABAgQIECDwrIBvCBAgQIAAAQIERhFQwBqFWScECBAgsEjAdgIECBAgQIAAAQIECKwSUMBaJWQ/gfQFjJAAAQIECBAgQIAAAQIECBQtoIB1OL3+IUCAAAECBAgQIECAAAECBMoXEGGuAgpYuc6ccRMgQIAAAQIECBAoTmCTT9NeFvwm7Th240/wDsyYrZsDy35O7SOwmYAC1mZejiZAgEAFAus+IHGcB69yQA7IgW1zwHnzcqeCS6wQCRAgQGBrAQWsremcSIAAAQIECEwooGsCBAgQIECAAIGKBBSwKppsoRIgQOBWAbcIECBAgAABAgQIECCQh4ACVh7zZJSpChgXAQIECBAgQIAAAQIECBAgMLjA5AWswSPUAQECBAisL3AQD533sSS2+bgaOSAH5IAcGDoH4iXIQoBA2QKiI7CLgALWLnrOJUCAAAECBAgQIECAwHgCeiJAgEC1AgpY1U69wAkQIECAAAECNQqIOVmBoV/hpX2vIpQD4+dAsnc4BpajgAJWjrNmzAQIEBhMwHsIx39kl+Gj6WDM8kQOyIGhcmCwC5yGCRAgQCBzAQWszCfQ8AkQyFPAqAkQIECAAIFbBYYqia3b7q2jUaJc181xcmVZDsz+XLlNYBcBBaxd9Jw7pYC+CRAgQIAAAQIECBAgQIAAgfIFDiNUwDpk8A8BAgQIECBAgAABAgQIEChVQFwE8hdQwMp/DkVAgAABAgQIECBAgMDQAtonQIAAgUkFFLAm5dc5AQIE0hNY9jkG9vmcCzkgB3bJAefKn1U5kN5V0YgIECBAIBUBBaxUZsI4CBAgQIDAagFHECBAgAABAgQIEKhSQAGrymkXNIGaBcS+WmDV78ft9xoKOSAH5IAcGCoHVl+lHEGAAAECdQooYNU577tF7WwCBMoWGOo5iXY935UDckAOyIFVOVD2FVZ0BAgQyE8goRErYCU0GYZCgAABAgQIECBAgAABAmUJiIYAgX4EFLD6cdQKAQIECBAgQIAAAQK7Csx/hZZXrnGRA7nmwPVd7xScT+A5AQWs5yx8R4AAAQIECBAoVEBYBAgQIECAAIG8BRSw8p4/oydAgACBsQT0Q4AAAQIECBAgQIDAZAIKWJPR65hAfQIiJkCAAAECBAgQIECAAAEC2wgoYG2jNt05eiZAgMDAAgex/Vw/ZMG4fUCIHJADciDvHIiXIAsBAgQIHAn4OiOggDUD4iYBAgQIECBAgAABAgQIlCAgBgIEShJQwCppNsVCgAABAgQIECBAoE8BbREgQIAAgUQEFLASmQjDIECAAAECBMoUEBUBAgQIECBAgMDuAgpYuxtqgQABAgSGFdA6AQIECBAgQIAAAQKVCyhgVZ4Awq9FQJwECBAgQIAAAQIECBAgQCBfAQWsdefOcQQIEKhBwB8hzPsPePkDbOZPDsiB3HOghmutGAkQSF/ACJMUUMBKcloMigABAlMK5P7sx/g9g5cDckAO5JsDU17/9N2ngLYIECDQt4ACVt+i2ktWoP30z9157Yl3ffHVJ97zPXF9+9VPvPfvPf3Ee34zfv/bV59498fi909efeI9fxbX1voeBk/UaXDbg6//ydse/OJgrc/g3PO/KJx74AvDufu+IJy99xXh7KWXhdN3vSCcuv3esHf2ztDsn072/t3ACBQqUGVYbaw9WmP5kUOQB2XkQffi/irvzAQ9iIAC1iCsGk1BoH3yXXc8/fh7vu7qJ97zzliQ+ui1q1f/qA17/zSO7Zfi+qPxqvidTQhfHr9/bQjNS+L3l0MI5+JqIUCAQHUCTbMfi1RnQnP6trB35vawd+6ucOrC/eH03S8KZy9/XixuvSace95rDwtbpy48EPZO3x6N4j1n/DfdxcgIECBAgAABAgRKEdgrJRBxEOgE/vTJn33e05947984LFh9du+PmiY8HNrwI3Hf6+PqmVZEsBDYSMDBBI4JNHunDgtbp+96KJy97xXhtge+MJy+64Vh78yFY0f5lgABAgQIECBAgED/Anv9N6lFAuMKtB+/cu7q4+/+7qtPvOvXT332s4827cF7Q2hjwaqN+d3GwUy7xrEYQ6wicpCHcqDAHNg/FU5duDecvffl4dz9XxBO3fG80Oyfifd5FgIECBAgQIAAAQL9CsQn+P02OEBrmiQwV6D91JULTz/x7rddO3v+90IT/m4IzTeGEPbjaiFAgACBkQWaU+fC6TufH8498Opw5uJLDt+KOPIQdEeAAAECBAjkLyACAgsFFLAW0tiRqkD3YexXH3/Xj1x75vzvNyG8L4TwYFwtBAgQIJCIwP5nN8/OAAAQAElEQVRt94Rz93UfBP/S0H2eViLDMgwCBAhUIiBMAgQIlCmggFXmvBYZVdu2zbVPvPt7r159+mOhad4Zg7wYVwsBAgQIJCnQHH5eVvf2wjP3vDiE/e4FsgW+jdJbpEORbw82rxPOa+zaQoAAAQIE5ggoYM1BsSk9gWuPvfu11z75nv+lbcMvNCF0fy0wvUEaEQECBAg8K/DcN03YP38pnLv/VeHUhftDaOK9ePAfAQIECBAgQIAAgc0EFLA283L0yALdB7Rfe+Jd/0m7Fz4afxn6xpG71x2BKQX0TaAogaY5FU7f9YJw9vLnh+7zsooKTjAECBAgQIAAAQKDCyhgDU6sg20Fnn703S+7dvb8P2lD84Oxje69J/HLJotjCRAgQCA1ge4zsc7e98pw6vZ7Uxua8RAgQIAAAQIECCQssLyAlfDADa1sgatPvOtbmv32t0JoXxvXGGxrDQzkghyQA2XkQNM04fTdLwzdZ2M1IT4UKSMs6Wke5cCuORD8R4DApAI6J5C4QHzUmPgIDa8qgba9snftsXe+L9Zq/kFc746rB4O7Phh0vhySA3Ig0RzYv+1SOHPv54dm/0xV1zrBEiBQroDICBAgQGA4AQWs4Wy1vKFA+ztXzlx74rZfapvmbRue6nACBAgQyFRg7/Rt4dx9nx+6ryqNiVYax/1tUsxkDtX+LJj6aqfe3UzBd30HMTYLgZ4EFLB6gtTMbgLtJ99z+7V7bvuHsZXviquFAAECBLYWyPDEvdPhzOWXh70zFzIcvCETIECAAAECBAiMIaCANYayPpYKtB97513Xnmk/HA/6hrhaCEwvYAQECIwu0OztxyLW54W9s3cG/xEgQIAAAQIECBCYFVDAmhVxuxeBdRtpP37l3NVzzT8KTfsl657jOAIECBAoU6Bp9sKZSy8NXolV5vyKigABAgQIEChTYKyoFLDGktbPCYG2ff/+tdPn/psmtG/yhn8f+iAH5IAckANdDjRNE4tYnxuaU+dOXDdsIECAAAEChQoIiwCBNQT21jjGIQR6F2jbtrn6xMf/i9CEb+29cQ0SIECAQNYCzd6pcPbyy0LYP+1zfeNMKm12pU1rLXkQU37LxWkECBAgULqAAlbpM5xofFcff9cPNaH9/kSHZ1gECBAgMLFAs38mnL340jiKJq6WUQR0QoAAAQIECBBIWEABK+HJKXVo1z7xU1/SNOGnSo1PXAQI1Csg8n4F9s6cD2fuejA2WstrT8TpdVZyIP7AWwgQIECAwFwBBay5LDYOJdB+/Gfvbg+aX4ntn4mrhcCsgNsECBC4ReDUhfvC/m333LLNDQIECBAgQIAAgfoEFLCKm/O0A7p25up/FUf4OXG1ECBAgACBNQSacObuF4VmL/7ew4tTvEBJDpSfA2vcKxwdIh3KTwdznP8cH/28+jqUQF3t7tUVrminFLj6+E99Z+z/L8fVQoAAAQIE1hboPtT9zD0vXvt4BxIgQIAAgbUFHEiAQDYCCljZTFXeA22ffNcdMYKfzv93CH4PZA7lgByQA1PkwP65O8L+bXfHS4mFAIHUBHodj7vYKe5i9SnvhsuBXu8gNFa7gAJW7RkwUvyf/ezBj8euuk/ijV8sBAgQIEBgc4Ezd78gNE2RD102x3AGAQIECBAgQKAyAY8CK5vwKcK9+uhPfmHbhr8+Rd/6JECgFgFx1iDQ7J8Jp+58Xg2hipEAAQIECBAgQGBGQAFrBsTNAQT29n4ytnoqrpaUBYyNAAECGQicunB/aPZPx5F6v8dw7/dgy3bKHIg/3hYCBAgQIDBHQAFrDsq2m5x3UuDaY+98Tdz6zXG1ECBAgACBnQWapgmnL9y3czsaIECAAAECBAjsIuDc8QUUsMY3r6rHtjn4D2LATVwtBAgQIECgF4H9WMDq/jJhL41phAABAgSmEtAvAQIENhJQwNqIy8GbCDz96E+9NITmW4P/CBAgQIBAjwLdB7mfikWsHpvUFIFMBQybAAECBAjUI6CAVc9cjx/pfvvDIbT7cY19T/lZCvo2B3JADsiB0nLgRgGrh4cx8QplIUAgVwH37aXdt4unxJw+yPUOxrgTFPDIL8FJKWFI7e9cOdO04TtKiEUMBAgsF7CXwBQCzd5+2D9/1xRd65MAAQIECBAgQGACgb0J+tRlBQLX7j7zF2OYl+JqWS3gCAIECBDYQuDUbRe3OMspBAgQIECAAAECOQoUUsDKkb7wMTfhLYVHKDwCBAgQmFhg/7a7QtOcCqFtrQzkQBE5MPGdiu4JEMhEwDBrFVDAqnXmB4y7feK9l0MTvnHALjRNgAABAgSiQBP2z98T/EeAAAECGwo4nAABAhkKKGBlOGmpD/na9atfHw7C6RB/IW6Ns8Uh/lacg58FOSAHhsmB/XN3xYYtBMYX0ONAAh43edwkB8rKgYHuKjRbp4ACVp3zPmjU7V746kE70DgBAgQIlCDQSwx7Z+6I7TRxtRAgQIAAAQIECJQsoIBV8uxOFFvTdgUsvzop61cn5jPN+TQv5kUONHtN2D97PviPAAECBAgQIECgbAEFrLLnd/To/uXjP/GC2OnnxjWPxSgJECBAIHuBvbN3Zh+DAAgQIECAAAECBJYL7FzAWt68vbUJ7B80X1lbzOIlQIAAgWkF9g/fRjjtGPROgAABAgRqEBAjgSkFFLCm1C+x7732C0oMS0wECBAgkK5Ac/psHJy3U3pLrRwoIwfij3PZi+gIECBAYEsBBawt4Zy2SKB5+aI9thMgQIAAgSEEmv0zodnbH6JpbSYpYFAECBAgQIBAjQIKWDXO+pAxHwQFrCF9tU2AAIE+BApsozl1rsCohESgPgGvoyvjdXTm0Twe5cD1+u7GRDyggALWgLi1Nd22798PTfsSd9dHd9e+lpwLYpPfciCtHNjb795GWNuVV7wECBAgQIAAgXoEFLDqmevBI336E//sodjJur8Cj4daCBAgQIBAPwI3Pgern7a0QoAAAQIECBAg0KtAL40pYPXCqJFOYP/g4O7uq5UAAQIECIwt0DT7XhSX1ovizIf52DwHxr7j0B+BrAQMlgABBSw50JtA05y60FtjGiJAgAABApsI+BD3TbQcSyBNgaGLftrfvKjIjNmuOeBDsNK8v810VApYmU5cisO+fnD9jhTHZUwECBAgUIFA0z2k2fVRtvNXPVOzX44MnwMV3F8JkQABAgS2Euge7W11opMIzAo0TaOANYviNgECBG4VcGsggcYrsAaS1SwBAgQIECBAIA0BBaw05qGIURyE5na/lxz+95KMGcsBOSAHTuZAOHwFVhGXU0EQIECAAAECBAjMEVDAmoNS/KahAmyux3zytOrk0yomTOSAHJADw+fA8D2YRcZyYNgcGOohqnYJECBQtUBBwceCQ0HRCIUAAQIECBAgQIAAAQIECPQooCkCBNIQUMBKYx6MggABAgQIECBAgECpAuIiQIAAAQI7Cyhg7UyoAQIECBAgQIDA0ALaJ0CAAAECBAjULaCAVff8i54AAQL1CIi0AgGfUDTsJxTx5Tt0DlRwNyVEAgQIENhaQAFrazonEqhPQMQECBAgQIAAAQIECBAgQGAKAQWscdX1RoAAAQIECAwhMPQLQ7TvxUdyYJwcGOL+QZsECBCYRkCvPQsoYPUMqjmP7sZ5dMeZsxyQA3LgZA64ChMgQIBAWQKiIUCAwHMCCljPWfiOAAECBAgQIECAQFkCuUWjNn+yNs+ESc45kNt9kPEmLaCAlfT0ZDa463G8Od+5GrsHB3JADsiBfHMgXoKGWrRLgAABAgQIECAwvYAC1vRzYAQECBAoXUB8BEYSUIHMtwJp7szdUQ6MdHehGwIECBDITkABK7spM+A6BURNgAABAgQIECBAgAABAgTqFaingFXvHIucAAECBAgQIECAAAECBAjUIyDSIgUUsIqcVkERIECAAAECBAgQyEvg6E2EvqbxhlLzYB76yIG87oWMNnUBBazUZyi78fVxN6cNl0s5IAfkgBzYJgeyu2gacNkCoiNAgAABAgR6FFDA6hFTUwQIECBAgECfAtoiQIAAAQIECBAgcENAAeuGg38JECBQpoCoCBAgQIAAAQIECBAgUICAAlYBkyiEYQW0ToAAAQI5CGzzlkPneKuqHEgvB3K4vzFGAgQIEJhCYIwC1hRx6ZMAAQIECBCoTUAtIr1ahDkxJ5vmQG33W+IlUJ6AiAgMJqCANRithgkQIECAAAECBAgQ2Ehg04JXkcdHMXEp/paSAzGdLQT6ElDA6ktSO1HgIK6l3NOKw6MGOSAH5EB+ORAvQxYCnYCVAAECBAgQKE5AAau4KRUQAQIECBDYXUALBAgQIECAAAECBFISUMBKaTaMhQCBkgTEQoAAAQIECBAgQIAAAQI9CShg9QSpmSEEtEmAAAECBAgQIECAAAECBAiUL7A6QgWs1UaOIECAAAECBLIQ8Lll+X1umTkzZ8dzIIs7GoMkkK6AkREoXEABq/AJFh4BAgQIECBAgAABAusJOIoAAQIE0hVQwEp3boyMAAECBAgQIJCbgPESIECAAAECBAYRUMAahLXmRo+/DNz33hYgB+SAHNg8B5htZ1bztVfsBAgQIECAAIHyBRSwyp9jERKoT0DEBAgQIECAAAECBAgQIFCUgAJWUdPZXzBaIkCAAAECBAgQIECAAAECBMoXyCVCBaxcZso4CRAgQIAAgeUC3n253bsvuXFLJQeW/4TbSyBlAWMjQGAEAQWsEZB1QYAAAQIECIwhkMqzcONQEZIDm+dANGu7Nd5XxC/BuhUhN/mTXA4cxDmxEOhJQAGrJ0jNECBAgAABAgQmFdA5AQIECBAgQKBgAQWsgidXaAQIECCwmYCj8xbwgg0v2JAD+edA3vdCRk+AAAECQwooYA2pW13b1+OjpvjQ8fDl376GOh3kgHmXA3Jguhyo7rorYALlCcRHkMm9A8qY4t16TDUOHLbJgZg6FgK9CShg9UbZV0PaIUCAAAECBAgQIECAAAECBMoXEOEmAgpYm2g5lgABAgQIECBAgAABAgTSETASAgSqEVDAqmaqBUqAAAECBAgQIEDgpIAtBAgQIEAgBwEFrBxmyRgJECBAgACBNQS2+XSOXs6JY9OOT4eRA/3kQPxxshAgQIAAgTkCClhzUGwiQIAAgbEF9EeAAAECBDoBhcB+CoEcOaaSA93PtZVAPwIKWP04aoXA9AJGQIAAAQIECBAgQIAAAQIEChVQwDo2sb7tQyCVSr9x+K2THJADcqC6HDDl1U15MOflzXkfD0e1QYAAgTUEHJKfgAJWfnNmxAQIECBAgAABAgQIEJhaQP8ECBAYVUABa1RunREgQIAAAQIECBA4EvB1J4Flr8Cb1/C8448fN7v/+L7u++P7u9vH1+P7uu+P7zv6vts+ux7tW/V19jy3y3v1Yalzuiq37SewgYAC1gZYDiVAgAABAgQSEzAcAgQIECBAgACBKgQUNGBIYQAAEABJREFUsKqYZkESIEBgsYA9BMoQKPVX1+LyMouacqCMeyNRECBAgMAwAgpYw7hqtS4B0RIgQIAAAQIECBAgQIAAAQIDCiRSwBowQk2PLFDTbwnF6rfickAOyIG0cmDkS57uCBAgQIAAgS0EnEJgOwEFrO3cnEWAAAECBAgQIECAAIFpBPRKgACBCgUUsCqcdCETIECAAAECBGoXED8BAgQIECCQl4ACVl7zZbQECBAgQCAVAeMgQIAAAQIECBAgMJqAAtZo1DoiQIDArIDbBAgQIECAAAECBAgQILCOgALWOkqOSVfAyAgQIECAwLMCPlQ/rQ/VNx/mY5scePYH2jcECBAgQOAWgb1bbrlBgAABAgQIEMhRYJvnyc5RX5ED6eVAjvc/xkwgIwFDJZCzgFdg5Tx7yY39ehyRR4LpPRI0J+ZEDsiBGnIgXoIsBAjkL5D+3ZVLijmSA5vkQPcUMf97JhEkIqCAlchEGAYBAgQIECBAoA4BURJYLLDJ8+LFragvbOLoWPkyZA6oXy27p7JvUwEFrE3FHE+AAAECBKYW0D8BAgQIECBAgACBygQUsCqbcOESIHBDwL8ECBAgQIAAAQIECBAgkI+AAlY+c5XaSE+O5yBuGvL1p9r2+mY5IAfkgBxYlgNh2U77JI8cyCMH4uNJCwECBAikJpDEeBSwkpgGgyBAgAABAgQIECBAgACBcgVERoDArgIKWLsKOp8AAQIECBAgQIAAgeEF9ECAAAECVQsoYFU9/UME7+X5ebw83zyZJzkgB0rMgSGua2W1KRoCBAgQIECAQK4CCli5zpxxEyBAgMAUAvokQIAAAQIECBAgQGACAQWsCdB1SaBuAdETIECAAAECBAgQIECAAIHNBBSwNvNK42ijIECAAAECBAgQIECAAAECBMoXEOGzAgpYz1L4hgABAgQIEMhaoG1DsDKQA/nmQNZ3QAafsoCxESBQhoACVhnzKAoCBAgQIFC1QCxdBWusW8Qs4MBhgBwY7edrtI5yRjJ2P+Q55UC8LlkI9CWggNWXpHYIECBAgAABAgsF7CBAgAABAgQIENhFQAFrFz3nzhHI6dcBxurXV3Igqxzwa/l4nytnl+dsJLIQIECAAAECBAgUKaCAVeS0CorAfAFbCRAgQIAAAQIECBAgQIBAjgIKWJvNmqMJECBAgAABAgQIECBAgACB8gVEmJiAAlZiE2I4BAgQIECAAAECBAgQKENAFAQIEOhPQAGrP0stESBAgAABApMK+Iyw5Z8RxidLn+o+/2/SOxGdEyBAgEDCAgpYCU+OoREgQIAAAQK7C2iBAAECBAgQIEAgfwEFrPznMKEIDuJY/HbXb3flQIE54Ge7uldA5PpzHFPVQoAAAQIECBAgUKSAAlaR0yqo9ASMiAABAgQIECBAYJlAaqXz2bGmNj7j8SvDHHJg9ufIbQK7CORTwNolSucSIECAAAEC5Qvk8EjeGD3jlAPLc6D8eyoREiCwjoBjCMwRUMCag2ITAQIECBAgQIAAAQIjCyjuLS/ubejj3e8xf5lNn1NxGiwE+hJQwOpLUjsECBAgQIAAAQIlCYiFAAECBAgQSEhAASuhyTAUAgQIECBQlsCY0fg1+/S/ZjcH5qCPHBjzfkNfBAgQIJCTgAJWTrNlrAQI1CcgYgIECBAgQIAAAQIECBAICliSoGeBPn7z1m8bfhvKUw7IATlQQw70fDnTHAECBAgQIECAQFIC6xSwkhqwwSQuUMNzJDGqBcgBOSAH0syBxC+RhkeAAAECBDIQMEQCyQooYCU7NQZGgAABAgQIECBAgEB+AkZMgAABAkMIKGANoapNAgQIECBAgACB7QWcSYAAAQIECBCYEVDAmgFxkwABAgQIlCAgBgIECBAgQIAAAQIlCShglTSbYiFAoE8BbREgkJ2ADydL88PJzIt5WTcHsrvTMWACBAgQGFFAAWtE7Pq6EjEBAgQIECBAgAABAgQIECBQvsDwESpgDW9cUQ/XY6zr/obNcX4bKwfkgByQAz3nQM/NBe1JUTkwfg7ER5MWAtUKCJwAgaUCClhLeewkQIAAAQIECBAgQGA0gR2LhgrPcaYYjl94Zb7YvHuNQ0xLC4E+BBSw+lDUBgECBAgQIECgDAFRECBAgAABAgSSFFDASnJaDIoAAQIE8hUwcgIECBAgQIAAAQIE+hZQwOpbVHsECOwuoAUCBAgQIECAAAECBAgQIHBMQAHrGEZJ34qFAAECBAjUJ+BDSBZ/CAkbNrnkQH33XCImQIDArgK1nK+AVctMi5MAAQIECBAgQIAAAQIE5gnYRoBABgIKWBlMUl5DzOW3e8bpN9FyQA7IgfJyIK8rptESKEtANAQIECBAYFgBBaxhfbVOgAABAgQIEFhPwFEECAS/WijvVwvmtO45PXC/RqBHAQWsHjE1RYAAAQLTCuidAAECBAgQIECAAIEyBRSwypxXURHYVsB5BAgQIECAAAECBAgQIEAgOQEFrN6nRIMECBAgQIAAAQIECGwu4M1mdb/ZzPyXOf+b3xPkdYbRjimggDWmdgV9ueyUedkxr+ZVDsiB5HMgDrBt22BlIAfyzYHDe9r4s+yDsOKThpocxHqY+sXmfUxnC4G+BBSw+pLUzk0BV6Cyr0Dm1/zKATmQcg7cvBT5QqAyAeESIECAAIEaBBSwaphlMRIgQIAAAQLLBOwjQIAAAQIECBBIXEABK/EJMjwCBAjkIWCUBAgQIECAAAECBAgQGE5AAWs4Wy0T2EzA0QQIECBAgAABAgQIECBAgMBcgaIKWHMjtJEAAQIECBAgQIAAAQIECBAoSkAw9QkoYNU358NGnPJn+xqbz56WA3JADpSbA8X++SZJW27SmtuTczvsw1StnxCwgQABAlkJKGBlNV0GS4AAAQIECBAgkI6AkRAgQIAAAQJjCShgjSVdRT/XY5R+m3jyt4lMmMgBOSAHFuZAr6+cipchCwECBAgQIECAQJECClhFTqugCBCoSUCsBAgQIECAAAECBAgQKF1AAav0GRbfOgKOIUCAAAECBAgQIECAAAECBBIW6KmAlXCEhkaAAAECBAjUIeCdmuO8U5Mz5yFzoI57K1ESyFzA8AlMI6CANY27XgkQIECAAAECBAgQOC4wZGEstbaNRyG4lhw4/jPuewI7Cihg7QjodAIECBAgQCAVgVqeDYize+ZrLTUPUrk/MQ4CBAgQSE1AASu1GTEeAgQIECAwjoBeCBAgQIAAAQIECGQjoICVzVTlMtBSfxsoLr/pnpcDtskLOZBODuRynTROAgQIECBAgACBbQQUsLZRc05/AloiQIAAAQIECBAgQIAAAQIEyhfYMUIFrB0BnU6AAAECBAgQIECAQD8CXteazutazUWac5HbvPRzz6AVAjcEFLBuOPiXAAECBAgQIECAAIHyBURIgAABApkKKGBlOnGGTYAAAQIECBCYRkCvBAgQIECAAIHxBRSwxjfXIwECBAjULiD+gQRye2OF8XqDjhw4mQMD3T1olgABAgSyF1DAyn4KBUCgTgFREyBAgAABAgQIECBAgEA9AgpY9cz1bKQD3D6IbfpN4snfJDJhIgfkgBwYJwfiZchCgAABAgQIECAwK1DEbQWsIqZREAQIECBAgEBQJxynTsiZ85A54K6MQLICBkaAwNQCClhTz4D+CRAgQIAAAQIECNQgsE6MQxbHtK34KgfGz4HuTTrr/Ow7hsAaAgpYayA5hAABAgQIECCQgoAxECBAgAABAgRqFVDAqnXmxU2AAIE6BURNgAABAgQIECBAgECGAgpYGU6aIROYVkDvBAgQSFXAe0PGf28Ic+Z95kCq9y3GRYAAAQIpCChgTTELRffZ54MYbXlQLAfkgByQA5vkQNEXWMERIECAAAECOQoYc28CCli9UWqIAAECBAgQIECAAAECBPoW0B4BAgQ6AQWsTsHaj8D12Mwmvyh3rBdWyAE5IAfkQJ85EC9DFgIE5grYSIAAAQIEshdQwMp+CgVAgAABAgQIDC+gBwIECBAgQIAAgSkFFLCm1Nc3AQIEahIQKwECBAgQIECAAAECBLYUUMDaEs5pBKYQ0CcBAgQILBbo892I2vLuVjkwTQ4s/gm3hwABAgRqF6itgFX7fIufAAECBAgUKhDLDa01MIhVF3mQbR6EOHeF3kMJiwCBSQR0WpiAAlZhEzp9ON0DD2t89BynggMHOSAH5MC4ORDvei0ECOQt4G5z3LvNld4xnRxjTnbJgZhCFgJ9CShg9SWpHQIECBAgQIAAAQKzAm4TIECAAAECvQgoYPXCqBECBAgQIEBgKAHtEiBAgAABAgQIEFDAkgMECBAoX0CEBAgQIEAgeYFd3qU0e+68YGePcds74+TA8Dkw72fRNgLbCihgbSvnvMoEhEuAAAECBAgQIECAAAECBAhMJTBeAWuqCPVLgAABAgQIECBAgAABAgQIjCegJwIDCChgDYCqSQIECBAgQGAKAW8GGf7NIIwZD50DU9x3pNmnUREgQIDArQIKWLd6uLWTwPV49tAParTvgbMckANyQA7My4F4CbIQuFXALQIECBAgQKAgAQWsgiZTKAQIECBAoF8BrREgQIAAAQIECBBIQ0ABK415MAoCBEoVEBcBAgQIECBAgAABAgQI7CyggLUzoQaGFtA+AQIECBAgQIAAAQIECBAgUL7AsggVsJbp2EeAAAECBAjkITDvY7Fs83FpciC/HMjjHscoCaQsYGwEihVQwCp2agVGgAABAgRqE1CtyK9aYc7M2bEcOPZtmPT7eN+pf6kpB/rJge7vfMUfKQuBPgQUsPpQ1AYBAgQIECBAgMBzAr4jQIAAAQIECPQsoIDVM6jm/Kqin19VcOQoB2rPAfFv8zPgKkyAAAECBAgQIFCqgAJWqTMrLgIECBAgQIAAAQIECBAgQIBAIQIKWIVM5DBhaJUAAQIECBAgQIAAAQIECBAoXyD9CBWw0p8jIyRAgAABAgQIECBAgACB1AWMjwCBQQUUsAbl1TgBAgQIECBAgAABAusKOI4AAQIECCwSUMBaJGP7dgLbfOauc3xWsxyQA3JADvSRA6GPRrJvI16/xeAHKucciClsIUCAAAECcwQUsOag2LSLQM4PmIzdA345IAe6HLDmmwe7XL+cS4AAAQIECBAgkLKAAlbKs2NsBHIVMG4CBAgQIECAAAECBAgQINCjgAJWj5h9NqUtAgQIECBAgAABAgQIECBAoHwBEa4noIC1npOjCBAgQIAAgdQFvPsz33d/mjtzJwfkwG45wC9Vv9QfOxhfVgIKWFlNl8ESIECAAAECBAgQGEIgjTbb4H8CBEoSuB6up3HnYhRFCChgFTGNgiBAgAABAgQmFzAAAgQIECBAgACBwQQUsAaj1TABAgQIbCrgeALbC6T63gnj8r4eObBZDmx/L+BMAgQIEChbQAGr7PkdObqD2J8HaZs9SOvdyxwEpnJQDtSbAxfkY+QAABAASURBVPEu0EKAAAECBAgQIFCkgALWiWm1gQABAgQIECBAgAABAgQIEChfQIQ5CShg5TRbxkqAAAECBAgQIECAAIGUBIyFAAECIwkoYI0ErRsCBAgQIECAAAEC8wRsI0CAAAECBFYLKGCtNnIEAQIECBAgkLbA4eh8+lm9n35m7suZ+8MfZv8QIECAAIE5AgpYc1BsIkCAQH0CIiZAgAABAgQIECBAgEC6AgpY6c6NkeUmYLwECBAgMLGA1+GU8zocc1nnXE58F6J7AgQIEEhaIKkCVtJSBremgAecdT7gNO/mXQ7IgalzIF6mph6C/v0YyIHdciD+GFsIEKhHQKQENhVQwNpUzPEECBAgQIAAAQIECAwjsEkRcNkINmkn32N3KxiKm98YObDs59Q+AhsKKGBtCOZwAgQIECBAgACBUgTEQYAAAQIECOQioICVy0wZJwECBAgQSFHAmAgQIECAAAECBAiMIKCANQKyLggQILBMwD4CBAgQIECAAAECBAgQWC6ggLXcx948BIySAAECBAgQIECAAAECBAgQKFjgZgGr4AiFRoAAAQIECFQiMMan0erDpx7LgWFzoJK7K2ESmFRA5wTyFFDAynPeEh319TguD+qGfVDHl68ckANyYHEOxMuQhQABAmMI6IMAAQIERhdQwBqdXIcECBAgQIAAAQIECBAgQIAAAQKbCChgbaLl2NUCXhiw+IUBbNjIATnQbw7wnPVcfZVyBAECBAgQIECAQKYCCliZTpxhEyDQh4A2CBAgQIAAAQIECBAgQCAHAQWsHGYp5TEaGwECBAgQIECAAIGeBGZfWOm2F9vKgbxzoKe7Bs2kIjDxOBSwJp4A3RMgQIAAAQI9CXiWk/ezHPNn/g7ifYE8kAeF50CoLb7u73zFH20LgT4EFLD6UNTGMYHa7pHF61GWHJADckAOyAE5IAf6y4FjDyvnf2srAQIECFQqoIBV6cQLmwABAgQIEKhVQNwECBAgQIAAgfwEFLDymzMjJkCAAIGpBfRPgAABAgQIECBAgMCoAgpYo3LrjACBIwFfCRAgQIAAAQIECBAgQIDAugIKWOtKpXecEREgQIAAAQIECBAgQIAAAQLlC4gwCihgRQQLAQIECBAgQIAAAQIECJQsIDYCBHIXUMDKfQaNnwABAgQIECBAgMAYAvogQIAAAQITCihgTYhfZtdtDMsaAgMGckAOyIFxc+Agi+vPuCZykHduORB/jC0ECBAgQGCBgALWAhibCRAgQCBJAYMiQIAAAQIECBAgQKBCAQWsCiddyLULiJ8AAQIECBAgQIAAAQIECOQloIC1zXw5hwABAgQIECBAgAABAgQIEChfQITJCChgJTMVBkKAAAECBAjsJJDbx/0Yr4+okgPj5sC8OxhzMMoc+HjYmHy15loM3UKgLwEFrL4ktUOAAAECBAgQIEBgGAGtEiBAgACB6gUUsKpPAQAECBAgQKAUgWW/3rbPyyzkQB45UMr9kTgIECBAoG8BBay+Ratu73qM3oPDPB4cmifztEUOeP2/+7ikcyBOj4UAAQIECBAgQKBYAQWsYqdWYCkKGBMBAgQIECBAgAABAgQIECCwuUBuBazNI3QGAQIECBAgQIAAAQIECBAgkJuA8RK4RUAB6xYONwgQIECAAIEcBbwp1huj5UD+OZDjfU/6YzZCAgQIlCOggFXOXCYRiQeP+T94NIfmUA7IgVxzIIkLoUGUJyAiAgQIECBAIAkBBawkpsEgCBAgQIBAuQIiI0CAwDoCuRbPjdsvfuTA4hxY52ffMQTWFVDAWlfKcasFDuIh7r0X33uzYbN9DrBjJwdW5UC8BEFahWS/HMkhBw5/mP1DgAABAgROCChgnSCxYTeBVB8YGZcH7XJADsiB8nNgtyuYswkQIECAAAECBNIVWL+AlW4MRkaAAAECBAjULqA+WX590hyXP8fd/Zh5Ln+ezXEec9zXPHXv0ul+tq0EehBQwOoBURMECBAgQIAAAQIECBA4LuB7AgQIEOhXQAGrX0+tESBAgAABAgQI9COgFQIECBAgQIDAswIKWM9S+IYAAQIECJQmIB4CBAgQIECAAAECZQgoYJUxj6IgQGAoAe0SIECAAAECBAgQIECAwOQCCliTT0FJA+g+oe/kp/3V9SmF4jffckAOyAE5IAfkgBzYLgdKelwsFgIECNQpMGTUClhD6mqbAAECBAgQIECAAAECBAisL+BIAgQWCChgLYCxmQABAgQIECBAgACBHAWMmQABAgRKFFDAKnFWxUSAAAECBAgQ2EXAuQQIECBAgACBxAQUsBKbEMMhQIAAgTIEREGAAAECBAgQIECAQH8CClj9WWqJAIF+BbRGgAABAgQIECBAgAABAgQOBRSwDhlK/UdcBAgQIECAAAECBAgQIECAQPkC5UeogFX+HI8cYRv7s4bAgIEckANyYNwcOIjdRfPWGhjIhVxz4KD7+fVQ0sPICXMgpiD/nv1jcxYCfQkoYPUlqR0CBAgQIECAAAEClQsInwABAgQIDCWggDWUrHYJECBAgAABApsLOINA5QJeAhO8BCj+DMiDcvIgTqeFQE8CClg9QWqGAAECBFIRMA4CBAgQIECAAAECBEoTUMAqbUbFQ6APAW0QIECAAAECBAgQIECAAIGEBBSwBpoMzRIgQIAAAQIECBAgQIAAAQLlC4hwHAEFrHGc9UKAAAECBAgQIECAwAoBn3xUzicfbTiXPvkr/myUaHYQ47IQ6EtAAasvSe3cFCjxbldMHkrJATkgB9LPge4yZJ7SnydzNNwclWLb/SxbCRAgQIDASQEFrJMmthAgQIAAAQI1CoiZAAECBAgQIEAgWQEFrGSnxsAIECCQn4AREyBAgAABAgQIECBAYAgBBawhVGtus5RXr08Xh3cWsJcDckAObJsDNV9/xU6AAAECBAgQKFygwAJW4TMmPAIECBAgQIAAAQIECBAgQCCEAKEmAQWsmmZbrAQIECBAoGSBbV+59f+zd3ehsmX5QcBX3W5mjLm3TYRIICDIKPgwMs7tCyEhDyrMg810N/NgJ0HQl2BexERDVBClg/gQlIFJQCQvghrHzu3RwQmMqNEoRJNJ3544xFbJTEOIQYnGTM90Z/rjnlOufe6tvnXr7F1V+3t9/Lr3vufUrr3XWv/f+teuqn99HMd5158ckANNDhyeH5ttVrkhB8blwOHtymUCIwQUsEbgOZQAAQIEHgj4lwABAgQIECBAgAABAnMKKGDNqVtd2xcxYi9RDHyJgl2QO3JHDsgBOSAH5EDdORAfDlkIECBAgECHQEEFrI4IbSZAgAABAgQIECBAgAABAgQKEhBKjQIKWDXOupgJECBAgAABAgQIEKhbQPQECBDITEABK7MJM1wCBAgQIECgXcCHz+r+8Nka86/P6XOu/dZtKwECBAgQCEEBSxYQIECAAAECawnolwABAgQIECBAgMBZAgpYZzHZiQABAqkKGBcBAgQIECBAgAABAgTKF1DAKn+OF44wwzfT++t3MUfM2/QfgmDKVA4snwPxdGYhQIAAAQIECBAoUmCSAlaRMoIiQIAAAQIEMhNQNFy+aMic+dQ5kNlpx3AJVCggZAJrCShgrSWvXwIECBAgQIAAAQIEahQQMwECBAgMEFDAGoDmEAIECBAgQCBBganfCKK9hN9cFPPP/JQ3P3FafbNDRJDb5eV2zXN6EXPaQmAiAQWsiSA1Q4AAAQIEshIwWAIECBAgQIAAAQIZCShgZTRZhkqAQFoCRkOAAAECBAgQIECAAAECywgoYC3jrJd2AVsJECBAgAABAgQIECBAgACB8gVGR6iANZpQA48L1PwBb7H7wgI5IAfkgByQA3JADozJAXpj9Bxbfv7kN8ePP1d0icA4AQWscX6OJkCAAAECBAgQIEAgFwHjJECAAIFsBRSwsp06AydAgAABAgQILC+gRwIECBAgQIDAGgIKWGuo65MAAQIEahYQOwECBAgQIECAAAECPQUUsHqC2Z0AgRQEjIEAAQIECBAgQIAAAQIEahJQwKpptvdj9TsBAgQIECBAgAABAgQIECBQvkAhESpgFTKRwiBAgAABAgQIECBAgACBeQS0SoDA+gIKWOvPQTkjuLgMYbu1MpADckAOyIF1ciDE+yBrfFzBISYgh/RuC2fMSdzFQoAAAQIEOgQUsDpgbCZAgAABAgQyEqiiZhPnQ5xqUyXnQHwtNMu6W8lzIjbnnLE5EO+6LASmElDAmkpSOwQIECCQvoAREiBAgAABAgQIECCQpYACVpbTZtAE1hPQMwECBAgQIECAAAECBAgQWFpAAWtp8RD0SIAAAQIECBAgQIAAAQIECJQvIMIJBRSwJsTUFAECBAgQIECAAAECBAhMKaAtAgQIPBBQwHrg4F8CBAgQIECAAAECZQqIigABAgQIFCCggFXAJKYVwtg/U+F4f+pEDsgBOSAH0ssBc2JO5MBSOZDWI1ujIUCAAIF0BBSw0pkLIyFAgEDJAmIjQIAAAQIECBAgQIDAYAEFrMF0DiSwtID+CBAgQIAAAQIECBAgQIBAnQJ1FbDqnGNREyBAgAABAgQIECBAgACBugREW5yAAlZxUyogAgQIECBAgAABAgQIjBfQAgECBFISUMBKaTaMhQABAgQIECBAoCQBsfQVWOq74vXj7xLIgWVyoO85wP4EjggoYB3BcRUBAgQIECCwtkCP/j0ZWebJCGfOc+ZAj5u8XQkQIECgLgEFrLrme+ZoL2L7cz6i0bZHzHJgUA4EbtzkgByQA3Ig/RzYxvurOUcZH6heW/r0t39wn+N2++4fv/t9d52fbqGl5kDzDHGX734SGCuggDVW0PFVCAiSAAECBAgQIECAAAECBAgQWE9gqQLWehHqmQABAgQIEKhCoNRXr8XlnRk15UAVJytBEihfQIQEZhFQwJqFVaMECBAgQIAAAQIECBAYKuA4AgQIEDgUUMA6FHGZAAECBAgQIEAgfwERECBAgAABAkUJKGAVNZ2CIUCAAAEC0wloiQABAgQIECBAgEAqAgpYqcxEMeOo6VsaxOpbSU7mQLxl20eeyIHlciDe5CwECBAgQIAAAQJFCihgFTmtJQUlFgIECBAgcK6AYuFyxULWrOfIgXNv6/YjQIAAgTIFjkelgHXcx7UECBAgQIAAAQIECBAgQCAPAaMkULCAAlbBkys0AgQIECBAgAABAgT6CdibAAECBNIUUMBKc17yHdUc7ybXpk8pyAE5IAfkgBzIKQeMVb4Oy4G+j4A5D3Pmxm3JHLjse8O2P4FuAQWsbhvXECBAgACBlQR0S4AAAQIECBAgQIDAvoAC1r6G3wkQKEdAJAQIECBAgAABAgQIECBQjIACVjFTOX0gw1pc8v2o+vL+ZzkgB+SAHNjPgWH3XI4iQIAAAQIECNQukEP8Clg5zJIxEiBAgAABAicE9gtZflfYlAN55kDzZTnmLs+5M28hbOOBGrwIAAAQAElEQVT9FIfr+RtZLAQmElDAmghSMwQIECBAgAABAgQIjBFwLAECBAgQ6BZQwOq2cQ0BAgQIECBAIC8BoyVAgAABAgQIFCqggFXoxAqLAAECBIYJOIoAAQIECBAgQIAAgfQEFLDSmxMjIpC7gPETIECAAAECBAgQIECAAIFJBRSwJuWcqjHtECBAgAABAgQIECBAgAABAuULiPBcAQWsc6Xsd4bARdzHX964/pc3mDCRA3JADsyfA/EuyEKAQPYCzpbzny2LNI6ZL640cydOjYXAZAIKWJNRaogAAQIECBBYV8DTlzSfvpiXHOYlmTGmnC77J7iUx2lsyaRzMBf7txq/ExgtoIA1mlADBAgQIECAQBIC6z5R8ISJvxyYIgeSOJkYBAECBAikKKCAleKsGBMBAgSqFBA0AQIECBAgQIAAAQIE2gUUsNpdbCWQp4BREyBAgAABAgQIECBAgACBAgUUsA4m1UUCBAgQIECAAAECBAgQIECgfAER5iWggJXXfBktAQIECBAgQIAAAQIEUhEwDgIECCwmoIC1GHUtHU3x7Z3a8C2wckAOyAE5IAfkQC05IM5HuV7L42VxEiBAgMAQAQWsIWqOIUCAAAECBNIRMBICBAgQIECAAIHiBRSwip9iARIgQOC0gD0IECBAgAABAgQIECCQsoACVsqzY2w5CRgrAQIECBAgQIAAAQIECBAgMJNAQgWsmSLULAECBAgQIECAAAECBAgQIJCQgKEQ6C+ggNXfzBEECBAgQIAAAQIECBBYV0DvBAgQqExAAauyCZ833MvYvL+k8+gv6bBgIQfkgBxYNgfi3ZCFQA8BuyYm4JS57CmTN+8lcuAisfOM4WQtoICV9fQlOPglToL6cGcrB+SAHEglBxIbR0yMrTUwiHkpD7LNgwQf3hoSAQIECKQhoICVxjwYBQEC1QoInACBqQRiySJYY+0mgnLgkGMOxNS1ECBAgACBTgEFrE4aV/QVWO0DhHGgOT5IM2ZPLuSAHJAD0+ZAvDuwECBAgAABAgQIFCpwVcAqNDZhESBAgAABAgQIECBAgAABAnsCfiWQq4ACVq4zZ9wECBAgQIAAAQIECKwhoE8CBAgQWEFAAWsFdF0SIECAAAECBOoWED0BAgQIECBAoJ+AAlY/L3ufFPCNLtN+owtPnnJADnTkgK8rj/dIhzZxk4UAAQIECBAgQKBIAQWsIqdVUAQInCNgHwIEShI4LGa5rPgrB3LMAbOW46wZs7ztzoGSHmmIZX0BBaz15yDnERg7AQIECBAgQIAAAQIECBAgUL7A6hEqYK0+BQZAgAABAgQIECBAgAABAuULiJAAgTECClhj9BxLgAABAgQIECBAgMByAnoiQIAAgWoFFLCqnXqBEyBAgACBwgR8CUn3l5Ds2fj+/5j3PNLMlTg1k+Vn09bhat7TnHfzUva8HN4OXSYwQkABawSeQwkQIECgSgFBEyBAgAABAgQIECCwsIAC1sLg5XfnJZSyX0KZan61I0/kgByYOgfKv4cVIQECBAgQIECgZgEFrFxn37gJECBAgACBA4Gpi2LaU2iVA8vmwMFN2kUCBAgQeCDg3ysBBawrBv8QIECAAAECBAgQIECAQKkC4iJAIH8BBaz851AEBAgQIECAAAECBOYW0D4BAgQIEFhVQAFrVX6dEyBAgAABAvUIiJQAAQIECBAgQGCogALWUDnHESBAgMDyAnokQIAAAQIECBAgQKBKAQWsKqdd0DULiJ0AAQIECBAgQIAAAQIECOQmoIDVf8Yc0SlwEa/x13qW/Ws9vHnLATkgBx7lQLwbshAgQIAAAQIEphPQUkICClgJTYahECBAgAABAmMEFPMeFfNYsMg1B8acAxybpoBRESBAYBoBBaxpHLVCgAABAgQIECBAYB6BmlrNte5m3GrGcqA9B2o6f4l1dgEFrNmJdUCAAAECBAgsInDkyUNwXfsTCy5cUsuBRU4WOiFAgACBHAUUsHKctVTH7CuwPAhO7UGw8UyZk9qST+nnQKr3j8ZFgAABAgQIECAwWkABazShBgicK2A/AgQIECBAgAABAgQIECBAYIhAXgWsIRE6ZmEBb1FI/y0K5sgcyQE5UGoOLHyXpzsCBAgQIEBgPgEtEzgQUMA6AHGRAAECBAgQIECAAAECJQiIgQABAiUJKGCVNJtiIUCAAAECVQuU+s4yca34rsl4i+K/lP82NP8v1Zt+ZLYcWCIHmq9JjidSC4FJBBSwJmHUCAECBAgQINAuYCsBAgQIECBAgACB8QIKWOMNtUCAAIF5BbROgAABAgQIECBAgACBygUUsCpPgFrCFycBAgQIECBAgAABAgQIECCQr8C5Bax8IzRyAgQIECBAgAABAgQIECBA4FwB+xFIUkABK8lpyXlQS3wVoD585aQckANyQA605UDO95/GToBAWQKiIUCAAIGpBRSwphbVHgECBAgQILCKQFtJy7aMS50xi8xfZfNnwiubcDfyUEPO+zOEMdEtUwkoYE0lqR0CBAgQIJCYQF3Dic8CttbAIBYA5EG+eVDXWUu0BAgQINBPQAGrn5e9CRCoS0C0BAgQIECAAAECBAgQIJCAgAJWApNQ9hBER4AAAQIECBAgQIAAAQIECJQvMG+ECljz+mqdAAECBAgQIECAAAECBAicJ2AvAgQ6BRSwOmlcQYAAAQIECBAgQIDAsgLb2N24NVTxzdiMzHMuOXAZb9MWAtMIKGBN46iVK4Hm5JTLidQ43enLATkgB8rKgas7Iv9MI6AVAgQIECBAgEByAgpYyU2JAREgQIBA/gIiWEdAUbKsoqT5rHM+1zl76JUAAQIE0hdQwEp/joyQQJ0CoiZAgAABAgQIECBAgAABAg8FFLAeQpT4Q0wECBAgQIAAAQIECBAgQIBA+QI1RKiAVcMsi5EAAQIECBAgQIAAAQIEjgm4jgCBxAUUsBKfIMMjQIAAAQIECBAgkIfABKP01Wd1fvWZeS933ic4LWiCwE5AAWsn4ScBAgQIECCQr0ApT37EUe6TOHN7em7zPQMZOQECBAgsIKCAtQByXV14dHb60RkjRnJgzhzQds35Vdc9rmgJECBAgAABAjUJKGDVNNtLxFrz86ZyYvf831zKATmQZw4EE5fnxJk387afA0s8YNUHAQIECOQooIA1y6xplAABAgQIECBAgACBvgL7pSy/K23KgfxzoO85IM/9jXopAQWspaT1Q4AAAQIECBAgQIAAAQLXBWwhQIDAGQIKWGcg2YUAAQIECBAgQIBAygLGRoAAAQIEShdQwCp9hsVHgAABAgQInCNgHwIECBAgQIAAgYQFFLASnpz8hnYRh+yT6vl/Ut0cmsOhOeA4ubN2DsS7IQsBAgQIECBAgECRAgpYRU6roLIVMHACBAgQIECAAAECBAgQIEDgmkBxBaxrEdpAgAABAgQIVCKw9jvA9O9diHJgXA5UcqoSJgECkwloqC4BBay65lu0BAgQIECAAAECBAgQ2An4SYAAgWwEFLCymSoDJUCAAAECBAgQSE/AiCYV8Ca2cW9i48cvtRy4nPQMobHKBRSwKk8A4RMgQIAAgdUFphpAag/ajccTSTnQPwemOh9ohwABAgSKE1DAKm5KBUSAQI0CYiZAgAABAgQIECBAgEDJAgpYJc/uKrFl+1Jj1DL2/i+TMmMmB+RASjkQT+UWAgQIECBAgACBIgUmLGAV6SMoAgQIECBAgAABAgQIECBA4DEBFwgsL6CAtby5HgkQIECAAIHJBVJ6J5ixeGeiHBieA5OfHNJt0MgIECBAoJeAAlYvLjsTIECAAAECBAikImAcBAgQIECAQD0CClj1zLVICRAgQIDAoYDLBAgQIECAAAECBLIQUMDKYpoMkgCBdAWMjAABAgQIECBAgAABAgTmFlDAmltY+6cF7EGAAAECBAgQIECAAAECBAiULzAiQgWsEXgObRPwpaXDv7SUHTs5IAfkwPAcaLtPso0AAQIECJQnICICtQooYNU68+ImQIAAAQIFCSj9DS/9sWOXTA4sN5BHk75/Hlyjf30+mgsWZVrs38b8TmCkgALWSECHEyBAgAABAqkIePaz3LMf1qznyoFUzifGQYAAAQKpCShgpTYjxkOAAAECdQiIcnqBuZ5Pa1etRg4slwM9zgymZblpYc16aA5c9rhN25XAKQEFrFNCridAIFkBAyNAgAABAgQIECBAgACBOgQUsOqY564op93elNeHluYd52UdOSAH5IAcGJsD096raY0AAQIECBAgUJJA9rEoYGU/hQIgQIAAAQIECBAgQIAAgfkF9ECAwJoCClhr6hfX90WMaOzL5473Fgw5IAfkgBwYmgPxbshCgEDaAkZHgAABAgQGCihgDYRzGAECBAgQIEBgDQF9EiBAgAABAgRqFFDAqnHWxUyAAIG6BURfrMDQd245zrv+5EAaOVDsyUlgBAgQIDCBgALWBIiaIFCfgIgJECBAgAABAgQIECBAgMByAgpYy1k/3pNLBAgQIECAAAECBAgQIECAQPkCIpxEQAFrEkaNECBAgAABAgQIECBAgMBcAtolQICAApYcmFjAd0ik8R0S5sE8yAE5UGMOTHyXpjkCZQnkEU2Npy4xu8suOQfyOPMYZSYCCliZTJRhEiBAgAABAicEZn8CEPvXhyeacmC+HIg3MQsBAgQIEOgSUMDqkrGdAAECBKYX0CKBWQVUFuarLLBlu1QOzHqS0DgBAgQIZCyggJXx5Bl6nQKiJkCAAAECBAgQIECAAAECtQnUWMCqbY7FS4AAAQIECBAgQIAAAQIEahQQc0ECClgFTaZQCBAgQIAAAQIECBAgMK2A1ggQIJCGgAJWGvNgFAQIECBAgAABAqUKiIsAAQIECBAYLaCANZpQA48ELuOvS33Bp358mawckANyoKYcOC/WeDdkIUCAAAECBAgQKFJAAavIaRUUAQIErgnYQIAAAQIECBAgQIAAgWwFFLCynToDX15AjwQIECCQtoB35Z33TjVOnFLOgbTPMkZHgAABAusJLFvAWi9OPRMgQIAAAQIECBAgQIAAAQJLCeiHwMQCClgTg2qOAAECBAgQIECAAIFhAim/N2yNsenT+yVzz4FhZwJHEWgXUMBqd7GVAAECBAgQIEAgfwER5CaQ+7N141dxkgOP58BFbich401ZQAEr5dkxNgIECBAgsLpAJgPwhOHxJww8eOSaA5mccgyTAAECBJYXUMBa3rzwHnN9tGTcHunPmANB2/JLDsyfA4XfvQqPAAECBAgQIFC5gAJW5QmQS/jGSYAAAQIECBAgQIAAAQIECJQv0BWhAlaXjO3DBLzJYP43GTBmLAfkgBy4ngPe6RjvtyXG9cRgkpdJTGMLAQJTCGiDQJECClhFTqugCBAgQIAAAQIECBAYLuBIAgQIEEhNQAErtRkxHgIECBAgQIBACQJiIECAAAECBAhMKKCANSGmpggQIECASgHW1AAAEABJREFUwJQC2iJAgEB9Aj72mdfHPs2X+TqVA/WdxUQ8n4AC1ny2WiZAYH0BIyBAgAABAgQIECBAgACBAgQUsAqYxHlD6Nv6qQq8671KIwfkgByQA/PkwDytmi2ucmCpHOj7qNP+BAgQIDC1QNrtKWClPT/ZjW6pBzj68WBaDsgBOSAH9nMguztMAyZAgACBMgVERYDAbAIKWLPRapgAAQIECBBYVmC/pOV3JU45kF0ObOOcbUMI8Yc1nj05ZJfC8rYlb+MmC4GpBBSwppLUDgECBAgQIEAgDQGjIECAAAECBAgUJ6CAVdyUCogAAQIExgtoIUsB71bwbgU5kH8OZHnyMWgCBAgQWEJAAWsJZX0QqFFAzAQIECBAgAABAgQIECBAYCIBBayJIOdoJr82L+KQvfSZ/0uf5tAcygE5kGsOxLshCwECBAgQIEAgQwFDPi2ggHXayB4ECBAgQIAAAQIECBAgkLaA0REgULiAAlbhEyw8AgQIECBAgAABAucJ2IsAAQIECKQroICV7twYGQECBAgQINBLIIGPPgZj8BFcOTAuB3rd6O1MgAABAhUJKGBVNNlCJUCAQA4CxkiAAAECBAgQIECAAIFDAQWsQxGXCeQvIAICBAgQIECAQHYCa7x3bR9pjf71Oe79evzS99u/jfmdwFgBBaxWQRsJECBAgAABAgQIECBAgACB8gVEmIuAAlYuM5XNOL0Okv7rIObIHMkBOVBqDmRzZ2mgBAgQKEtANAQIEFhAQAFrAWRdECBAgAABAgQIEDgm4LqHAn3q6w8Paf3Rp50p9j0cxBRtasPrTSXkwOFtw2UCIwQUsEbgOZQAAQIECBBIRsATnRKe6Iih7jxO6HRiKAQIECCQnoACVnpzYkQECBBYSUC3BHIXUP2ou/ph/vOf/9zPQcZPgAABAnMKKGDNqavt+gRETIAAAQIECBAgQIAAAQIECEwukFwBa/IINUiAAAECBAgQIECAAAECBAgkJ2BABPoIKGD10bLvaQHv3s//3fvm0BzKATmQaw6cvpeyBwECBEoTEA8BAgSqEVDAqmaqlwo012c9xu0ZuxyQA3Ig/xxY6r5OP2UJiIYAAQIECBDIQUABK4dZMkYCBAgQIJCygLERIECAAAECBAgQmFlAAWtmYM0TIEDgHAH7ECBAgAABAgQIECBAgEC3gAJWt41r8hIwWgIECBCoWsBHQPP/CKg5NIdNDlR9IhM8AQIECBwR2CtgHdnLVQQIECBAgAABAgQIECBAgEAhAsIgkJ+AAlZ+c2bEBAgQIECAAAECBMoUaN6ElctqnN40KAdO58BlmacqUa0joIC1jrteCRAgQIAAAQLVCwAgQIAAAQIECJwroIB1rpT9zhBoyutehjj9MgQjRnJADkyWA/HcrK0H+YQiSIUHqcAhb4d4U7YQIECAAIE2AQWsNhXbCBCoSECoBAgQIECAAAECBAgQIJC6gAJW6jOUw/iMkQABAgQIJCHgrTd5v/XG/Jm/JgeSOJkYBAECBAh0Cay4XQFrRXxdEyBAgAABAgQIECBAgEBdAqIlQGCYgALWMDdHESBAgAABAgQIECCwjoBeCRAgQKBCAQWsCiddyAQIECBAgEDtAuInkKZA8yFCqw+TyoFycuAizVONUWUqoICV6cSlO2x3N+Xc3ZhLcykHjuaAP/kW74rSypG0RiN7zIccGJID8cRiIUCAAAECrQIKWK0sNhIgsISAPggQIECAAAECBAgQIECAwDkCCljnKKW7j5ERIECAAAECBAgQIECAAAEC5QtUH6ECVvUpAIAAAQIECJQiMOQDS47xQTc5kE4OlHIuEke6AkZGgEDOAgpYOc+esRMgQIAAAQIECBBYUmDOvtQS06klmgtzMVUOzHnO0HZ1AgpY1U25gAkQIECAAIE1BfRNgAABAgQIECDQX0ABq7+ZIwgQIEBgXQG9E2gXmOrVYu1454EcWC8H2m/dthIgQIAAgaCAJQkmFLiIbXnEt94jvj729jVPckAOlJgD8W7IQoAAAQIECBAgUKSAAtbQaXUcAQIECBAgQIAAAQIECBAgUL6ACJMQUMBKYhoMggABAgQIECBAgAABAuUKiIwAAQJjBRSwxgo6/pGATxD6RFKJn0gSk7yWA/nkQDBZ+UyWuRowV/ExVw1uMUwLAQIECBBoEVDAakGxiQABAgQIEChRQEwECBAgQIAAAQK5Cihg5Tpzxk2AAIE1BPRJgAABAgQIECBAgACBFQQUsFZA12XdAqInQIAAAQIECBAgQIAAAQIE+gnkWMDqF6G9Fxao4bsZxOh7O+SAHJADaebAwnd5uiNAgAABAgTmFtA+gfcFFLDep/ALAQIECBAgQIAAAQKrCnh9YIbXB+KMcuW6Vg40f+grpqCFwBQCClhTKGqDAAECBAgQIECgXAGRESBAgAABAqsLKGCtPgUGQIAAAQIEyheYPcJtfGnZGgIDBjnnQIi349lPFjogQIAAgVwFFLBynTnjJkCgNgHxEiBAgAABAgQIECBAoFoBBaxqp77GwMVMgAABAgQIECBAgAABAgQI5CjQr4CVY4TGTIAAAQIECBAgQIBAFgLNhwit4erDlBw4rJ4D8awxdgyxCQuByQQUsCaj1NADgbGnOMe7q5YDckAOyIEhOfDgXsi/BAgQSEnAWAgQIEBgOgEFrOkstUSAAAECBAgQIDCtgNYIECBAgAABAlcCClhXDP4hQIAAAQKlCoiLAAECBAgQIECAQP4CClj5z6EICBCYW0D7BAhkIjDko4eO8ZFVOSAH5IAckAPz5cBFJo8hDDMHAQWsHGapgDEKgQABAgQIECBAgAABAgQIEChfYK4IFbDmktUuAQIECBAgQIAAAQIECBDoL+AIAgRaBBSwWlBsGirQvD3U22/ne/stW7ZyQA7IgeM5MPT+y3EECCQjMNlpLkY0tq3YxGPL2PYcf/wUzqdMn8duRC4QGCeggDXOz9EECBAgQIAAgTIFREWAAAECBAgQSEhAASuhyTAUAgQIEChLQDQLC3j1vsxX781rXfO68GlDdwQIECCQj4ACVj5zZaQEahQQMwECBAgQIECAAAECBAgQCApYxSeBAAkQIECAQC0C3qpT11t1zHeZ813L+UqcBAgQmEOg7DYVsMqeX9ERIECAAAECBAgQIECAwLkC9iNAIFkBBaxkp8bACBAgQIAAgT4C3o9T5vtxzGt+8zpmzvrc5u1LgAABAnUJKGDVNd/zR7uND1ms8ZEmhyAP5IEckANL58D893JL9aAfAgQIECBAgACBAwEFrAMQFwkQIECgBAExECBAgAABAgQIECBQkoACVkmzKRYCUwpoiwABAgQIECBAgAABAgQIJCKggDXjRGiaAAECBAgQIECAAAECBAgQKF9AhPMLKGDNb6wHAgQIECBAYBGBbezFGgIDBjnnQLwZW2oVEDcBAgSOCihgHeVxJQECBAgQIECAAIFcBDIfZ851N2NXN5YD7TmQ+WnJ8NMSUMBKaz6MhgABAgQIEFhTQN8ECBAgQIAAAQJJCihgJTktuQ7qMg7cSw/tLz1w4VJPDphrc71aDqBfjd6nFj0EmiIHtvE2HJcpmtKGlJQDieRAHIaFwGQCCliTUWqIwGQCGiJAgAABAgQIECBAgAABAgT2BAotYO1F6FcCBAgQIECAAAECBAgQIECgUAFh1SKggFXLTIuTAAECBAgULeCDRz4/KAfyz4GiT1JpB2d0BAgQyEBAASuDSTJEAgQIECBAgACBtAWMjgABAgQIEJhXQAFrXl+tEyBAgAABAucJ2IsAAQIECBAgQIBAp4ACVieNKwgQIJCbgPESIECAAAECBAgQIECgTAEFrDLndcWoMv/+iWD8+X9/hjk0h3KgzhxY8a5P1wQIECBAgAABArMLTF7Amn3EOiBAgAABAgQIECBAgAABAgRWFzAAAksKKGAtqa0vAgQIECBAgAABAgS6BeZ8E21br3P2d17bdb5plk09837RdsOzjcAwAQWsYW6OIkCAAAECBJIT8IyonmdE+3Pt97LmPbkTiwERIECAQCICCliJTIRhECBAgACB1QRK6Vgdo6w6hvmsbz5LOReJgwABAgRmEVDAmoVVowQI1CYgXgIECBAgQIAAAQIECBCYT0ABaz7bSlse/HJp9HJsfS+1mnNzLgfkwJQ5EO9KLAQIECBAgAABAqkLDBqfAtYgNgcRIECAAAECBAgQIECAAIG1BPRLoD4BBaz65lzEBAgQIECAAAECBAgQIECAAIGsBBSwspougyVAgAABAgQIpCNgJAQIECBAgACBpQQUsJaSrqWfKb/KRFu+GkcOyIHyc8AcTznHYcrGtCU55cA6OVDLg2ZxEiBAgEBfAQWsvmL2J0AgMQHDIUCAAAECBAgQIECAAIHSBRSwSp/hc+KzDwECBAgQIECAAAECBAgQIFC+QMYRKmBlPHnpDf0iDsnb7dd5uz137nJADsiBeCdkIUCAAAECswvogACBdQQUsNZx1ysBAgQIECBAgACBWgU64+5Tij/2tXfb2JA1vrTDIciDdfPgsvPW7goC/QUUsPqbOYIAAQIECBAgsLKA7gkQIECAAAECdQkoYNU136IlQIAAgZ2An2UJbGM41vgyO4dj78pxXQb5EYdoIUCAAAECbQIKWG0qthEgcJaAnQgQIJCWgAqWCpYcyDsH0jqjGA0BAgQIpCWggLXufOidAAECBAgQIECAAAECBAgQKF9AhCMFFLBGAjqcAAECBAgQWF/A+27yft+N+TN/TQ6sfyYxgvQFjJAAgZoFFLBqnv2JY99ut5cefjUPv6zyQA7IATmwTg5MfMemOQIlCoiJAAECCwpsQojPERfsUFdFCyhgFT29ywa3DZu3trFLa/AdsfJADsgBObBCDsQuF1l0QoAAAQIECJwnEKtXb563p70InBZQwDptZI8zBTaX4etn7mo3AgTqFhA9AQIECBAgQIBADQLb8LUawhTjMgIKWMs4V9HL5Y2tAtZiM60jAgQIECBAgAABAgQIJC5ww5scEp+hrIZXbwErq2nKY7A3LhWw8pgpoyRAgECJAj7A7gPscqCMHCjx/CQmAvUKJPMpnXqnoKjIFbCKms51g7mxffKr645A7wQIECBAgAABAlkLLFiH3CzYVyigLzHEW5Z57F0nv78Jb0Q5C4FJBBSwJmHUSCPwTU//wv8Mm/B287uVAAECBAgQIEDgMQEXCBAgUJvA27/yR8Nv1ha0eOcTUMCaz7a6ljebcBm229d7l+W9nBNzxcs58kYOyAE5cDoHjhnFU6mFAAECBAgQSEng1158MT5HTGlExpK1gAJW1tOX5OD/R5KjMigCBB4I+JdAyQLbGJx1XB2QH7+1cyDejM9ZNufsZB8CBNYV2AbPDdedgeJ6V8AqbkrXDWiz2RR/klpXWO8ECBAgQIAAAQIECBDIQMBzwwwmKa8hrlHAykvIaHsKXP7XngfYnWit0fQAAA2KSURBVAABAgQIECBAgEDRAt4xVvT0Cq5DYLO5fC2E0HGtzQT6Cyhg9TdzxBGBG09c/ocjV7uKAAECBAjMKLD2Z5/07/N3cmB8Dsx4ihjR9LoFqBEDdyiBFQUuL4Lnhiv6l9i1AlaJs7piTL/3j/3yb8TuvxxXCwECBAgQIEAgDQGjKEpAMamo6RRMuQL//dm7/gJhudO7TmQKWOu4F97r9t+Pf/XNK5gM5YAckAMp5UAeYyn87lV4BAgMFtioeg22cyCBYQKbfzfsOEcR6BZQwOq2cc1Agc22KWANPNhhBMoVEBkBAgQIECBwQuDUSxfN4af2cX0eLzmYp7Ln6XJ7qYDVnLCskwooYE3KqbFG4PK98K/DNrwb14nPyrF193RM5YAckANyoC0H4l2EhQCBsgWmfBPVqba8Y6vsXBLd7ALvXLwbfm72XnRQuMD18BSwrpvYMlLgqe/8wm/HJj4fVwsBAgQIECBAgACBHgJtFWrbvHIhBwblwFrvKNhuP/eJz4avBv8RmFhAAWtiUM29L/CP3//NLwQIECBAgAABAgROCXTUKDZxe7MOfS5+9W6r2MaQ44ccM2asQ/pzTEysBeeX92nveBvwXDAyWaYXUMCa3lSLUeDmB77+ufijeSdW/GEhQIAAAQJLCHgGk+Ar9HHizYt5OTcHYrocLFfFp4NtqV30ccPUZsR4Vhb47d8N4V+tPAbdFyqggFXoxK4d1ubDrzXfgfXS2uPQPwECBPIXEMHZAuc+R7afeoocSDMH9m7sTeGqWfc2Dfq1rbjUt92++w8a6JGD1u7/yNBcReC6wCZ8+oW74d3rV9hCYLyAAtZ4Qy10CFxs738yPjq6H9e4h0eKHFbMAe/1dhuUA5XkQAzTQoBA1gJNsaZZ1wyirei15nj0TSAjgYtwP/xERuM11MwEFLAym7C1hjuk32+5c+8rsWjz8pBjHUOAAAECBAgQIEBgjEBbIWrt4tiYeBxLIHWB+HL1p5/9TPi11MdpfKcFUt1DASvVmSlmXDf+dgzlMq4WAgQIECBAgAABAosItBWvFum4TyeqaX20ctu3xvFub2zCj9cYuJiXE1DAWs66yp5u3f6l10LY/myVwQuaAAECBAgQIEBgoMA6hx0Wvk7VmM7Z/1Qb60SqVwKTC/zzj78UfnXyVjVIYE9AAWsPw68zCTyx/Rux5ffiaiFAgAABAjMKbGPb1vjC0QMH3/3GIcsciNM2cjksKu2aU0jaSfhJYHKBd+Pt7m9O3qoGCRwIKGAdgLg4vcCtj7zyq9uw8WV+09NqkQCBmQU0T4AAAQJ5CcQn0a0DPqd41XVsa4M2EiDwSGATPvnxl8J/e7TBbwTmEVDAmsdVqwcCty7v/61tCL9+sNnF8gVESIAAAQIECBCYXaApPjVrW0fnFK+mPK6tLdsIFCzwG9+4DH+n4PiElpCAAlZCk9E+lDK2bu7c+934oOJHfawhlvGyfDu/cctdOSAHcsiBMu4zRUGAQD+B+Biz84Bzi1fH2uhqfMgxXW3ZTiBbgW34oRfuhjezHX9yAzegYwIKWMd0XDepwK2PfuFubPAzcbUQIECAAAECBAgQuC7Qo1beFKeateu1wU2Ptg7bGHJs2zFt2w77cjmmwYi5uuanrcVec9tchp959m74F3EGLQQWEVDAWoRZJzuB+5v3fiBswuu7y34SIECAAAECBAikJZD6aJp3PjXrsXFeFbaO7bB33am29nad7tc+A5yuVy0RmEwg1gm/8sFN+AuTNaghAmcIKGCdgWSX6QS+9aO/8tUb2833xhbfiauFAAECBAiUKCAmAgQmFmiKTLv1VNNja0PnHN+M5dQ4XE+gYIF3wo3wwsfuhjcKjlFoCQooYCU4KaUP6Ztvf+GVeKf/10qPU3wECIwRcCyBvgLxteCtNTAIDDK/HTy86cfHimF/fbj56I+m8NSsR3c6uLLp42DToIt9+x3UiYMIJCIQ72r+ynMvhVcTGY5hVCSggFXRZKcU6s2P/vKn4iPMn0xpTMWNRUAECBCoTCA+bQ/WeO8a550Dh1xzoCkoNWtM47OWpnC0W8864OFOTR/N+vDi+z+att6/0PFL23Ftu3a21XnF9VZ67Hr9YFsIzCGwDf/guZfD35+jaW0SOCWggHVEyFXzCtz88h/6yyFsXg7+I0CAAAECBAgQIHBCoCnmHK4nDmm9uq0AtWu39YC9jV3H7u1y9WvT3tUv/iFQlsBnv7EJf7GskB5F47f0BRSw0p+jYke4eeHuxc0PvPln42uk/yauMc5cXys0bvMnB+SAHFg/B+LdiIUAgawFmqLPsXVscE3xqVkP22n6PNzWdnnMsW3tndp27rhOtbPg9boqW+Dnn3gzfN8Ld8NF2WGKLmUBBayUZ6eCsW0+/Nq7711u/0y8g/5CBeEKkQABAgQIECBwRKDuq+Z6KSDEB5rN2tZ+I364vdnWth7u13W5Obbrum0cS+d18UDXrf9yiDlonYNfeuID4flnPh/8Ia54O7WsJ6CAtZ69nh8K/P47995484l3/1S8s/j8w01+ECBAgACBYQKOIkCAwEOB5h1Tzfrw4mM/Yh2pqWk9tq250Gxvfl5bW65o2XTtMBsIFCDwc9t3wsee+enwtQJiEULmAgpYmU9gKcP/9o986a1bb9x8Lj7I+IelxCQOArkKGDcBAgQIEMhVID6WDLu1LYam6NSsXde1bQ8tB7Rsujq0a/vpK6/28A+BtAS24Z/8r28Nf/r5fxm+ntbAjKZWAQWsWmc+wbg3f/Ln73/zH3/lB7YhfDLB4fUZkn0JECBAYBWBeA/i7xBGeQ6tH4CRGxnkRhxiz2VXrNr97Dq8KSw1a9v1zfZmvXZds7FZD65o2XS1R9f2qyt7/jNlWz27tjuBK4F4T/J3n305/Lkf/Knw3tUG/xBIQCDRAlYCMoawikB88HH51O1XfmR7uf1E2G5+J8QzpzVOBQfPReSAHJADp3Mgni4tBAiUKRAfI4a29VS0TSGoWbv267yu44qOzV3NP9o++MBHTfiNwEICX4vp+n3P3w1/Nf5sHn0s0K0uCJwnoIB1npO9FhZ46s69zz65uf/R+GzlF+Mae2/OnVYWckAOyAE5cCwH4t2FhQCBbAXik+XQtfZ5QXMTTxO7teu4o9c3grGNw2ObYw637S4fu263z7k/B7XVMt5z+7NfnHB+u4cX9y5uhNvP3g0vRRULgeQEFLCSmxID2gl80+0v/vrNp974E9vt1UcK/bnWHYyfBAgQIECAwOQCGsxX4LDodSyS3b6t+xy5srmq9Zi48dh18epwVZUL/iOQtMD9OLq/9/YmfPcnXgpfib9bCCQpoICV5LQY1E5g80e+/M5Td+79yGZz+XR8WeA/7bb7SYAAAQLJCRgQAQIEZhNoikRd66lO94/r3LfZqePKI1edrk0dO7ilv567t7RgE4HeAq9st+G7nns5/OgLd8O7vY92AIEFBRSwFsTW1XCBm7e/+F9u3n71ezabzZ+PrfyfuFoIFCggJAIEBgts45HW+FoPBx+HyjsHmgJO2xqj6rXst3H0wN2OLTsduepq7+b6q1+6/jm5Q9eBthNYROD/bTfhh1/9cPjO5z8TXlmkR50QGCmggDUS0OHLCWw2YXvz9iv/6O1v/J4Pbbbhh0MI/zuujy8uESBAgAABAgQIVCfQ1Ir215MAu507dmyu7rjqavOp66926vnPHG32HILd6xD4v/H1nh+7uB8+9Pzd8KkXXwyXdYQtyhIErhWwSghKDGULfNv3/MLXb96596m3nnzvDz8sZP1m2RGLjgABAgTOE9jG3azehiUH8s6BeDNuWZrizrG15ZDrm/YbuH7t1ZbdLlcXOv5p9um46tHms3Z6tLvfCCwg8Fvx7PhjT34wFq5eDi9+4rPhqyGEYCWQk4ACVk6zZayPCXz7R770VlPIuvnUGx+KD9S+Nz5O+Nm4Q/MFhPGHhQABAgQIECBAIDeB+Hju6nulDn8OjmO/oSON7HY7ssv74zrY5/rFprHrW49uGXDI0fZcSeChwHsxcT8XC1cvPPlW+IPPx8LVMz8dvvbwOj8IZCeggJXdlBnwoUDzRe+3nn71Z24+fe/Z8OR73xG24YdiQesX43oR17h7PGUHKws5IAfkQPk5EE/5lgwFDJnARAJNFehwPdH0bvcTu8UawKk9Hl7fNPjwVz8IrCQQnwOF/xz7/ktPbsJ3PHc3PBcLV3ef+Xx4J26zEMhaQAEr6+kz+EOBWx/50m/dunPvJ249/ep3feODb3/LZrP92Ga7+fH4tPVe3NfnuyOChQCBAgWERIAAgRoEmuLQsfVMg/0mTh2y2/fUflfXNztf/dLvn4GH9evE3qULvB5fr/+p+JznhRsfCN/23Mvhu+P6k8/cDf74VekzX1l8CliVTXhN4f6BD7/25s3bX/y3N+/c++tPPf3qnVjQ+n03tpunw2b7/dHhxbj+s7j+x7i+GtfX49qc4N+OPy0VCgiZAAECBAgQWFmgqeQcW0cMb7/Zc5rZ7X/Ovlf7NAdc/dLvn4GH9evE3jkLNM9Nmucor4dNeDWuzXOXT8e8eTEWq74/XIan396EW7FY9aHnPhN+sHmn1cf/afidnAM2dgLHBP4/AAAA//+jW04UAAAABklEQVQDAIaRbkl2/+9TAAAAAElFTkSuQmCC;fontStyle=0;fontSize=14;" vertex="1" parent="1">
          <mxGeometry x="1758.5" y="411.68" width="61" height="61" as="geometry" />
        </mxCell>
        <mxCell id="U22hUHlgl1O_JhfOZm2w-107" value="BI &amp;amp; Reporting" style="text;html=1;align=center;verticalAlign=middle;resizable=0;points=[];autosize=1;strokeColor=none;fillColor=none;fontStyle=0;fontSize=14;" vertex="1" parent="1">
          <mxGeometry x="1734" y="479.84" width="110" height="30" as="geometry" />
        </mxCell>
        <mxCell id="U22hUHlgl1O_JhfOZm2w-108" style="edgeStyle=orthogonalEdgeStyle;rounded=0;orthogonalLoop=1;jettySize=auto;html=1;exitX=0.5;exitY=1;exitDx=0;exitDy=0;fontStyle=0;fontSize=14;" edge="1" parent="1" source="U22hUHlgl1O_JhfOZm2w-106" target="U22hUHlgl1O_JhfOZm2w-106">
          <mxGeometry relative="1" as="geometry" />
        </mxCell>
        <mxCell id="U22hUHlgl1O_JhfOZm2w-109" value="" style="shape=image;verticalLabelPosition=bottom;labelBackgroundColor=default;verticalAlign=top;aspect=fixed;imageAspect=0;image=data:image/png,iVBORw0KGgoAAAANSUhEUgAAAgAAAAIACAYAAAD0eNT6AAAQAElEQVR4AeydCZwcRb3H/9U92RyAWY4kkOzO5uAMCCL6RPBEQPEJihIVuXweAYFkZ0MkQHaWZmcCCUdmNhGQeHKoTyIKCIKCwPNEBURuNJCd2U0kgGSBHGQz3fX+tckkm7DHHN3T1d2/+VRNz/RU/ev//9bM1K+renoMwg0EQAAEQAAEQCByBCAAItflCBgEQAAEQAAEiCAA8C4AARAAARAAgQgSgACIYKcjZBAAARAAgWgTUNFDACgKyCAAAiAAAiAQMQIQABHrcIQLAiAAAiAQdQJb4ocA2MIB9yAAAiAAAiAQKQIQAJHqbgQLAiAAAiAQdQLF+CEAiiSwBQEQAAEQAIEIEYAAiFBnI1QQAAEQAIGoE9gePwTAdhZ4BAIgAAIgAAKRIQABEJmuRqAgAAIgAAJRJ9A/fgiA/jTwGARAAARAAAQiQgACICIdjTBBAARAAASiTmDH+CEAduSBZyAAAiAAAiAQCQIQAJHoZgQJAiAAAiAQdQI7xw8BsDMRPAcBEAABEACBCBCAAIhAJyNEEAABEACBqBN4e/wQAG9ngj0gAAIgAAIgEHoCEACh72IECAIgAAIgEHUCA8UPATAQFewDARAAARAAgZATgAAIeQcjPBAAARAAgagTGDh+CICBuWAvCIAACIAACISaAARAqLsXwYEACIAACESdwGDxQwAMRgb7QQAEQAAEQCDEBCAAQty5CA0EQAAEQCDqBAaPHwJgcDZ4BQRAAARAAARCSwACILRdi8BAAARAAASiTmCo+CEAhqKD10AABEAABEAgpAQgAELasQgLBEAABEAg6gSGjh8CYGg+eBUEQAAEQAAEQkkAAiCU3YqgQAAEQAAEok5guPghAIYjhNdBAAS0JfDNydbezQ3J9yUaWz+TaEp+hfPcRLzt8kQ8eUNLPPmz5njygUS89e+JePKFrbmL97+mMr+2kffJfnmd2q8y7+vkXKzzCD/+TXNT8iecr21pTKZaGltbWuJtZ3E+cU5T8vCWBmsPbSHBMRAYhAAEwCBgsBsEQMB/AnMnzN2lpXH+e3iwPjMRb7000Zj8XiKevI8H+ud538bNjv1vYdDDJMQvSNL3OF9FJC9mz2dKos8Joo8SiXcR0dStuYH3766yIBrF+/qnXdR+lXlnE+dinSP48XFC0hc5nysFtUohFkuSP5Qk73QkPSYN+z/s15ucn2K/7uZ8fSLeenFLY/KLLQ3Jd1rTrTq2gQQCNSQwfFMQAMMzQgkQAAGPCczad9ZIdSTNA+fpnK9IxJN3cn6hMHL0m1IYf+PB+kYiYZGgrxDRsTzQ7y/ePoDzS76mXbn1g9mvT3I+h0hcLgX9RBr0RM86ez3H8wzn5Yl4m9Ucb5uRaGo9aAbNMAk3EPCJAASAT+DRLAhEmcD5jdbElnjbiTwYLkzEk38weut71JE0D5w3c76I2ZzIeSpnfsr3wU8xDuEgzqcQyUsFyVtJimcmxQ98XcXfEk92KFHQPOWSCVwGCQSqJlCKAQiAUiihDAiAQMUEZvBRbnNj8r08yF3Eg90dnF+KCXuV5OlzIjmPDR/No/zO0/G8OxJpF47yaF52mK1EgbDNl5jTizw78ONEvHUWb5Vo4CJIIOA+AQgA95nCIghEnkCi6ZJ91BEtD2I38VHuGiHorzzIXcFgTuKMo1yGMFhiTlN4duBUIrGEt2rZ4CXmeGsinpzZ0jB/EuEGAsMSKK0ABEBpnFAKBEBgCAJqDX92U+sn1VnyPFD9k6S5Wh3REokziGhPzkiVE2DBJGZw9RukYXQ1x5OPMeNFs+PzP2CRhe9wBoNUGQG8eSrjhlogEHkCLQ0to1v61vFbbzJ769cYUtwtJJ3LYPbjjOQNAZ5MocPZ9IUGGb/vidtrEvHWm1q4H/BLA6aC1Eeg1DsIgFJJoRwIgADNmzpvbKKp7TRe0/+5NHZ9dcs6ft9R/ljCzQ8CexHPsqh+6Fln/zsRT/6gRYmByVZUz6kg3EonAAFQOiuUBIFIElDTzGq6ORFP3rCpULeKpLyFD0NPZhhjOCPpQ0BdjOjLfWLAsV9S/aX6TR/34EltCJTeCgRA6axQEgQiRWD21EvjzfHWea/H7RVqupmDn8lZnbXOGyTNCagZmZmq35rjyWebuR/VVRM19xnu1ZgABECNgaM5ENCZgFrXTzQmv8xHj78zCk6nILGw76x0nZ2Gb0MSEEQHCu7HzY7dxf16Z0tj26dnEC5ANCS0AL9YjusQAOXQQlkQCCkBdXSYiLdZvK6fJ0E/4DA/yFlwRgoPAXUxohOlkLdPih+YV/2N/zAIT+dWEgkEQCXUUAcEQkJgdjx5RCLeehMfHeaJ5KUc1l6ckcJPYCJxfzuGvUr1f0s8eXD4Q45ChOXFCAFQHi+UBoHAE7DIiqkz+RPx5F8NokeI+s7iH0G4RY4AT/GMIu5/XuZ5srkpeU9zY9vHCbfIEODPf2RiRaAgEGkCM4+YOaI5njyzJ24/o87kZxjv5YwEAoqAEJI+wXf3JhqTjzfH29SFh1gfqJeQg0KgXD8hAMolhvIgEDACxYF/zCsTnuFv9BvZfVyohyEgDUJA0GHqKo6JplYIgUEQhWU3BEBYehJxgMBOBNSV4dQRPw/8z24d+PfdqQiegsDgBKQ4tE8IxFufUO+jGfjlwOCstHilfCcgAMpnhhogoDUBXuM3eBr3yz3r7BVbB/5pWjsM5zQnIA5R76NJTQc8hnMENO+qMt2DACgTGIqDgM4EeNr2mLVx+5GtP+Vr1NlX+BYwAmpGQMh7E/HkfXOmJA8LmPehd7eSACEAKqGGOiCgGYHmKa0HJOKtt5IUv+WjNfVnMZp5CHdCROBYx6bH+P12U6Lpkn1CFFfkQoEAiFyXI+AwEThv0sV7JuJtC4UtniAS6sxtwg0EakCAxw5xBknzX+r9d+EBF+5WgzbRxKAEKnuBO7GyiqgFAiDgHwG1zt/SmDx3hBl7gUjOY0/qOCOBQK0J7KLef70bRz7d3Nh6Uq0bR3vVEYAAqI4faoNAzQk0N1iHrm10/igFXcuNqz994Q0SCPhKoFEIcUdLPPlL9SdSvnoSwcYrDRkCoFJyqAcCNSbQ90c98TZLGPbfhJBH1rh5NAcCwxKQRJ8yCk7fvw/OoBnmsBVQwFcCEAC+4kfjIFAagdlNrZ+Uxq7PEPVdrx/T/aVhQyl/CIwRJBZOih/wSEvD/P/yx4UotVp5rBAAlbNDTRDwnID6t7ZEU+uPDSnu5sYmc0YCgYAQEO+ShvGnRDy5aNa+s0YGxOlIuQkBEKnuRrBBIpCItx4rDfsfJMWpQfIbvoJAPwJqGeBCs7f+0cRk61399uOhSwSqMQMBUA091AUBDwhYk61RiXjbQiLxayJq4IwEAkEncDA59sPN8dZ5FlkYdzTpTXSEJh0BN0BAEWhpSL6zRxb+wmv98/g5Pp8MASk0BEYKEgtfjzu/T8StqaGJytdAqmscXzDV8UNtEHCFwAyaYSYaW+dLgx7lKf9DXTEKIyCgIQFJ8igi+9FEU9tpGroXKZcgACLV3QhWRwIXTLT2mhQ/8FckRJr9G8EZCQTCTqCepLwlEW+9aeZEa0zYg/UqvmrtQgBUSxD1QaAKArPjySPsmP03NnE8ZyQQiBgBccbomP0HLAn40+0QAP5wR6sgQImm1vP4A/gnRoGf9zGEKtOrRPIxEnQ7kVjK+TJJ1Mz5DEfI/5YOHek4cn8ic5oTM5o20eY9VI5t2rhrNp8Sdp05Vj1XuSAkr0+b00zDPMgRztGCxEmcvyyknCMkpdnmtwXRXdzeU0T0BmekKggwy8N5SeBv6loXVZiJYNXqQ+bvn+qNwAIIgEDpBOZOmLsLT33ewmv93+JauKgPQygxvc7l/ixIfodzQjjyBJvMgzcUzF14EB+XzaePyOZSJ2fz7bM5Wx351BLOtyzJpX/V0Z36y5Lu9L+yeevFJS9elr8+v3CtylevuXo926SlK6w31HOVv5VLr1Tlrum0nluSW/CnTL79l5xvzHSlM5muVLIjn/pGJp86kdt7ZzafGkuGubt0zMOEFJ/h9e2LWBjczPkxtruRM1JpBPYwpPhlorGtfQbhCoKlIau+FARA9QxhAQRKJjC7oXW/wsjRfyYSOAGKhrzxET3dTUK2qYFeHbXzYFvP+ahMPj2Tc0emO33v0rz1zLLV1oYhLXn8YrbT6unotp7IdLXf0ZFPL2JhcCbnI1bln9tNOOZ+QojPEokreObgQSJaxxlpYAIG93dSnQ+j/uVy4CLYWyTgxtZwwwhsgAAIDE+gpSH5YcMQD3PJd3JG2pHAszwjci0PkmeoqXoe6PmIPvWpbC6dUgO9Omrfsbj+z5bTcjvTba3I5Np/kc23X8IzB8ewKKhXswXs/dmcf8i5izPSjgSOH2HGHp4zyeIlmx1fwDN3CUAAuMsT1kBgQALNjW1fcAy6l1/cgzMSER/hy+UM4mzTdCZn86np2a7283mQvEVN1fP+UCYlCtRsAce7jPP/cI4TmdM4WBYEfTx6+DES0b7StB9OTG79CGAMRMCdfRAA7nCEFRAYjIBIqH/wE/IngmjUYIUisv9pZtBOwjyCB77xPE3+ed4uu2blglxE4h8wzGzeelFxUDw2jFszXjjEg57oIEl5ivCNZ4N2J0fc2xxPnh5hDJ6GDgHgKV4YjzIB9QcoiXjrjbTlH/x47IseDQ76GSJxGa/tTudB7pBMPnVpNmepE+T4+51w24nAskeXbc50p/4vm29PZLtSTYLoEFL8iJ6laN5GMoObWEQv5PD5Id8jkVsIIADcIgk7INCPgDqJyeytv49InEERu/G39EoWPZb6OR0P+AfzYGbxWn5UB7Cqep/5Pd3Hj5dIyDAPJxId1Ld8wvfRSfyWkvNa4smblKiOTtjeRwoB4D1jtBAxAi0N8yfFzNgfOOwPco5K2sCD/s2GEMfwoDWNp7MvUz+ni0rwtYgz22k9zmIgUb+rOUn0/bKAfsntFjhHIvGU0emx3vq71c9oIxHwoEG69wIEgHssYQkE6Pym1ilkGL/nQ5YDo4CD43xGSPqGXWfuw4P+mYtz7eqnbvxdHYXo/YnResbq3fLLgtRJ0rQbWHhdwp6s4hz6xG+sj9kjx/wmMdmqD32wNQgQAqAGkNFENAg0T2k9ICbF7/hLakrII3Y4vvsFiZP4aP+QTFfq2+pCOrwPqcYEOlZevoaF1xX1eTOu+oObv59zqJMkeZR07Adm7X3xuFAHOkhwbu6GAHCTJmxFlsCcKcnDhC1+xwD4iIzvw5nWE4mljiMPzOZTx2Xy7WoKmvUO4eYzAYssR/WH6hfhOO+Tkn7MLoV2eUAQHR6riz10fqM1keNEqpAABECF4FANBIoEWhrnv8ex6bf8fDznMKb1/IW7hIS9XzbfPjvMv9MPQ+dluhf8taMrdRoZ5n4czzLOoRQCrDynx4T9x1mNreo6ChxmFJK7MUIAuMsT1iJGQF3dP4BOeAAAEABJREFUTwrjAQ57T85hS28SiSvMgjk5k081Z3OX/5twCwyBbKfVmc2nziYyDxBSfo8d38w5bGmyKcRDuGpgZd0KAVAZN9QCAUo0Jd8vDbqLUezGOUxpI/HALxxzcjbffsk1q61XCbfAElAXGsp0pb/GMwL7k6TvcyA25zClBse0f9t3Am6YohogFrd3QQC4TRT2IkGgb81f0t0c7K6cw5J4VlUu54Fiuhr4M93Wa2EJDHEQ9c0IdKW+SkKq/6JQ790wYWmISXEfzgkor0shAMrjhdIgQM1TWg/gNf9f82i5e4hw/JkEHZ3Npz+vBooQxYVQdiKgLsqUzac+RSSPYzHwxE4vB/nptJhhP9g85ZIJQQ5icN/dfwUCwH2msBhiArMbWvcjWzzEIYblS+YFQeIkHhCOyuZSf+a4kCJCgMXe/atyz7+bwz2b8384Bz9J2p9s8x5cJ6C0roQAKI0TSoEAzZk4v9EwxG8E0d4hwFHgOJbENm08LLPl53whCAkhlEtgOS23Wfwt20Sbi78Y4Imtcq3oVZ7f14dL27nn3HHWrnp5Vp03XtSGAPCCKmyGjsAFE629nJihfuo3OQTB/dGR5uGZfKr56jVXrw9BPAihSgLX5xeuZSFwNi8JHMtLQf+s0pzv1YWQR9aNtu/AfwcM3RUQAEPzwasgQNZka5Qds29nFOooiTeBTT2S5Dn1efNDS7qspwIbBRz3jEA2l36gXpiH8VF0OzfSyznI6Rizd6z6+SOHE+QwlO/eZAgAb7jCangIiLW2rb5Ejg5ySPwN+Fuj4BzakU/fYJHlBDkW+O4tAavTeotnhy7lWaIjiOTj3rbmtXVxWiLedqnXrQTVPgRAUHsOfteEQHNj21VC0Jdq0pgHjUiit/io/6KxefP4xasXdHnQBEyGlICaJao3Yu8nEouIKMCiUbY1x5NncgyBTV45DgHgFVnYDTyBRDw5k9cSLwhuIPIp06Qj+ah/kUU46g9uP/rnucWzAdl8+0XswYc4v8g5iIk1PH030dR6TBCd99JnCAAv6cJ2YAk0x1s/xc5fxzmIiQ/86cr6XWNHLF6Z+kcQA4DPehHI5lN/JMNUSwLL9fKsZG9GkBTLg3nJ4JJjLLsgBEDZyFAh7ATUhX4EiVs4TpNz0NLrQoqT+Qt7nvWMFfSTuILGPtT+Zjutnmw+/XlBMsGBBvF/BfZwTPtu9Yse9h+JCUAAMAQkECgSUL8dFra4jZ+P5Ry09CwJ+f5MV/sdQXMc/gaHQCaf7pCS1EmxueB4vc3Tfe2Y/dMZNCMw4n6b5x48gADwACpMBpaAqBtt/4C9P5hzwJL8UWzTxvdmc+lnA+Y43A0ggY6u1N/s3sJ72fX7OActHTOp6aDLgua0F/5CAHhBFTYDSSDR2HoJO34K5yClAh/1n89Ts6fjoj5B6rbg+7r0pSteqc+bnyRBiwMXjZQXbz3PR3PXvXUPAsBbvrAeEALN8bbjSIigHRWskyRP5qP+awOCGW6GjIBFViGbS11Agr7OoQXpvABDkLh5VmPrNPY7sgkCILJdj8CLBC6YMr/JIPlTfh6kdcEu6ZhHd+TTd7HfSCDgKwEWAd8VjjyJnXiTc1BSvSHE8paGltG6Ouy1XxAAXhOGfa0J8BGMYReMH0qi3bV2tL9zQj5hFJyjO7qtJ/rvxmMQ8JNApjt9ryPNo9iHwJwcKIgOJ2PXZexzJBMEQCS7HUEXCfTEnTYS9BEKzu3u2FtvHYWr+gWnw6Lkqbp6YKFPBMjHgxK3JDq9WcsrBXpPEALAe8ZoQVMCs+PzP0AkWzV1bwC35E83jFtzMk72GwANdmlD4Ftd1moyYh8VJP6kjVPDOCKIliYmW5OHKRa6lyEAQtelCKgUAonJVr1BRmAu9sNfULfU52OnL3t0WZBOtCqlK1AmhASynVaPuWnD8RxaUH4m+A5ynJtnaHR9AGbneYIA8BwxGtCRgJT29exXE2f9kxDXj82bZ1lkFfR3Fh6CwBYCaqbKrus5kZfYbt+yR/d7+YFJ8QMv0N1LN/2DAHCTJmwFgoBa7xOSvhgEZ3l9cmE2134uD/4B/je2IJCGj14QWLpi6aYNe635PJFc7oV9D2y2z5mSPMwDu2WarE1xCIDacEYrmhBINF2yD0+nZzRxZ2g3hFjQkU9dPHQhvAoCehNQy1ar8s+fyl7eyln3NNKx5S3WZGuU7o664R8EgBsUYSNABEz1D3976O+w6OAj/wCdoKg/UXjoH4HltNzeMG7N6ezB3Zw1T+KQtbaT9tPJWrUNAVAr0mjHdwKJxrZTSdJnSPubvDGbb2/R3k04CAJlEFAzAfW7mp/lKr/mrHUSQrbMmTz/SK2ddME5CAAXIMKE/gT6/gJUyKzunvLyxG08XfpV9lNyRgKBUBFQf1G9odAnAn6veWCGI8UNM4+YOaL2ftauRQiA2rFGSz4SsGO2ul7+eB9dKKXpO9aPW3Oqmi4tpTDKgEAQCSxbbW0gwzyJSD6utf9SHDrm5QmztPaxSucgAKoEiOr6E0g0tf03e/l5zvomQX8RzrpT1TSpvk7CMxBwh0C20+opyJj6XHa5Y9EjK4Iumz310rhH1gc0W8udEAC1pI22ak7Amm7V8ZHG4po3XF6DndKwP53pzmwsrxpKg0BwCXyry1rNS14ncASvc9Y17SoKjrpmiK7+VeUXBEBV+FBZdwJr19sXkqT9NfbzDeHQSR0rL1+jsY9wDQQ8IZDJp56WUnyBjWt7kSsWKZ9saWo7mX2sQaptExAAteWN1mpIQE3dCUkX1bDJcpva7JD4bKY79WS5FVEeBMJCoKOr/df8OdV6rV1KuWTuhLm7hIV5MQ4IgCIJbENHwCjYV3NQ+n5oBZ2zJN/+W/YRCQQiTSDTlfo2CdJ5qa6hMHLMN73upFrbhwCoNXG0VxMCiabWY4jEDNL0JgVdl82lvq+pe3ALBGpOoD5nqgFW4z8PkhfOmTi/seZgPGwQAsBDuDDtD4EZNMPkdf8Of1ovpVXxV2dEz5xSSqIMCESFgEWWI037DI53FWcd02jHNCzvHKu9ZaP2TaJFEPCWwKTGA/lLRBzibSsVW3+NDOML6k9SKraAiiAQUgLqZFjDcE7h8Ho565cEfTnRZL1bP8cq8wgCoDJuqKUpAWvLn3hcpql7jpTiS9lOq1NT/+AWCPhOYHHngocFyQt9d2RgBwwp+84tGvjVKvb6URUCwA/qaNMzAq/bhW+QID0v3CGkpc549ix4GAaBkBDI5NNqCU/Lfw8URB+d3dT6yTCghgAIQy8ihj4C86bOGyuFuKTviX53v6/PxRbo5xY8AgFNCRjm2SQpr6N3hqRFFlkujp/+RBn4APzBhlZ1JLDJHqnOIt5LQ9/WCcf8Cn9hOBr6BpdAQEsCvFTWI4hOZ+dszpolccjauPM5zZwq2x0IgLKRoYKOBOZOs8aTlAkdfRNSzM50Wyt09A0+gYDOBDJdqd9LKbI6+ihIJtkvwbnq5JcBCAC/yKNdVwkUNjtq8Nfxoj93ZLraf+BqsDAGAhEi4IxcO5+EfELDkN+ZaGoN9CWCIQA0fFfBpfIIJCZb9UTy3PJqeV9aEr1k9xa+7n1LaAEEwktA/WRW2rEzOMJNnPVKjmhjh6qcBWALPiUIAJ/Ao1n3CEhpn8/WxnLWKgmSs5a+dMUrWjkFZ0AggAQ6ui2eARALtXNd0GGJxtZPa+dXiQ5BAJQICsX0JDBzojWG5fds7byTdE82n/6Zdn7BIRAIKIH6XY3L2fVnOWuVpKhuFsDPYCAA/KSPtqsmMCZmzyRJ46o25K6B9WbM+Ya7JmENBKJNwHrG6iWjb6mPV9f0YcEHIIcnmtoCeV0ACAB93kfwpEwC1nSrjqtcwFmrJIS89JqVC3JaOQVnQCAEBLKd6Yc4jBs565Uq/gWSv2FAAPjLH61XQWDtOvvzXL2Bsz5JyCfW7/XyEn0cgicgEC4Cm+3CXBKk27k1xzY3WIcGjTQEQNB6DP5uIyAEqZP/tj3X4AFPTYpzlj26bLMGvsAFEAglgWtXXfEfDky7K34Kwz6P/Sor+V0YAsDvHkD7FRFobki+j9f+31dRZY8qSUE/zeZSf/bIPMyCAAhsJVCfM79PJB/b+lSXzRnnTbp4T12cKcUPCIBSKKGMdgSEIWdp5lSv48hWzXyKhDvyC1P/xvkJH7OWf1oT5s63yHJ4GUBd+lunMEfXmbEyrvvhv+sQAP73ATwok0DfZX9JnFJmNU+LCxIdS7vSL3jaCIwPRuCd/IKfeX9uH6nGBLK59AM8C3hPjZsdsjleAzx/5hEzRwxZSKMXIQA06gy4UhqBzZvtc7jkSM66pP9Io+83yrr4Az9AIBIEhCA1C6DTnwVNGv3K3p8pBb4OZSAAdOgF+FAygRk0wxREM0uuUIOCrPrb1T+X1aApNAECINCPQCafepqffo+zNkmQ/Ko2zgzjCATAMIDwsl4EGhoOOI49msRZl/Rvw1n3HV2cgR8gEDUCRsFJc8w6/U/AcXMmzm9kn4ZIerwEAaBHP8CLEgk4pjirxKI1KiavyHRnNtaoMTQDAiCwE4HFqxd0EYkfkj43Q8aM0/RxZ3BPIAAGZ4NXNCMwb+q8sUKSNn+8wVP/Lwln/Xc1wwR3QCByBJyYUP8T0KtL4FLQ/7AvgvOASZedEAC69AT8GJZA7+a6U7nQaM5aJIPkQhz9a9EVcCLiBJa8eFmeEdzEWY8kaf9EU/JIPZwZ3AsIgMHZ4BXNCDgkdJr+X7O+EMPav2bvEbgTXQKm6ahzAfS5CqekL9OAN312QgDo0xfwZAgCzVNaDxBC6qSoFy9bbW0YwmW8BAIgUEMCW/6AS/5vDZscrqkvtDS0aDNjOZCzEAADUcE+7QgIm76okVMbhGNi7V+jDoErIKAIGEJk1FaTPJbM3T6xsy86PYcA0Kk34MsQBMTnhnixpi9Jopsy3dZrNW0UjYEACAxLYHEu9Xcu9HvOWiQpHW2+twYCAgEwEBXs04rA7IbW/dghdalX3vifDIeu898LeAACIDAQASlEx0D7/dknPmVNt+q2t63XIwgAvfoD3gxAwDBIp+v+/ybTnXpyADexCwRAQAMCq3PP3i6IVmrginJhbM9652PqgY4ZAkDHXoFPOxHQZ/rfEVKjo4udMOEpCIAALaflthT6zNIJx9m2DKBb90AA6NYj8GcHAonJ1mTe8W7OOqTuf+ee/7UOjsAHEACBwQlsLhR+wK9qcXlgKcRnLLJi7I92ydDOIzgEAv0JOPZn+CnP6PG9z0lI+qE6uvDZDTQPAiAwDIFrV13xH/7SuGuYYrV6ec83mpwPEtWqudLbgQAonRVK+kNAl5/RyAJJna437k9voFUQCAgBR6PPqyPlSTpigwDQsVfgUx8Ba7I1ih98iLP/SdDvlnalX/DfEXgAAiBQCoHd87F7udy/OeuQjtPBiZ19gADYmQiea0Ngre18mJ3R40paDuHon5yTEZMAABAASURBVHADgeAQsMjiSTv6kSYeHzxrktWgiS/b3IAA2IYCD3QjIAx5vCY+re99y/yZJr7ADRAAgRIJCEGaCHciw7SPIc1uEACadQjc2U5ASNJk/V/edd0r1rrtnuERCIBAEAhk8qmn2U+VeeNv4sH2OH89eHvr7NPbd2IPCPhNQE2XSaLpfvuh2hckfq62yCAAAgEkIP3//Cpq/H2mBIBQj3XJEAC69AT82IGALtNl/KF9a8ToTffs4ByegAAIBIeAaegi4Cc0N1jaXNJcdSAEgKKArB0BQeIoHZwSRPdd+fyVb+rgC3wAARAon0C203qca73I2ae0vVkh7GO3P/P/EQSA/30ADwYgIEh+cIDdNd8lSNxW80bRIAiAgKsEtPkcC3q/q4FVaQwCoEqAqO4+gZYGaw+eej/QfctlW7TJMX5Zdi1UAAEQ0IqAFPIXfjm0U7sQADsBwVMQ2IGAYxTU9L8O4vSvmW7rtR2cwxMQAIHAEViVe+6vgmitBo5PmjNxfqMGfvS5oMOXbJ8juAOB7QTE0dsf+/eIvzDu8691tAwCIOAWAfUfHo6kh6jmt7c3aMfMI9++1589EAD+cEerQxDggVcLAcDz/xAAQ/QTXgKBIBHgwe43Wvgr6X1a+MFOMBO+RwIBTQhYZKn35OEauPPmW+Ne+YsGfsAFEAABNwhI8343zJRjY6CyQkjMAAwEBvtA4I1JtC9T2JWz3+nBZY8u2+y3E2gfBEDAHQKZbmuFIFrpjrXKrUiiI6zpVl3lFtyrqY623LMGSyBQJQHbdA6r0oQr1flD+ltXDMEICICANgRq+7keOGwWIaN6NuhxlVMIgIH7CHv9IiDku/xqun+7hnT+1P85HoMACISAgKA/6xCFkLYWlzmHANDh3QAfthEQknyfAZBEb43dbcQT25zCAxAAgVAQsKX5cK0CGaodh+jgoV6v1WsQALUijXZKJeD7DABP0T1qPWP1luowyoEACASDwNK89Sx/vn2/HgAf6EAABOMtAy9rRUBdAZDbmsTZ3yQIZ//72wNoHQS8IiB5hu9vXhnfbnfYR4cMW6IGBTADUAPIaKI0AtK0DyitpLelpBRaTBMOF6WcMX1X+YWpp/mavzhNXbVxOFfxuscE5KnTPuHr++DzU0/1OEQXzQsdzgOYMnfC3F1cDKoiUxAAFWFDJS8ISEnTvLBbrk1hGDocIQzvttE7gQvd4muW8lxuH8lvAo5Mswv+vRcE3cztByMJ8vzzXQIIozBqV98PeCAASugpFKkNAUFCXQOgNo0N3sqb2U4rN/jLeAUEQCDIBEzDfkoL/6Xj+3kAEABavBPghCIgpdxPbf3MUoqnuX1eJuR7JBAAgdARuGblgjwH9SZnj1JpZiXJKaWV9K4UBIB3bGG5TAJC+D8DYJCjBECZnqM4CIBAgAhIEvSM3/4KSU1++wAB4HcPoP1+BKQOSwAQAP16BA9BIJQEHPLsc14qLyEgAEplhXIhJ5CYbNVziHtw9jv5/sXgNwC0DwIRIOD751wSBEAE3mcIsRQCtkMTSynndRlhy2e9bgP2QQAEfCZgCI8+52XF1WiR5essvK+Nl4UKhUNNwKSCDgJgc9fqf64ONWgEBwIgwAScTr7zO41cP5nG++kEBICf9NF2PwLGPv2e+PWwazktt/1qHO2CAAjUhsCGzTFPfupbrve9BdvXEwEhAMrtMZT3hIAUzt6eGC7HqCT186ByaqAsCIBAAAksW21tYLdf5exrEoZs9NMBCAA/6aPtbQSEFP4vAQipxVHBNih4AAIg4CEB6bLgL99VSbRn+bXcqwEB4B5LWKqKgPR/CUAavn8hVIUQlUEABEomIKXwXfALIl9/+QQBUPLbBQW9JCBJ+HoyjIpNCupSW2QQAIHwExBCuCr4KyImBQRAReBQKVQEBMmxfgdkCPJ9TdBvBmgfBCJDQDj/0SBWCAANOgEu+E5AvMN3F2z5mu8+wAEQAIFaEXDx816hywaWACokh2qhIiDI9xkAW5g6HBGEqlsRDAjoSkA4wv/PuyScBKjrGwR+1Y6AlLRb7VobuCVTbl478CvYCwIgED4C7s34VcEGSwBVwEPVEBCYte+skYJolN+hjI2N8P+IwG8IaB8EIkNACwGwi5+48SsAP+mj7S0E1u3q+/q/JHrL6rTe2uIQ7kEABMJOoEDCpRm/qkiNrKp2lZUhAKoEiOrVEzBHjfRVBasIeAYCg78CgQwCESEQk1KHz3ydn7ghAPykj7b7CNh2wex74O9dr7/No3UQAIFaEigUHFc+81X6DAFQJUBUDziBEU4MAiDgfQj3QSBoBMaMgQDADEDQ3rUh9HezSTENwtLhaEADDHABBKJBoJdv1UdatQXMAFSNEAYCTSDm2L7PAEgiCIBAv4vgPAiUR2Bs99hN5dXwpLSYecTMEZ5YLsEoZgBKgIQi3hKQMdN3ASBIFryNEtZBAAR0ImCR5bA/NueKkxsV39H9Dt9mASAA3OhB2KiKgKPBDACR8F2EEG4gAAK1JCC4Md8/95t22+TbwQcEAL8DkPwlYAiTZ+D99YFb902Fc9tIIAACNSYwa99ZVX7m3XF46Yqlvi0/QgC404ewUgUBW1Lkf49bBT5UBQEQqIDAaHO0DgJgM7vu2wEQBADTR/KZgCzocDKODl8GPncEmgeB6BCw3xxT1VX4XCLl63cfBIBLvQgzlRPQ4YpcvBgIAVB5F6ImCASOwCaTdPjM+zb9T3yDAGAISP4S6JWO70sAPAenw9GAvx2B1kEgQgRiZjUCgFy58fcOBIArJGEksARk70hfp8G2ghtjTbd0OCLY6g42IAACXhIwpL27l/ZLsc0zj75+92EGoJReQhlPCYx/RYuTAGntxl7fvxA8BQ3jIAAC2wg4JCv+vG8zUuUDngHYWKWJqqpDAFSFD5XdIGCRpX4Hu8ENW9XYEI6xRzX1URcEQCA4BKQ09vTbW4PEa376YPjZONoGgX4E/tPvsS8PHSl9/0LwJXA0CgIRJGBU/Hl3D5Yk6ev3HgSAe30JS1UR8PeDoFwXUmAGQIFABoFoENDg8y4xAxCN9xqiHIqAIOGrEla+GeT/lKDyAxkEQMB7Arz+XtE5AO56Jta6a688a5gBKI8XSntEgD+MvgsASc5Ej8KDWRAAAc0ISIMa/HZJCvL1ew8CwO93ANrfQkD4PwMgBDVtcQb3IAACYScgZCWfd3epGA5hCcBdpLAWRALC8f8cAEkCAiCIbx74DAKVEYhXVs3VWhAAruKEsUASkCRX++24JNLhC8FvDGgfBEJPYOtFv/YpN1C3yzvk+Pq9hyUAt3sU9iojYBj5yiq6V0tQ35Qgb9yzCUsgAAL6EfjPm4VG9sr38S8Woxz74VvyHYBvkaNhrQhI2+jSwKHRc6dZ4zTwAy6AAAh4SGCEYVQw2+e6Q/ZuK0esct1qGQYhAMqAhaLeERAx8n0GQEXXu3nz/mqLDAIgEF4CjuMc6Ht0klZtvQqqb65AAPiGHg33J5DttHr4+RucfU2mNA7x1QE0DgIgUAMCxsHlNuJ6eeHv9L+KBwJAUUDWhIDUYRbA/y8GTXoDboBAeAlI3z/ngiAAwvv+QmRlE5AkfBcAjiDfvxjKBocKIAAC5REQNL28Cu6X5u8a37/vMAPgfr/CYoUEWBH/s8KqrlVjHyAAXKMJQyCgH4FZe1+sTvQd77tnUnT67QMEgN89gPb7E3i2/xOfHo+fO83y/8vBp+DRLAiEnYA5yixb5HvBRJLt+/cdBIAXPQubFREQknz/QCjHewuF96gtMgiAQAgJOOK/dIjKdEY847cfEAB+9wDa30ag1yn4/oFQzphSvE9tkUEABEJIQFKZn29PGKzOdFu+XgZYRQUBoCgga0Hg2lVXqH/GetVvZyTRkX77gPZBAAQ8IiC0EABPexRdWWYhAMrChcLeExA6zAL8l0UWPhvedzZaAIGaErhgynz1h1+TymnUo7IQAB6BhdkgExCkwwejvqepcECQMcJ3EACBtxNwbEOH6X8iPb7nCEc5hJtOBHj6/VEd/BGOgWUAHToCPoCAiwQcIcr8XLvYeD9TDjk6zHRCAPTrEzzUgIBpyEc0cINIyGMINxAAgVARENL5qAYB2YUNI57QwA8IAB06AT5sJ9C18rmn+Nl6zr4mh+hYdkBwRgIBEAgBgS3X9xCHlROKN2Xlk9e9Yq3zxnZ5VrEEUB4vlPaYwHJabgsS//C4mWHNC6K9WxqS+GOgYUmhAAgEg4BdsLUQ9ZLEw7oQgwDQpSfgRz8CeiwDSEHH9XMKD0EABAJMQMpyP8/eBCsk/cUby+VbhQAonxlqeEyAFbIW5wFIQ48vDI9xwzwIRIXAx3QI1DRNzADo0BHwQU8CjuNo8QFhpf4ha7I1Sk9K8AoEQKBUAomm1oO4bCPnkpMXBXlpce01ndbzXtiuxCZmACqhhjqeEljSnf4XN7CKs99pzFq7cLzfTqB9EACB6ggIR5xcnQV3avMyhDq4ke5Yq94KBED1DGHBEwLyIU/MlmlUCPpsmVVQHARAQDMCUogyBYBHAQipzfq/ihACQFFA1o6AJOP/9HBKfNqabtXp4Qu8AAEQKJfAlsv/yiPKredFeYfkb72wW6lNCIBKyaGepwQMx3jQ0wZKN16/dp3z4dKLoyQIgIBOBJyCULN4vPxeulcelXzzrXGvYAbAI7gwGyICmW5rBUnK6xASf3N8Tgc/4AMIgED5BHj6X5fP74PLHl22ufwIvKuBGQDv2MJytQSE1GQZQH7GIitWbTioDwIgUFsC5zdaE7nF93MuI3lVVN7vleVK7RqVVkQ9EPCagCTxG6/bKNH+hJ4m5+MllkUxEAABTQiYonAGu6LFOCdN0uX7jJFsSVqA2eIK7kFgRwKGY/6K9xQ4+5+k/LL/TsADEACBcggIEmeVU16V9Sh3d6xMa/P7/2KMEABFEthqRyDTbb1G+lw3+6QLJlp7EW4gAAKBINDckHwfO3oQZ/+T1O/oX0GBAFAUkLUlIEjerYlzdXascKomvsANEACB4QgYVMGsHXlyk4ZQs5me2K7GKARANfRQ13MCtjTv8ryR0hvQ5guldJdREgSiR8CabI3iwe0LmkS+YcRbG+7VxJcd3GBGOzzHExDQisCSLuspdqiTswZJvHt2PKnFBUU0gAEXQEBbAmsd+xRJtHu5DnpSXtK9V6+5er0ntqs0CgFQJUBUrwUB8ctatFJKG/yBmV1KOZQBARDwj4Ag0udzaoif+0di6Jb5+2zoAngVBPwm4JB9q98+9Gv/i9+cbO3d7zkeggAIaEQgEU8eze68l3OZyZPim0aam3RaxtwhSAiAHXDgiY4EluQX/JH9ynHWIdVtdgpn6+AIfAABEBiIgGweaK9P++5f9OKi131qe9hmIQCGRYQCGhCQJGm5Bn5sdUGcq04y2voEGxAAAU0IzJ56aZyosn/+Iy9ugrSd/lfhQgAoCsj6EzBs4rBxAAAQAElEQVTMn2jk5Pgex5mhkT9wBQRAgAkYBec83uhy2e7N5mbzTvZH2wQBoG3XwLH+BLI56zF+/ixnLZIgeZFFFj4/WvQGnAABonlT541lDjM5V5DcryIl3XXNautV9y27ZxFfYO6xhCWPCQjSZxlAEk3viRc+63HIMA8CIFAigU2FkS1ctJ6zJkn+UBNHBnUDAmBQNHhBNwLCNn/EPknOeiRBSXaEdQnfI4EACPhGYMvRv6z45D8PHH954/iX7/HArqsmIQBcxQljXhJYvMr6Jwn6nZdtlGVbikNbmto+U1YdFAYBEHCdwCZ7hPrdvz5H/4JuWfboss2uB+qyQQgAl4HCnNcExHe8bqEc+1I6bVweswAMAQkE/CBw7jhrV5JCCYAKm3e/mmHQTe5bdd8iBID7TGHRQwL1wriNzb/GWZMk3oVZAE26Am5EksCIMXaCA9fonzrlY4tXpv7BPmmfIAC07yI42J+A1Wm9RSRuJo1uUsorZh4xc4RGLsEVEIgEgeYpl0wQki6sJli360ohfuC2Ta/sQQB4RRZ2vSMgnBu8M16R5QNGvzoBVwesCB0qgUDlBIQdu4xr78ZZl/TmKLNXqwOUocBAAAxFB69pSSCbS6vrAajLA2vjn5B06ZYzkbVxCY6AQKgJzIpb04nkV6sL0t3agugHOl/6d+doIQB2JoLngSAgSXRo5uhemwp1l9TUp4NWrCSH6v3NvV8nv28xY7y/DEZ9wG8EVLf+w74yiBl71JqBKe2ruU1drvrHrpBTkHKJehCUDAEQlJ6CnzsQ2D1v/IJ3dHLWJkmi2YnJ1uRaOSQscsTyF1/3N3dvrFW8g7UjfrTiDX8ZPLNuMN9qtV/cvGa9rwy4D2oVq2onEW89lgSdoB5Xk12ue/fSrvQLLtv01BwEgKd4YdwrAhZZBbat1SyAIBolHfta9gsJBEDAIwLWdKtO6DcDSCRklgJ2gwAIWIfB3e0E6kZv+h4/6+GsTRJEn0w0tuLiQNr0CBwJG4Ge9YV5kmh69XG5aUE+lc2lH3TTYi1sQQDUgjLa8ITAlc9f+aYgvS4M1BeoEEsvPOBCnc5M7nMLdyAQdAItDda+UoranmtTAjQpDHX0z7qkhMIaFTE08gWugED5BBxbLQP0ll/R0xoNvRtHtnvaAoyDQAQJSMO+TvBSmxuhu2ij2xmx9hYX7dXMFARAzVCjIS8IZLoXrGK7P+asW5o1O548Qjen4A8IBJVAoqntNPb9OM56JSEXLl2xdJNeTpXmDQRAaZxQSmMCtpRpdk+dFMgbbZJpkPyuOmFJG4/gCAgElMDcadZ4knKxe+67ZmlVvYipc5FcM1hLQxAAtaSNtjwhoH56I4XU8Opb4l096xzLk6BhFAQiRKCw2f4uhzues1aJF/2vtDrV5cm1cqtkZyAASkaFgjoTiBlSXRK0Vz8f5byWhuSH9fMLHoFAMAgk4smZ7OmJnF1Lbhjiwf8lw1n3HTds+WUDAsAv8mjXVQLXrFyQI0k6nohjkEE/mLWv9Q5XA4YxEIgAgUTcmsphqiv+8UavJIgWZbozvl8IqxoqEADV0ENdrQgUjL5zATZr5RQ7w0cKU8xNdoYfIoEACJRIwCIrRmQrUe/yT2pLdGDoYms2FMxlQxfR/1VDfxfhIQiURuBbufRKLqnnX3EK+kpzU9vn2D8kEACBEgj0xJ1WLvZ+zvolKS9bttraoJ9j5XkEAVAeL5TWnEBshJlkF9/grF0SUv4g0dR6kHaOwSEQ0IzA7Hjbx4ikEgCue1atQZ7Re66+Kxbotf8iAwiAIglsQ0Hg6hesl0nKKzUNZjeSdOvcCXN30dQ/uAUCvhOYM3F+o0Hyf9kRk7N2SQp5AS9P6Paz44o4QQBUhA2VdCYg5PrFPNDm9fRRHFIYNSoURw968oVXQSYw84iZI2TMVIP/Xt7EUZ1VPvp/cEku/avqrOhTGwJAn76AJy4R6DszVwgtpw/7QpTi1JbG5Ll9j3EHAiCwjcDoVydkJcmjtu3Q64EjhDlXL5eq8wYCoDp+qK0pgfq88SMi8QhpepOCFieaknqe4KQpM7gVbgKJeNsZQpKnwrhKgjdlc9ZjVdrQqjoEgFbdAWfcIsBrdI6Qcg7b41k7vtcvjeRlitvPb2qdop9r8AgEakuAZ8Q+SCR1XhpbL5y+XyXUFozHrUEAeAwY5v0jkOlK/Z5b1/ASwezVljTelOJX34hftPuWp7gHgegRSMStqdKg2zjykZw9TFWYFmRt/eOxKozoVxUCQL8+gUcuEthsF9QswKsumnTVlCA6cCTV3T5r31n6fvm5GjGMgcB2AudNunhPEvY9PBs2bvte7R49uWGvNR3aeeWCQxAALkCECX0JXLvqiv9IIS7S10PlmfyQ2Vv/bfUIGQSiQkD9U2bMjC3nwX//WsRcYRsOCTp72aPLtLvCaIXx7FANAmAHHHgSRgIdufbvc1xqOYA32qYvJ+Ktl2rrHRwDARcJWGQZPesKNwmij7po1nVTUtC3s7nUn103rIlBCABNOgJueEqAP8f0DW5Bw38LZK+2JWE1N7V+c9tTPACBcBIQPXHnOiLxBarZrfyGJNFLQpjzy68ZnBoQAMHpK3haBYFMPvU0qwAt/1Wsf1hCikXN8bav99+HxyAQJgLNTW3XEMmzdY+JB8fmbKfVo7uf1fjHMVZTHXVBIDgEnBE97eztk5x1TkKQ/HZLU/JLOjsJ30CgEgKJeJslpGyppG41dcqty0sTd/FBw63l1gtaeQiAoPUY/K2YwNIVSzeRYZ7JBjRfCiBDSrqJZwJmsK9IIBAKAs3x5Gw+8r80AMG8GjPMSMzCQQAE4N0IF90jwFN6j5OUaibAPaPeWDIFyZtbGts+7Y15WAWB2hFoaWxt4aPqbO1a7N9SmY+l/PpVndZLZdYKZHEIgEB2G5yuhkB9V2yRlOLhamzUqO5IKeRtLfG2s2rUHpoBAdcJNMdb50khFrNh1gB8r3f6brYrfbveLrrnHQSAeyxhKSAELLIKDjmns7vrOOueTEnyB81NyfN1dxT+gcBOBESiMXmVILFwp/01fVpqY4JoZd3oTerCYaVWCXw5CIDAdyECqITA0q70C1LQxZXU9aGOEJKWJOLJhA9to0kQKJsAi2yjOZ68jgTNLbuyPxVsSXTGlc9f+aY/zfvTKgSAP9zRqgYEOnKpa6WkX2jgSiku8AEKZfhLta2UwigDAn4RmHnEzBGvx+0b+Q17jl8+bG+3xEdCLMzmU38ssXRoikEAhKYrEUgFBKQwza/wF9XKCur6UoV9vYxnAn6gLqPqiwNoFASGIHDhARfuNvrVCXfy0bRaYhuipFYv/bl+FyMIJwa7Dg0CwHWkMBgkAtlOq8eRpK5IpvtPA/tj/XLPOvuexGSrvv9OPAYBPwmov7bu3TjyL7xc9Qk//ejfdgmP1wjHmWE9YwXp819CWKUVgQAojRNKhZhAR1fqbxzePM5BSseQY/91dkPrfkFyGr6Gk0BzQ/J9MSnUNfMPClCENpE8PYx/81tqH0AAlEoK5UJNgNf/OgJ0PkCxL/YzDPGHOZPnH1ncgS0I1JqAumCVMOhBbncCZ43SsK5cks2n7x+2VIgLQACEuHMRWlkE5Mgxm87iI4Knyqrlf+HxjmM81BJvbfbfFXgQJQIzaIaZUJf2Jfm/HPdozkFKd7LovypIDnvhKwSAF1RhM5AE1E+ACoJOYudf5RykNFKSyCbirbfMnTB3lyA5Dl+DSWDW3hePmxQ/8F4ieSlHoOU4wn4NllaMjPWqS4LLwQpEZX/QOi4q/YI4fSLwrVx6pZDyNG6e1wf5PlBJnFYYNepPOC8gUJ0WOGdnx+d/wKyLPc6OH8s5aOlN4dBnF7246PWgOe6FvxAAXlCFTd8JtDS0fqIl3nZiJY5kutK/IUkXVlLX9zpSHGoY4m8tTW0n++4LHAgbAXVlvzkGGQ9wYBM5a5wGdK1AQnwh0516csBXI7gTAiCCnR72kFsaW493DPELSfKmRNyaWkm82a7UYiJ5YyV1NagzVkr580Q8+Z1zx1m7auAPXAg4gfMbrYn8frqXBF3DoYzgHLwk5exsrv2e4DnunccQAN6xhWUfCPQN/kLcIYhGcfP1JO2ftzS0VHSC0oZxL6u/BL2P7QQ1fa1utP1kc+P8DwU1APjtP4HmprbPxYT9BHtyPOdApLc5KWhxtit9/dv2R3wHBEDE3wBhCn+nwX9LaIIOk8ZumS1Pyrtf9uiyzXadeQovB/yjvJpalZ4shPFAIt62EFcP1KpftHdm1r7WO/io/wYh5c/Y2T05BzXdvSr3XDCX9DwmDgHgMWCYrw2BAQf/bU3Ls1sq/EvdpSusN2zH/BSb6uYc1GTycsa8nnWFP89pSh4e1CDgd+0IqHNozN6+o/6ZtWvVrZb62xGPbCiYn19OywN4Um//OLx5DAHgDVdYrSEB9WXlbJ/2H7BlSfLaOVOShw344jA7l66yuh1pnsDFAn7msHi3I+mviabkNfi5IPcm0tsIfHOytXdzU/In0hBqrbzpbQUCtEMQrSRROGnZamtDgNyuqasQADXFjcbcJtB35G+IX/CHXa35D2V+F8emO+ZOs8YPVWiw15Z0WU8ZQqgz6zcNViYg+2MkaU6hbvQzPCtS0a8kAhIn3CyDgPr73pbG5DmbHftZIemLZVTVruhWh1YXpDwum7v831ufYzMAAQiAAaBgVzAItKiz/YUonvBXitNN9mbnF7P2nTWylMI7l1mca39QSvl53r+Zc7CToDjPityZaEzeNmfi/MZgBwPvqyGQmGy9qydu/0EKup7t1HMOenrVJvO4pV3pF4IeiNf+QwB4TRj2PSFQweDf5wcPekeZvWNv6HtSwV1HV/pOElIdIRUqqK5fFUGfdWLGipZ4smPe1Hlj9XMQHnlFYOtP+24gx36E23g/5xAkekNI54SleeuZMATjdQwQAF4Thn3XCVQ6+G93RJzFR75ztj8v71E2l/65JPoq13I4hyHVcTyzNxXqXmiJtzbzdHAsDEEhhoEJzJxojWmOt86LCfs5LqFO8jN5G4a0QUrnxEzXAiVowhCP5zFAAHiOGA24SaCUE/5Kak/QlfwlqM7uL6n4zoU68qmbeK30PN7PYyffhyPtKUlkX4/b/6iGTThQhC8KJeyam9q+OiZmrxAkFnKEu3EOS9pEJD/d0bXgd2EJqBZxQADUgjLacIVA35F/aSf8ldKeyV+Ct85umn9UKYUHKpPpSn2b96uZBMnb0CQOZjqz+WUinvxry5bLKYvQBBfBQGYeMXNEoin5FV7nf05I+V1GsA/nMKVNgsSMqP+1byUdCgFQCTXUqTmBvsG/vBP+SvFxtCGNO5untB5QSuGBymTzqSzvP4dzWJYDOJRt6b2S5J2JptbHm+NtM3iv4IwUEAJq4G+OJ88c88qEp0nS99jtaZzDlnjaX3w6k2//JVHYQvM+HggA7xmjhSoJFFObrwAAEABJREFUeDT4F73a07DFPd+cbO1d3FHulkXAMkHiK1wvnBcbkeJQQfLWRGPy74nGtlPVwMKxImlKQP3/Q3NT8vwxL0/gqX66kd3cj3MY0xu85n9CR1f7r8MYXC1iggCoBWW0UTGBlvJ/6ld2WzzlPWWzY/+mmrPg+QjkRkH0JW48+D8R5CAGTIIOIyF/PPqVCflEvM26YKK114DlsNMXAuc3tU7hfllYN9rOCUlLSVDcF0dq02iPYTgf77/mX5tmw9UKBEC4+jNU0bh2wl9pVN7ZW6i7zZpsDXdBoUGtZfKpW6WUp3CBTZxDm1jo8GyJvNSO2SwEkt+Z3WgdEtpgAxCY+rMnnp25LSbFv4jkPHZ5D85hTmukY354ceeCh8McZC1igwCoBWW0UTaB5sa2jzvunfBXUvs8E/CxHse+o9ILBalGOrZcJ+CT/Djglw3mCIZP6l8Wv2YI+8lEPPknzjOrmUUZvjmUKBLY+hv+C5n5M0IY/0eCPsuvheXnfBzKIElSXprywx3dlvp3wn6F8LASAhAAlVBDHU8JqMGfp5pv5yPNio/Gq3DweGNT/U8ssir+LXw2l36AfT+a+MuqCj+CVlVdSOaGTYW6NYl4660t8bYTq2EYtOBr4a8SpoprgvnGhJ3jNhdxPohzNJKQT9iOeXTHyvTz0QjY+ygN75tACyBQOgGfB/8+R4Wgk3vi9k9m0IyKj6h4OeBpw3Y+QCSf6jManbuRRGKG+vUAM1zZEk92tDQkPzyjCpYU4ZvFS1LNja0n8aD/w1hv/b8VV2K+RFSxQOW6wUuS7undEDta/THXQM5jX2UEjMqqoRYIuE9Ah8G/X1SnTIof8D2LrIo/I4tXL+iqG92rrjMQ1bOUG3hZZbY06KFJ8QPVzMBNLWpmYLpV148zHu5EoKWhZbTilIi33tTj2GuEEHcQibOY5e4UxZuk728Yv+bT171irYti+F7GXPGXm5dOwXb0CGg2+G/tAHHW63H7RhYBFR9tXfn8lW/adT2fJpI3bzUa1c2eROIMdQTbs85+NRFP3pGIt866YLJ1IEX8xu8vo6Vx/nuYx8WJePK30th1reJEzIuI3sE5qok1j7wk25X66rJHlw3x65qo4qk+bgiA6hnCQpUE9Bz8twTF30Cnr22yb555xMwRW/aUf790xdJN2Xz6TCHkXK4dzmsFcGBlpN247ElEYont2M/yoJdvbmr9fnM8eXpLg7Uvhfw2g5dDWhqS72yOt56d4PX8nrj9shTG34jE5UR0DOeRnKOe1AV+TuXPzRVRB+Fl/BAAXtKF7WEJ6Dz4F50Xkr445pUJt6mTsIr7KtlmculrpBT/LYjWVlI/xHUahRT/w1xulob9r0RT8uWWePKXicbW+bPjbR8L+i8LmqdcMqGFlz4STW3pBB/h83LIWl4WeUKQ+DZtWc/n2RHCbTuBFw2Tjuroav/p9l2DP8IrlROAAKicHWpWSSAIg3+/EE80N9X/Qq3P9ttX9kP+Uvu17cj3ccVnOSMNREDSOJ55+RQJkTZI3r+pUNfDA6e65sC9/J65mgXCV1oa5v+XbsJg1t4Xj+Mj+w+zcPlGc1Py2uZ48gH2+xVhmy/1TelLOZ/DVUf4agaEHyINQODXwjHfu3hl6h8DvIZdLhOAAHAZKMyVRqClofUTPv7UrzQndy4l6AQydv3lhQdcWNUX+JLu9L/sOvNINn8HZ6TSCDRysY/zMsoFJOl70jD+slUYrE00tf6DB9o7E/G2JYmm5NxEY9upLBQ+3tyYfG8ibk2tUiiI8yZdvOfshtb95kyef+TsptZP8sB+ektj8hJu8wYe6O9piSef5sfrzbrYy3xk/xALl+uEpHMF0UfZZ1wtkSGUkKQkWrgq/9x/Z7qt10oov7UINtUQgACohh7qVkRAfTk7Nb7IT0WODlCJv6Q+1rtx5B/5CHTSAC+XvGvpCuuNbD51spBS/Ztgb8kVUXBnAvUkxaG880QiOYskXcXC8scsFO4Vgv5KZL+wVSgUeKB+jQfq1Zxf6MtbhMMj/LiYn+LHW16LJ9dsLe+MMGOvGob4p+MYfzakuJsH9puloAXc5kwe6D/B74np/HgMZ6TKCLwphZjRkU9dvJyW4xyZyhhWVAsCoCJsqFQpATX48xe0Xxf5qdTtneu9UxrGH6r5F8GtBmWmK50R0jman7/IGck7AiYP1OpndOqvcKdyM1Npi3A4gh8X88H8eMtrROO3luddSB4SeNSwzfd05Npvq6QN1KmOAARAdfxQuwwCIRn8ixFPFrZQl79Vg3dxX0XbTNeCR3hJ4HA+gl1ekQFUAoHgEZA8k7KkflfzqMWrrH8Gz/1weAwBEI5+1D6KQK75D091Dy7ym+Z466d4W1XasiSQ/oIgmWBDGzkjgUBYCayRUpyQyaearWesKpa/woqndnFBANSOdWRbUkf+TkDX/EvotDGCxO0sAuaVUHa4IjKTT3fwEomakv7bcIXxOggEkMD9JOzD1a9hAuh76FyGAAhdl+oVkBr8eUAL+pr/cFBNFgELmxuTP7ImW1X/gVE2l362Pm8eJYku5YZxBTSGgBR4Auv4e+D8bD51fDZ3+b/diAY2qicAAVA9Q1gYhEBEBv9t0QtBX3rdcX7bPOWSCdt2VvjAIqvQkU+1C4d4NkA+XqEZVAMBDQiI3wnHPJyF7bXsjOSMpAkBCABNOiKMbgghDxNEVR8RB4mNJHmUsM2/zJmSPMwNvzPdqSfrjdj7icQiIsJsAENACgyBHhL01Wy+/SOZbmuFu17DmhsEIADcoAgbAxLI5lNXEslLBnwx3DubHJv+mGhqO82NMK1O661svv0iNRsgSPzJDZuwAQJeEuDD/F8ZBefQbC71fW6Hn/I9knYEIAC06xJ9HGqOtx2XaExexR4JzhWlvj/zEPTNiioHu9IuJOUtiXjrTdVePriIQc0GjM0bH+TnZ3OH4P8EGASSZgQk5aUQp/Dy1X+rv8P2yjvYdYcABIA7HENnRQ3+guQdPIU3NxFPfpsD5DGH7ytIfBRwNduJoghgWuIMaezyB3VJWn5SdbLIcrL51DJyzH3Z2DLOOLpiCEi+E9jMXxBLet8yD8ZFfXzvi5IdgAAoGVV0Cm4b/IlGb416JkTAVhIVbcS7iey/Nze1fa6i6gNU4jXV11gInG0I8TFWAH8foAh2gUCtCNxtS3mQ+l3/da9Y67xvFC24RQACwC2SIbEzwOBfjMwdERDNcwIUw3cI6eyvHriZF+faH9w9b76HJP0P213FGQkEakXgX5LkiSxEP7W0K/1CrRpFO+4RgABwj2XgLQ0x+BdjYxHQdj0/4dk+vq8gRfWcACko2Rd7BcyGq9K3LNCV+uGGgrk/fyFfxOXf4IwEAt4QEPSKep/ZdT3v7Min7/KmkcGt4hX3CEAAuMcy0JZKGPy3xifPTsSrFAG5VKTOCVCDf0culd4K0LPNstXWBv5CXlSQ5kFCyu9xQwXOSCDgFoHXhaT5sbc2TlHvs6Urlm5yyzDs+EMAAsAf7lq1WvrgX3Rbnt0ST2b5WeUzARERAbUa/LkvtqVvdVmrM13pr5Fh7sc71YmCEAIMAqliAup6/ctiI8z9M12py69ec/X6ii1VXREG3CQAAeAmzQDaKn/w3xKkJJqdwEzAFhiD3Psx+Pd3JdtpdfL67NkQAv2p4HEZBNazwl9i2+Y09T66+gXr5TLqomgACEAABKCTvHKx0sF/uz8SywHbYezwyO/Bv78zRSHgOHI6kbyZX8OMAENAGpTA6/z+vdzuLUxRZ/YvXWV1D1qyxi+gOXcJQAC4yzMw1qof/IuhQgQUSRS3/OWZrMWaf7G9UrdLutP/yubTZ5Kw40TiMj66w8WECLd+BF4lfl9sos1T+P07f+lLV7xCuIWaAARAqLt34ODcG/yL9iECtpEQpOXgX/RPbdW/sWXz7VahzpwshJzL+3KckaJL4EkO/ewNBbNJvS+uzy/UVBiyl0iuEoAAcBWn/sbcH/yLMUME6HrkX+yhnbdLV1hvZHLpa+rz5r5Sii9yfnjnMngeWgIFngG6jQz50Ww+dSjnZepXJKGNFoENSAACYEAs4dzp3eBf5BVdERC0wb/YY2prkVXo6Gr/Kef3C4cOJRJLeXDAUSCF8vYykbjCKDhTeX3/lGxn+iEKyA1uuk8AAsB9plpa9H7wL4YdPREQ5MG/2GvFrfrDoWy+fXahrmcfSeLzvP9+zpIzUnAJ2Oz6/ZL7c8O4NQ3cv5fgj3qYCBJBAETgTVC7wb8IMzoiIEyDf7H31FZd5KUj3748m08dZxrmdBJiAe/H5V4ZQnCSfFyQTNi9hX1UP6r+XPboss3B8b+/p3jsBQEIAC+oamSz9oN/Mfjwi4CwDv7FHixur+m0nsvm2lt5ENlXOM77pBAZfg3/O8AQNEzPS0GXGya9K5tPH57JpztwNr+GvaSJSxAAmnSEF274N/gXowmvCOAvWe3P9i/2gpvbTPeCv3bk2ufU5824cOgjzOE6tt/FGck/Ak8SScuR5jtZpB3YkUvNX7wy9Q//3HG/ZVj0hgAEgDdcfbfq/+BfRBA+EcCDXiQH/2KPqq1FlpPpTv0fDzbn8aATJ8M8nKRsJUF/4dcdzkjeEeiVRA9KkhcZtnkA8z+Uj/YvW9JlPeVdk7AcRgIQACHsVX0G/yLc8IgADP7FPt1xm+20Hs92pRdkc6kjYyPMfdTfEzOr/+WB6qUdS+JZhQReYJ7XSSk/3bvR3LMjnzqmI59etHiV9c8K7QWoGlz1igAEgFdkfbI7O972MUHyDm5+NGeNkgz8HwjJAFzkR4cOV9eMz3alftiRS53KA9U+pmEeJCR9g/lBEJTeQf8ikjdKEjOFY+7HR/n7Ms/zOrrSd173irWudDMoCQKDE4AAGJxNIF8ZYdorBJGWR10ywH8gxINX5Kf9K/1AqJMIM12pb/MAtk0QqBkCkuLarUsGkf5bWf5cvCWleJhZLBZCfFaa9t484O/P0/pf7si3fyfTba2olH0Y6iEG7whAAHjH1hfL16xckDNM56MsAlb64sCwjcqzg/Yvghj8h+3UsgooQaBmCLJd7eerJYMN49bsRsI8gte0z+HZq+8IEn8SROG8EJEgdX39+wSJq4Sg0wTRIbvnzd3URZiYxQWZXPsvOlZevqYsoCgMAhUSgACoEJzO1SAC3OsdDP7usRzMkvptejZnPcZr2jdk8umZmXz70Zl8ag91JGwIcQxJeS4vIXyL6/+Gj5af4+1Gzjqn9STpHzy438b+LpRCfE39YmKEYe6TzaXG89H98Zl8+4WZXOrHmXzqaYusgs7B+OsbWveSAASAl3R9tA0RUD18iTX/6iFWYUEdCS/OtT+Y7Upfz0sIs3jg/HhHPnUQb8fYvYXxxLMGLA5O5kG2mUgsElJ+jwTdTiR+R0RPc/43Z7eWF15nW908qD/DbahfOtzJ7X6b86X8/Os8e3GiIejdfYN8PqUjXCMAABAASURBVLVrtiv1Lh7cT2F/L+7ItX9P/WLiqk5Ly6U5jgspogQgAELc8RABlXcuBv/K2dWiprq4TZZnDVgc3M6D7JJsvv2iTFf6a3yEfTI//nA2nzqE80TOo+y6nlGbaPMefaKBzGm2lPs6RO8ZLKuT7ojLGQUnPjLWW882BGe1beRB/WBu40h+/mlu9xuc2/n5d3n24q7FudTfMci72/uw5i0Bw1vzsO43AYiA8nsAg3/5zHSuoS5rfH1+4do+0ZC3XlzalX5hST716GBZnXSX5XLqevmLXlykjvx1Dg++gUDFBCAAKkYXnIoQAaX3FQb/0lmhJAh4SwDWvSYAAeA1YU3sQwQM3xEY/IdnhBIgAALhIQABEKC+TDS1HjOrsXVapS5DBAxODoP/4GzwCgj4QQBtek8AAsB7xq60oC7vS1LcZQrxUEuDtW+lRiEC3k4Og//bmWAPCIBA+AlAAASgj9XgL7Zf3rdBGvaDEAFDd1w2l7qaBH1z6FLEmopwhb/hIOF1EKg5ATRYCwIQALWgXEUbOw3+RUsQAUUSQ2yHEwE48h8CHl4CARAIPQEIAI27eJDBv+gxRECRxBDbwUQABv8hoOElEPCZAJqvDQEIgNpwLruVYQb/oj2IgCKJIbY7iwAM/kPAwksgAAKRIQABoGFXlzj4Fz2HCCiSGGKrRICQNF/ljlwqPURRvAQCIOArATReKwIQALUiXWI7ZQ7+RasQAUUSQ2wzXanLVR6iCF4CARAAgcgQgADQqKsrHPyLEUAEFElgCwIgEFgCcLx2BCAAasd6yJaqHPyLtiECiiSwBQEQAAEQGJIABMCQeGrzokuDf9FZiIAiCWxBAAQCRgDu1pIABEAtaQ/QlsuDf7EFiIAiCWxBAARAAAQGJAABMCCW2uz0aPAvOg8RUCSBLQiAQCAIwMnaEoAAqC3vba15PPgX24EIKJLAFgRAAARAYAcCEAA74KjNkxoN/sVgIAKKJLAFARDQmABcqzUBCIAaE6/x4F+MzhURUJDyODbYxVnDJM9uiSez7JjgjAQCIAACIDAMAQiAYQC5+bJPg38xhKpFwNKu9Aum6XyQDXZy1i5JotmJeNv17BhEAENAAoEgEYCvtScAAVAj5j4P/sUoqxYB16xckGMR8BE2qKUIIJJnQwRw7yCBAAiAwDAEIACGAeTGy5oM/sVQIAKKJLAFARDQhADc8IMABIDH1DUb/IvRQgQUSWALAiAAAhElAAHgYcdrOvgXI4YIKJLAFgRAwFcCaNwfAhAAHnHXfPAvRu2KCLClPJYNavvrgOamtmvYPyQQAAEQAIF+BCAA+sFw62FABv9iuFWLAM1/HWAbJB8pBostCICAbgTgj18EIABcJh+wwb8YfdUiQNNfB9hC0JmZXOrHxUCxBQEQAAEQ2EIAAmALB1fuAzr4F2MPmwjA4F/sWWxBQGMCcM0/AhAALrEP+OBfpBAWEYDBv9ij2IIACIDAIAQgAAYBU87ukAz+xZCDLgIw+Bd7ElsQ0J4AHPSTAARAlfRDNvgXaQRVBGDwL/YgtiAAAiAwDAEIgGEADfVySAf/YshBEwEY/Is9hy0IBIQA3PSXAARAhfxDPvgXqQRFBGDwL/YYtiAAAiBQIgEIgBJB9S8WkcG/GLLuIgCDf7GnsAWBQBGAs34TgAAoswciNvgX6egqAjD4F3sIWxAAARAokwAEQBnAIjr4FwnpJgIw+Bd7BlsQCCABuOw/AQiAEvsgKIO/IFrL+S4O6ybOv+G8gbNbSYmAB2Y1tk6r1KBLVwzE4F9pB6AeCIAACGwlAAGwFcRQm4AM/m9KkuesH7dmQiafOjGbT53F+eOxTRvHk5StHN9mzm6kRlOIB30UARj83ehF2AABXwmgcR0IQAAM0wtBGPwl0UuONI/qyKdvWPbosh0G+qvXXL0+25VeQCQ/yaH2cnYj+SUCMPi70XuwAQIgAAJMAAKAIQyWgjL4CyGPWdJlPTVYHGp/Np++n5cGLlWPXcq1FgEY/F3qOJgBAb8JoH09CEAADNIPQRr8s7n0s4OEseNuZ10H73iDs1upViIAg79bPQY7IAACILCVAATAVhD9N6Ec/DnATHdmI2/+j7ObyWsRgMHfzd6CLRDwnQAc0IUABMBOPRHWwX97mGL19seuPfJKBGDwd62LYAgEQAAEdiQAAdCPR/gHfxWss4e69yC7LQIw+HvQSTAJAn4TQPv6EIAA2NoXURj8LbK4v8UHtobsxcYVEWBLeSxJeUoml/qxF07CJgiAAAiAABEPCMAQhcFf9XJPk3Mqb/fh7GWqWgQs7Uq/kO1K3+6lk7ANAiDgBwG0qROByAuAqAz+5ze1TuGj6myN3nxVi4Aa+YlmQAAEQCCyBCItAIIw+PM782XupGNL/qkfV9g5zZk4vzEmxX28fy/OtUpKBDzU0mDtW6sG0Q4IgIDeBOCdXgR4bNHLoVp5E5TBXxAdk8mnnq6Uixr8nZjxINev+Pr9XLfSpP474EGIgErxoR4IgAAIeEcgkgIAg793b6gBLEMEDAAFu0AgegQQsW4EIicAMPj78haECPAFOxoFARAAgcEJREoAYPAf/I1Qg1cgAmoAGU2AgK4E4Jd+BCIjADD4a/HmgwjQohvgBAiAAAhQNK4DEITBX/2lLwn5kWpO+Js99dK4EzMe4je2Hyf8cbMlpb2lKBxSUkkUAgEQCAkBhKEjAUNHp9z0KQiDP8fryk/9jILzANuaylnXpC7vexYu8qNr98AvEACBKBEItQAIyOC/RgT7p36lfl7U4H9mBpf3LZUXyoFAaAggED0JhFYABGjw/1g10/4+/86/1Hc1Bv9SSaEcCIAACNSIQCgFAAb/Gr17SmsGg39pnFAKBEJKAGHpSiB0AgCDv1ZvNQz+WnUHnAEBEACB7QRCJQAw+G/vWA0eYfDXoBPgAgj4TQDt60sgNAIAg79WbzIM/lp1B5wBARAAgbcTCIUAwOD/9o71cQ8Gfx/ho2kQ0IsAvNGZQOAFAAZ/rd5eGPy16g44AwIgAAKDEwi0AMDgP3jH+vAKBn8foKNJENCZAHzTm0BgBQAGf63eWBj8teoOOAMCIAACwxMIpADA4D98x9awBAb/GsJGUyAQHALwVHcCgRQARM67Gexozlom9cc+pmFG4Y99CoLoS7i8r5ZvQzgFAiAAAkMSCKQA6MinF0khLxwyMv9eXMNQj72m03quUhfU5X2D8sc+mXzq1krjRD0QAIHwEkBk+hPgsUp/JwfysCOXvkpDEaD+2AfX9h+ow7APBEAABEBAKwKBFQCKomYiAIO/6hRkEAABECAgCAKBQAsABVgTEYDBX3UGMgiAAAiAQGAIBF4AKNI+iwAM/qoTkEEABEBgKwFsgkEgFAJAoVYigKRsVY9rmF8jIT+ayaeerrTN2VMvjTsx4yGuP42zrgln++vaM/ALBEAABCokYFRYT8tq2a70glqKACHFV7K59LOVwlCDv1FwHuT6UznrmtTgfxqLHJztr2sPwS8Q0IoAnAkKgVAJAAW9diJAPpbpar9DtVlJxuBfCTXUAQEQAAEQcIuAdgKgecolExJNbWkOUHCuKNVCBPDR/68qco4rYfBnCEggAAKhJICggkNAOwEgbGMRT+PPT8TbrmeM2ooAR8hu9q/sFJTBX5L4Eqb9y+5eVAABEACBwBDQSgDMmTz/SCJxJvXd5NksAjL8UE8RIOgd7FtZKUiDf0e+fXlZwaEwCIAACBAQBImAVgLAcYx2htdvwJfNLAK0nAngJYAPsK8lJwz+JaNCQRAAARAAgRoQ0EYAtDTM/y+O9zjOO6W+mQAdRcAJLQ3Wvjs5O+BTDP4DYsFOEACBkBFAOMEioI0AIMMY4s99+kSAbssBIxzh3GxNtkYN1eUY/Ieig9dAAARAAAT8IqCFAJg7zRoviU4aGoJ+ywFCyCN7HPuBRNwa8Hf8s+NtHzMKzsMc14Cv834dUkGS+BLW/HXoCvgAAkEmAN+DRkALAVDotU9ncCM4D5P6ZgJ0Ww54P5H9bEs8+bOWeGtzczx5Zktj8pJEvO33Bsn7OaB9OOuaMPjr2jPwCwRAAAQ8JqCFACAhTi09zj4RUPVygMt/JVwniT4nSWQF0Y1S0AIiWdZJgqXH71pJWwg6C0f+rvGEIRCINAEEHzwCvguAWXtfPI4Hy3eXh6765QD13wEui4DyQvC3tBr8z8zkUj/21w20DgIgAAIg4BcB3wWAURc7gYOvwI++mYCqlgMiKgIw+PMbDgkEQMBNArAVRAIVDLzuhikkfbhyi30ioKrlgIiJAAz+lb/ZUBMEQAAEQkXAdwFAhnxPdUSxHFAiPwz+JYJCMRAAgfIIoHQwCfgqAPp+Qy/FQdWj65sJwHLA4CAx+A/OBq+AAAiAQCQJ+CoAXnfsaUy9hJ//calhE0TAIIgw+A8CBrtBAATcIAAbQSXgqwBwpGhwFxxEwE48MfjvBARPQQAEQAAEthDwVQAIQ07a4oab930iACcGEmHwd/NtBVsgAAIDEsDO4BLwVwCQ3N0bdJE/MRCDvzdvLFgFARAAgdAQ8FUAkCNGekeybyYgiicG2kIQLvLj3RsLlkEABLYRwIMgE/BVAEgh6ryF1ycCorQcgMHf2zcUrIMACIBAaAj4KgCElL3ek4zMcgAGf+/fTGgBBECgHwE8DDYBXwWAY9AbtcHXNxMQ5uUADP61eSOhFRAAARAIDQFfBQBJ6qGa3fpEQBiXAzD41+w9hIZAAAS2E8CjoBPwVQCYQqyqLcDQLQdg8K/tGwitgQAIgEBoCPgqAAqmeKH2JPtmAsKwHIDBv/ZvHrQIAiCwlQA2wSfgqwDY40XRLYneqj3GPhEQ5OUADP61f9OgRRAAARAIFQFfBYBFlmOQeMwfooFdDsDg788bBq2CAAhsI4AHYSBg+B2EI+nP/vnQNxMQpOUADP7+vVnQMgiAAAiEioDvAsAw6I/+Eu0TAUFYDsDg7+8bBa2DAAhsJYBNOAj4LgA2bTDu8+c8gP4dqP1yAAb//t2FxyAAAiAAAlUT8F0AXPeKtU4Q/bbqSKo20DcToONyAAb/qvsWBkAABNwjAEthIeC7AOgDKelnfVvf7/pEgE7LARj8fX9PwAEQAAEQCCcBLQSAkOt+ynhf46xB0mY5AIO/Bu8GuAACILAjATwLDwEtBECmO7ORkd7EWZPUNxPg53IABn9N3glwAwRAAATCSkALAaDg2lJ+i7cFzpqkPhHgx3IABn9N3gFwAwRAYGcCeB4mAtoIgKVd6ReElDfqBbfmywEY/PV6A8AbEAABEAgtAW0EgCJsxGSKt5s4a5RqNhOAwV+jXocrIAACbyeAPeEioJUAuGblgpyQdJV+iD2fCcDgr1+nwyMQAAEQCDUBrQSAIl0Y2ZPm7bOcNUt9MwFenBiIwV+znoY7IAACAxHAvrAR0E4ALF2xdJOUzjkM2uasWeoTAW6eGIjBX7MehjtrnGwGAAAE6UlEQVQgAAIgEBUC2gkABb6ja8HvpCCLtLy5sxxAJC+RJE7N5FI/1jJMOAUCIAAC/QjgYfgIaCkAFObdc+blJOke9Vi/XP1MQDafvqIj375cv9jgEQiAAAiAQBQIaCsALLIce6T5RUn0dz07ovqZAD3jglcgAAIgsDMBPA8jAW0FgIK9dIX1htNb+DgJ+qd6rl/umwmo6sRA/WKCRyAAAiAAAlEgoLUAUB2w9KUrXiFpnsCPX+SsYeoTAVWdGKhhUHAJBEAABLYRwINwEtBeACjs2bz14gjDPJpIPq6e65exHKBfn8AjEAABEACBoQgEQgCoAK7qtF4iI/ZRfvxrzhomzARo2ClwCQRAoGoCMBBWAoERAKoDsp1WTzafOkGSvIif63idgOZEvA3nBHDnIIEACIAACOhNIFACYCtK2ZFPLyJDHsvP/8VZs6RmApILNXMK7oAACIBARQRQKbwEgigA+noj25l+qN4wDyUhFvCOXs56JEk/J8NUswB6+AMvQAAEQAAEQGAAAoEVACoWq9N6K5trby0IeSA//yFnP5cF/uiQODbblfocL1V0si9IIAACIBBwAnA/zAQCLQCKHfOtXHplNp/6H2nKg6Wg63j/G5xrkRxSVys05Ee5/Q8sybf/thaNog0QAAEQAAEQqJZAKARAEULHyvTzHbnUeXWjNzVIEjN5/32cN3N2Oz1NUrYaBWcyH/F/Ui1HuN0A7IEACICA3wTQfrgJhEoAFLvqyuevfLMj3/4dPio/ntfjx0spvkgklnJ+hIgKnMtJDhd+noT8iSR5jmnyoJ9PHZLtSi9YvHpBF7+GBAIgAAIgAAKBIxBKAdC/F3g9vqejq/2n2Xz7bM7v3TBuzRjhmPsJR55Agr4uhJxLJC7jvIhIWpLkRULSeYLESSweDu/daI7N5lMHZnPpL3Xk0zdcs3JBjnADARAAgdATQIBhJxB6AbBzBy57dNnmTLe1ItOdvjebS303k0tfk823W5wvyubTl/EgvyjTlbouk2//JYuHx697xVq3sw08BwEQAAEQAIGgE4icAAh6h8F/EAABEKgFAbQRfgIQAOHvY0QIAiAAAiAAAm8jAAHwNiTYAQIgAAJRJ4D4o0AAAiAKvYwYQQAEQAAEQGAnAhAAOwHBUxAAARCIOgHEHw0CEADR6GdECQIgAAIgAAI7EIAA2AEHnoAACIBA1Akg/qgQgACISk8jThAAARAAARDoRwACoB8MPAQBEACBqBNA/NEhAAEQnb5GpCAAAiAAAiCwjQAEwDYUeAACIAACUSeA+KNEAAIgSr2NWEEABEAABEBgKwEIgK0gsAEBEACBqBNA/NEiAAEQrf5GtCAAAiAAAiDQRwACoA8D7kAABEAg6gQQf9QIQABErccRLwiAAAiAAAgwAQgAhoAEAiAAAlEngPijRwACIHp9johBAARAAARAgCAA8CYAARAAgcgTAIAoEoAAiGKvI2YQAAEQAIHIE4AAiPxbAABAAASiTgDxR5MABEA0+x1RgwAIgAAIRJwABEDE3wAIHwRAIOoEEH9UCUAARLXnETcIgAAIgECkCUAARLr7ETwIgEDUCSD+6BKAAIhu3yNyEAABEACBCBOAAIhw5yN0EACBqBNA/FEmAAEQ5d5H7CAAAiAAApElAAEQ2a5H4CAAAlEngPijTeD/AQAA///hwobsAAAABklEQVQDAMks+NI4yK0rAAAAAElFTkSuQmCC;fontStyle=0;fontSize=14;" vertex="1" parent="1">
          <mxGeometry x="1754" y="573.65" width="70" height="70" as="geometry" />
        </mxCell>
        <mxCell id="U22hUHlgl1O_JhfOZm2w-110" value="Ad-Hoc SQL Queries" style="text;html=1;align=center;verticalAlign=middle;resizable=0;points=[];autosize=1;strokeColor=none;fillColor=none;fontStyle=0;fontSize=14;" vertex="1" parent="1">
          <mxGeometry x="1714" y="643.65" width="150" height="30" as="geometry" />
        </mxCell>
        <mxCell id="U22hUHlgl1O_JhfOZm2w-111" value="" style="shape=image;verticalLabelPosition=bottom;labelBackgroundColor=default;verticalAlign=top;aspect=fixed;imageAspect=0;image=data:image/png,iVBORw0KGgoAAAANSUhEUgAAAgAAAAIACAYAAAD0eNT6AAAQAElEQVR4AexdBaBU1dbeZ+YmcS/dHSogIGKA2Njdit3d/exnPv/3jOezu4uwEDCwEEFEBFQUBUS688bkOf/3DdzLnTtzYuZOz4K17j5n77XrO2fOXnvtcin5JwgIAoKAICAICAJ5h4AoAHn3yKXCgoAgIAgIAoKAUqIAyFsgCAgCgoAgIAjkIQKiAOThQ5cqCwKCgCAgCOQ3Aqy9KABEQVgQEAQEAUFAEMgzBEQByLMHLtUVBAQBQUAQyHcEttRfFIAtOMhfQUAQEAQEAUEgrxAQBSCvHrdUVhAQBAQBQSDfEaipvygANUiIKwgIAoKAICAI5BECogDk0cOWqgoCgoAgIAjkOwLb6i8KwDYs5EoQEAQEAUFAEMgbBEQByJtHLRUVBAQBQUAQyHcE6tZfFIC6aMi1ICAICAKCgCCQJwiIApAnD1qqKQgIAoKAIJDvCITXXxSAcDzkThAQBAQBQUAQyAsERAHIi8cslRQEBAFBQBDIdwTq118UgPqIyL0gIAgIAoKAIJAHCIgCkAcPWaooCAgCgoAgkO8IRNZfFIBITMRHEBAEBAFBQBDIeQREAcj5RywVFAQEAUFAEMh3BKLVXxSAaKiInyAgCAgCgoAgkOMIiAKQ4w9YqicICAKCgCCQ7whEr78oANFxEV9BQBAQBAQBQSCnERAFIKcfr1ROEBAEBAFBIN8RMKu/KABmyIi/ICAICAKCgCCQwwiIApDDD1eqJggIAoKAIJDvCJjXXxQAc2wkRBAQBAQBQUAQyFkERAHI2UcrFRMEBAFBQBDIdwSs6i8KgBU6EiYICAKCgCAgCOQoAqIA5OiDlWoJAoKAICAI5DsC1vUXBcAaHwkVBAQBQUAQEARyEgFRAHLysUqlBAFBQBAQBPIdAbv6iwJgh5CECwKCgCAgCAgCOYiAKAA5+FClSoKAICAICAL5joB9/UUBsMdIJAQBQUAQEAQEgZxDQBSAnHukUiFBQBAQBASBfEfASf1FAXCCksgIAoKAICAICAI5hoAoADn2QKU6goAgIAgIAvmOgLP6iwLgDCeREgQEAUFAEBAEcgoBUQBy6nFKZQQBQUAQEATyHQGn9RcFwClSIicICAKCgCAgCOQQAqIA5NDDlKoIAoKAICAI5DsCzusvCoBzrERSEBAEBAFBQBDIGQREAciZRykVEQQEAUFAEMh3BGKpvygAztEqgehA8LHgC8E3gf8FvhXM68vgHgHuD24MFhIEBAFBQBAQBDIWAVEAzB9NawSdBn4OPBdcCZ4JHgN+BszGnw3/vVuvH4f7EXg2eAOYspQbgetysJAgIAgIAoKAIJBEBGJLWhSAcLwa4fYc8Cfg5eDXweeDtwPHglUB5GktoKXgTVyvAjNNKhTFuBYSBAQBQUAQEATSikAsjVpaC5rkzNsg/XvAi8Avgg8Cu8GJoiIkxDSpUDAPWg1awk9IEBAEBAFBQBBICAKxJpLvCgB7/LcDtPng28CpaJSpbHDeAPOkK/MFALyQICAICAKCQGoRyGcFgBP2/gDcd4ObgFNNnBdAS8CvyJjWAThCgoAgIAgIAoJAPAjEHicfFYCmgOl5MCfsdYSbbuqKAkwAc7IhLRK4FBIEBAFBQBAQBJKLQL4pAD0B5xTweeBMIg2F4WTD7+D2AAsJAoKAICAICAKOEYhHMJ8UgP0B0DRwP3CmElcOsIxDM7WAUi5BQBAQBASB3EAgXxSAQ/C4Pga3AMdELk1TfZq3UOf17ed58+BDVk876ZTl8844e+Wyc87btPr8C6uWnnv++nlnnrXi82OO++vRvfZecEzPnmubFnHSf0zZ1BXmRMRP4UGFBY6QICAICAKCgCBghUB8YfmgALDxfw/wcCc/OM6oX4uW6rXhB2xadeZZ/qnHHace2WvvkiO6dW+9Q/Pm7ds0Km3bpKiorNjtbtS0sLB5m9JG7XZr27b7uX379Xj1gINaLjn73OCsEaf9eVn/gXMaFRQaznIMk+KkRCos+4b5yo0gIAgIAoKAIJAgBHJdARgEnEaCHTf++3fsZPw2YkTFd0ccoY5s37asIOgvVByhRyJOSdM0d/eyst4P7LFH36Xnnlvx1H77/9i8uLjaafytciwzFZdMHrLYWlRxBAFBQBAQBNKFQLz55rIC0AGgfAhmbxqONfVu1kxNPva49WMO2F9r73Y1MfTAtggubuy37TaWK7fmanradtsPXnjWud7bdt1tqkuLSZtohrzGgVuBhQQBQUAQEAQEgYQhkKsKAOvFLXg7OUHq0v79vT8cc6zer3FpcxUMhkXRNE1pmhbmF88Nkmh2486Dh8w786yfuzYt+zuGNLpA9mVwwwuBRIQEgRQgwN8fFXCuaKlhzm2RdzgF4EsW+YZA/PXlDzX+2Jkb81oUbR+wJZUWFKgPDjl0/QM7DSpWAZ8JFon9ZrUqKe0/+9RTGx/To8cPloULDzwct1eBhQSBTEOgAwp0Evg/4C/BVG49cJeCudtlDa/BvQ5eDP4M/Bj4VHB7sJAgIAikAQGTRi8NJUlcltsjKe6wB8ecGhcWqu+OPa5inzatmxtGeK8/PFZiFQCmrSmt1asHHjzwyoE78UNILyfMOtEa4ERWZASBZCLAw7HuRAbTwUvA74CvA3PSKt/RQlybEa1yByDwCvAb4GXgX8B3gHuBhQQBQSAGBBoimosKAHsilifusec/6ehjNnUpLmqidKvGH9Bq4ORQ0b1Dhu5/0+DB7ztMnmcGPOpQVsQEgUQjwF/C0UiUS1R/h3sXeDCY/nAaRJzo+k+k8CeYVgRavBKRLpITEgQEATMEck0B4J763OPfrL6Kk/A+O/zIzR1drjK3g0+MoeJZxWeaff0A96277Hbo8T17TqwfYHJ/LPz3BgsJAqlEgA3yDGRIZfVAuA5+OZCKj2hFGIuos8HMF46QICAIREegYb65pgDQLGmJyD277V7Zq7iwaWExrJSGg8bdiYxljraBxS8ecODA7mVl3AHQVhgCPL0QjpAgkHQEOIGPw1RskHdKem7hGeyIW+b7CVwOOcAREgQEgUQikEsKALfP3cMKnF3atNUv6NG9kYFG3QW2kq0Noxy51iPxF5rSWk098ZQgrBObHaTO8dMhDuRERBCIFwENEa8EsxfO9w2XaSNa9X5C7peCWS44QoKAIEAEGsq5pABcYwVGgculRg0f7g36/VpxseUUgchkDE5ejvROpE9pgXvoI3vuzd3/nCR7iRMhkREE4kCAp2W+i3j/BXPeCZy0E0/JfAKl+ADM8sEREgQEgYYikCsKADfMOcoKjAv79vMUB/yllEFPm45ztpso6DwlS8lz+vY9oFVpKXs7lnIIPAFcBhYSBBKJAGfwf48E+X7BiY1cLk0N6teu6qIRg5b86/r9f3vnseNmffHa6b+Mfe7k3z569uTfHr/zkDnnnzRo2U592+puJxNwIrM/El48MbM7XCFBIM8RaHj1c0UBOA5QmHbrC10udWv//krBlK/hWsXYozeCdXYFREZJpFZvH3zIrw7SZ4/oeAdyIiIIOEWA4+yTINwH7Jh6d2uuj3/u5NWrv7tyffXPN23+YfS5jZ6489BO158/pM/xB+0wcO9du+x4yF49+xy6d88+F4/Yue/Tdx/aYfqY81xVs2+umj32wj8uO33w0mZl3PXacZacGzAZ0lzuC0dIEBAE4kUgVxSAE60AOGeHPl5XwB/6yhQWxn5SnxEMKs4bsMojUWG7tW13aJPCoj8cpHeYAxkREQScIMD1999AkBYAOPZ01PDe1Yu+vHT9L++f69p/106t0Yg3d7tdjs3zsAA06tur1Xb/ve3gjqu/v8Y77oVTftmhRyuvfc4hifb4y+WCO8AVEgTyEoFEVDoXFIBCALEn2JSu6tfPixY8FO6CmTJ0EcsfWA5U6qwALe8asvsUB8Xjcqz4DylwkIGI5AUCbVDLCeC2YFvq1rHcP/+zi1eMfOio0rbNS5vXRtDin5+naVrxQcN67PjLuAsLP3/l9D/atGzsr03X/IJKAFcIOCq3eTISIgjkLwK5oABwMxLTA39alZSq1i6ttmeixfud8jv5JiXmRTpn+77cLc1u3KEcuaV6aRayFMohBGgO48S6nk7q9NRdBy+eO/4Cd6fWjdvVl9e0eH9YYSm59t29y3aLJ11ZffZxA7hlcFhglBtaLHhiZsi6FyVcvASBHEUgMdXKBQWAy/9M0Ti3zw6VwWBw29eJvXlTafOA0OmAQZtdA82jxxRS6HbtXVZUxG1W7eKJAmCHkIRbIfAAAm2XlDZpVKR+H3/h0nOP2bGz0o3o34xtvzAk2TByu7Sy5+8/ovP4F0bMKSp0223Wwd//ww3LUWLbIMCnS2tPDdPqahNFgrMBgeg/5mwo+bYyWk4GOqZzF9820YZdGf6EJWVXkMIzdujDbVHt5EQBsENIws0QOBQBlktnEa62797cv/iLizZ2b9+0I+/N2FCJ/5QcOKx7398mXPRHedNi3Szfrf4Xwz0ELNQwBDiRehiSuAH8CpgHlvGsBpo/1+G+hvkhrML9b2AOw/wf3FPArcFCKUAgUVkk/lebqJI5T4ezl02lOzUqpZnTNDyWACOI30GK5gKcst32dj0fFp2Tt+gKCwKxIMBVJE8iAnt2cKJTp7ZNfdPfPDXYuLSYw03RhZLs27Vjs+1/m3DxoqaNi6zMb6zHCyiKLI0FCDESh0/PRBwOpbCB/xbXbNDptwuu24Pd4PrEJdWchMmNmqgwvAWBFWAu0/wH3P5goQxHIBcUgK5mGBe4XKpYafzYbRMxnLSr28TrX+lennRa3zfx993LmrZ0kGrEWKyDOCIiCPDkvW5WMLQsLzF+GXNWsLC4uMTJChhNNex3ZVWWNi0bd5s99oI/iouitUO1MXksMRueWg+5sESgL0KfA7OHz97+MbgO/1bCI0Zie8IhmfsRj7tIUhng+SX0h5dQYhBIXCq58GBMeycdGjdWhh7UwuBq6GQlQ1eGl9avsFQTftOksJATAWFysEya2rmlgAQKAvUQ4Ht1dT2/iNvZ7521odBllGpuZ58IQ0+eAsDCdW5f3ued/x7/C68tmPWyVGws4uZLEM93GI3K/gw+H1w7QRrXiSYqA2OQKIcKLoArq5YAQiaRs193JpU4siymZj8e+6sievzh+kBkcvY+RiCgVJLnA7iVxgk3S21KQzOcjYgECwJhCNyEu2KwKb1y/6GLy0vczd2lEIv4/USPluRTM0OZHrFfrx3POnbA/NBN9D8l8Gb94AjVQ4DY3AE/KlHcOC2V334O0z6LvLnL5M5whRqAQCKjpvIlSGS5a9Jia26qVRa73Gj/k9Mz0X0eZQTsOug1xYzdRampmXOyjVVk1t8qXMIEgboIcM0/e311/cKuB27XpvqE/bvTSqBcGEILC7S6SbIFoCbrp+89rFmzshKrH95ZkG0FFtqGwH64ZI//n3DT2Wlg408l4D8oR0OHG5CEUEMRyHYF6Ai75wAAEABJREFUAO2kMt09rNDtUvVbSD2BY5WGtzp5SoCmYGZQdhMY61evoe+DxM9tBDixiz1B01qOf/q4Coxyaa6CGJVn3W6ivmmWMQUUul0tX/m/o+ZYRGIDd5FFeL4FXYcK80jnTJkwzA4byzQD5Ypp22nIC6nEQuBKbHJpSc10Vt6aagTV68UE/GxXE1fOkBKQjOEAXS1HKe0UgI2QERIEnCBAZdGy93/wXt3WlpW4Qku53Nwym+q1k5Qhw4mCZFwmnQ7ft1ffbh3Lrd7905NeiMzPgIrQaygme9tuuJlG26NAtAYcDlcoTQjkggKwxgy7ZZUVSnO5wj5jQY7fR9gFzFJw5m9wOMBTrTDe4CyCAylDM1ZCzHSCI8JIq/hHWBBwgMBAyPCjCyc6PX/HQbVL7fC7iS5k4cszMyyCExlU+NgdB1udl8HlaQMSmWGWpcXvxtcoc8yKUFnjItWyvMRz3ME7/PjGQ8d8PeujC6Ytm3z19M0zb/il6uebF2+aecNfG2fc8Nv8iZf98OEzJ3170wVDp/Xq0tzJro0oTgRxmPN9+NIyBUfIDoFEh+eCArDQDBQ/zJK60iLG0Q2NnSGzWPH5c48AvboiYUMC6z1e9nAa25SGSoKNiAQLAiEELA+P6tqhWWWLJoWcI6BC+nEcPxEjGKZrq2T+O2TvntsVF1nuEsiJbsksQqamzbH1sSjcrmDHdPTw3t4/xl2wZuW3lwdXTr228N3/Hjf45MP77tOvd+vd2rRstEtpSeGORYWuzo1KCrs3blTYp2vH8l0P26fXnvddt99uv396SeeKWTctffex478bsH2bvx1nukWQQwIv4VKUAICQasoFBeAvK9A2B/VN9cP9IStAfd8E3BuG4pCA7qlUVAgakuJ3y5c76d3PbUgeEjevEODOf6YVfuiGfZbXmPBdLpcyoDybCpsFGHp88czSs/B3aVr5qUfuyOVlZlL7mAXksD+HDLnEz/JwtLr1P/vY/hvXf39V1bsPHVXctUNZK5fb7VaacqsY/5UUuzsed9D2e8z44Pyuf315+U/D9+hmtVqjfupsh16EJ/cigCMUHYHE+xL4xKea2hRnWWU3efWqCAUgyIN9tCRWPRhUBoYE9GooAgEYIKAYWJUxWtirc3+rNcdGC9/qZ1n3rTLiCALsZfHQLFMk9h3cYdvGU66Yv/+16eoBJ69trXiDLi45bZeI33adBHfHNRtEOHlBtNlwQx9HWyL37NJcX/j5xeufufOg8kbFBbQahECi8he6aMCfzu3LBn3y4qk95028bEaPTs2cdGSYG1+613Eh25sDhFRRElvBVFVBfW+V02O//tJSRTH5B9BIW8VLSJgORcDrUXrVZhVSBjhXgNsJ1+9dUUFgeQJ+pXNlQXVF8Ifly20PaUEZfwILCQJ2CHC2NSeFRZVD700vLXI1qwlsUCOAd9sI6jVJJdXdsXcrq01/WN8dk1qAzEqcmyBxP37bUl1xxuDlcz4812jfqjH3GgmTN7TEDeN061i+89zPLml83Xm7/xiWifkNhzy5cVC5uUj+hiSj5q5kJJriNNkLNt2ab+bq1c1UQUF1/TL5fT5lwNRZ3z9p91QG/MgzZBmoUHrlpq0M5YAKgqcy1PgrKAF+3Vi+1ufjPtxWxeG+3dxu00pGwgQBImA5Ie6gYd2XGLrBHiRlG8yhjbIanIp9AkWF7nZdOpRXWEj2tgjLpaBBqMyDYEtyuzQ16tGjl//nun25gyh73BHymtIi/BrioWla4wdvGD54yrtnTy4scDlZgtUd+T0FFkoBArmgAHBTkE/NsKI++83KVYuihfu8PoUXNFpQCv1YwvDsPvh7EdfI2v0SubY3dfbW8CLKXXYh0NmquEfs3cNnFR5rGOcS6MmaZ1OvMLv17zCvnlfd20xZ+163TIm+5tG8HD+na5p249JC9cv7Z687ar9ebPxN5ZSy++youP7tOqDDsD8+u/RnlMPJuzYCmRwNFqpFIDkXuaAAEBkuJaEblS+ZPLmTy+2OsEvqMLunyFoZtVzRPKGQeC+Z/K3lcq2t8cZtdcURBOwQ4EE5pjIDt28d1hvUjYifimlcswAjgOGvFPy4BvVrZ9WgWNbbrOxZ5n85yms5bl5U6FKzR52+qUfXli042gj5tBDnBsz99JI5RYVuj4MCPAYZnlQIRyhZCOSKAvARADJ9qdZ5PY0XeLxRVwt4MUaf0qEAFNSKZm7YMNmn63YKAM2eHCuzSkrCBIEaBFrWXERzW5aXhHX7MBygEtER1DnZVm+4MqEs/rVr1djKCsZ15haxsz6oBWpwG9iUaPb/8e3TKzq0Ky9TDlp/I4E7pUYrVLvWTXaa/t55s7SwNy6apOoCX85rgCOULARyRQHgePi7ViAd+cmEVi53QdQxKB93DNTCOkFWSSUtzNC0qoPHjeOLb5fHOxCgEgBHSBCwRcDy5S50u8PCuaGPlggNAMUKrbhx0PBANC5q2bw06m96a2K5rgBcg3pSCYATnZ65/YCN3ds3aeIq4EKQ6DJ1fTU9ckiybngirvv2arX7I7ceNMVBWtwyOGKiooN4IuIQgVxRAFjdp/nHjNd4POVvL17Ek7AiRHR8oKphCVBpVgJenTd/nCeoOxm3tKxrRAXFI98RCGvgI8Co39rj92AkSAFghzLo9SkjSZYAQynOAYqo0lYPBG+9yj2H5vFLrap10NCuxikH9y53FxYqhWdqJVsTlmwLQE0+l5++y+ChO3e028eEK1PkXAdVg1ri3VxSAKhRcvtLU5Su/u67gb6CQu6xHymDD5THU61UKlcG1ClFRVCffdWUKUfW8TK7nICA6WAhQcApAqYHZjGBoG5E9qITMA+Aadew7vMrPWBlra+RjM1dubrCqpGvjC21rJLmNr+mvf/iQrd681+HhJQjV5Gz3n+o9imwAITyUapo7DMn6y6XtvXW1LkMITFUANJCjhHIJQWAlbYcD8OXQttpzOgiraAg6rJBA1pydVU1Oi0phsXlWtF39Gio6aqYlbDhe2zCJVgQqI/A6voede9XrcdLX9cD18EkNNZGIKA4L4C/M2SREFq8YpPVjzWXh8ksD3a665IhVSWF7iIVoyWHz4asUvCvvGlJn5suGGrXmeHR1AeloDgZm0UyC2b140lmvslK+1skzAmBcKLTep+v5dFffLXY5XabdkdoCfBTE9aSD09Q09bvO/bjnzf5fNysJXqht/mOxOV3YCFBIBYELBWAH+esipipxx67su+dxVKGkKwR1JWOIQE9aPrzC8k5/TN3/jqrMeIlTtPJMjkedmS6s2OTRoXqspMGhDoT7mL0K9DziaV+yRquiVaG2y/fq02B22X3MpwaLa74NRyB5LdwDS9jrClcgQiWmv/3q1Zsf+kP0+doLnMlIODzqerqaqVTg9ZszVTIMjYyNLfyBoOV5379zYyZ69Yd6CA2tz2VWbEOgBKRCARMD8yi5Phv/yqhG85oNagEh3sm7M7wBxTnBnBYoAE9Tv3LqQut1rVHXfmTsEqkL6GjrLK++rTBQZjW3ZTR3LF/4o2Azqgp4aJCd5cLR+xst6EZjwzO02GA5D6G2N+O5JYnEanzNKrb7RIavWB+/xO/+XqOcrstx0e9Ho+qZo8lpAg0DC5NgyKhuZUPvR9YGbxnfPnVNx8sWjTcrqxbw2+GuwwsJAjEisDPVhHGfzO/o3K5Ir76QS9+GnxnrSI3JAxDbqFhASjbOhnDDoZTpQP6id8XWLR2Y3VbiyL8aRGWzUGWBztdfvKA2jkdmhbHN8vQlaFHvA5Jw+vG84fapc3JgE62RrdLR8LrIRDH21Evhcy8fQzFst0oZ9KKFf2Hjhu3THe7LU2kCj+GkCJQXY3GW1c6f1Quh9BBlr39gKFBkfCr6uoq5Q8EV+z/6ad/fLpiheUPGXWoIa75l+0xa9AQN1YEONvadMOcYNAo8fj1iENbdJjrY80oLnk05gYa/hplIOjxwTrgVzqsBPSrZdxzDkEQygKVE2+1jw2DWZbcF4TbhJuFZ6s/xvXVbmaF79+rlWrSqCBk/t8iA3C3XMT010AnJaYIDRDu1K7pgPatm6yxSWJvm/CcDE52pRy2YskuRsLTp/p6BlK1NH0iXC3cvLl7x3feafLTpk2TNU2z/bUE/X7lhSLAyYLVHq/y4qPkDxoqgJhBNPIczArgY4ZGXnlhOaiGrIeNvtcDrTqo/qqs/Krb6NEFv23c2J/5O+AFkDkPLCQIxIuADxF/AJvS51MXR/0AB0J7ZMByZRozGQH4MbEXikZIh1WglnFvUCnB74u5fvzV/A10TZjbabPeJsFZ681zHWpP76tfi9OP2J7fvvreMd8T5wYMzcSan3vEEf2stnRmervyj3BiEchVBYAocXMg7idt9ZGgHLn0sE8/HXbgxIm/ejTtL6U5/+Dp+CgF/D7lh7nUh0beB6WABw0FOOMZJk4mTvYZxsITJ02atsf48fv6db0V/RwwP8qHQc5JHSAmJAiYImB6XgZjXPXgF200l4aWl3fb2ID1y2Cju80rM640ZVz9r4mcIW5Wni/NArLcv69V+Y/atxctH9tEIp7otiC7K8PP7oydVGLCjz/Edg600w5TYgqUEakkvxC5rAAQPU4uOQIXUZf9wT+Mfl63bsfuI0d2P/brr6dt0vXfoQg0VJs2KnR93jXTp3/VdfTozt+uXGlqugsryJYbrmHmvgA0327xkb+CQPwIfGIVdeWayjZrNvppbYoQC3jQpiRhRUBERjF4LFtdtWz1+iqriWHvxZBcNoluZ1XYDi0bcYhgm4jzvsy2OFuvDJ5gmiLlb8dera1Wc7BE3CHV6nlTRjhGBHJdASAck/GHloDNcB3R1FWrdtt+zJgdeo4Zs/yNhQu/qtCNP6AMODMnapperRsL31u8+Is9PvlkUe8xY3q9vXDhvsg4NCsXrhNij/9gCE4FCwkCiUBgGhKxNLOectPH6C9GbzEC3CogBssY8koqnXbDR9wJzywPnv7JIQCz8Gz272BW+PatGiu3WwtvJPFEzeSd+IfmXzQwDSf5NG5c2EmL/urVRC/EhdWETwTnFqWiNvmgABDHz/FnP/BKsGOqCgY7Xj99+r69x4zerv3IkWrohAm/X/fjj5PHLFny3eS1a6fPWL/xxy9XrZo2atHi6XfNmjXlkIkT53QZPVrvMWZ0t0u//37/vzZv7uo4s22CLOP+uKXiAkdIEEgIAvyMv2KV0pSZS3tt8AQWRJMxMO6uY3hLWX+ko0VNuN/CZZv+/u6nJeUWCb+AMNYXTs6RaSNIBSCitjataoR8PQ/OAzD8oQ0F64Uk/LZxm5aNq21SLbUJl+AYEcgXBYCw/Ig/XG9it/MUxKJS0cKKih3e/OuvYZdNnbrHCV9+ucvhEz8bfOo33+x2xbTvd3nmzz+Hzlq/vi/G98M18KhJmXpyO2Nu8PGTqYQECALxI/AyolpasnYb8aamNC3q4G+Q8414eWsAABAASURBVF18iN7ARgVlaAgF9znrTdNGEAmjgOo5uLlKpo1gWZNw6z8B0PingWzouuLqiwYmYxu9WdMSWj6t5EqsAnMrLDW1yScFgIj+hT97gh8DZ1IPgXMNHkGZOFSwFK6QIJAMBLgz3mtWCS9bubn7mxPmzVAmLQcnhnEDH5WmOQH/euGHv1asrrRqCN5C/aKf94GAHCCawqNWo3FpZN+DPfiowjF6ciKo7g8olcSvZnlZsd0wranyE2N1RHwrAvmmALDaXvy5CswNeH6Hm25iGbjG9VoUhL0XOEKCQNIQ+BdSxpccf03own9+sstGj/GnSbDSAwEVqMLPKMWWgJ//XD33zv99Y3VaJn8/d5uVO0f8Te3xldVRHmudlUgNrT/3BtADptk3NHm1abPPVLnZmrhd+Fax7HdSVYN8VABqsOUyoYG4eRWcDuLmQ9zadydkLuP9AEEoJQhwIqDdplJat4OeaaVrWsTmQDUl5Axxf2WVYs9QMzMX1Ag31NWU2rDJs2TXk17tbZMUTf9R5zDYxMumYNNtztdv8kTUI8Bee4Rv/B583roPSkACFYua0qxaW9m45trE5TfTJEi840EgnxUA4sUeg9Ve4pRJNHOG8j+QaE/wf8HoSuGvkCCQOgTuQFacbAonOvn9evPuh7ygDM1taZYNeL3Kz2O0Q8mgpQ65ifmjaZrS9SB6hp6VXQ54ui3aHKvv1QrkarsFOGSynUwbwSWrInUDzuJXwDGRlTZ0XQW9PqUHo04ViTerwPpN1S1sIufJ8KgNCgkMtvpBJTCbjE2qG0rGoQA4SSXuQ/A+cjge3ANMM6zlhxUyQoJAshDgZKsr7RJfu9HTpvthz2/QNbelsmDohvJXVaugx6tCQ8QNbXCgR7Bx8VVWqw0bvMs67PtUC68vaGf+5SFg6+3qlAPhPOskajXWbvCooK4ixgESNQ+gfqYGrAtUBAxkWj8s1nufX18OBS9yEsO2hLixG7+j23zkqsEI5LsCcC4QtMKAH8r/gwyXEfIFxKUjYq+ea/gfhfRx4NbgY8Hc0z+hajPSFBIE4kHgXUTicjk45rRmfXXnFns9XrquKvCbudSWEF0PKu4XwKEBThjDBx2dT7TmNgoBJBQEFRuqAHqWfjT83O//1783/NnpwKfb+wO6XePPYbxRKj/+WW4MtnpDNa2aYUjo/givsPAG3eAh636/Cnr9ygjE/2lbsHidqWKztXx50/vfWt+UOFaNX0oKkMZMuDHPOTb5v4nwm8AHgluCu4O5iuAYuBeAbwbfCL4IfDaY6/fZw2+Kay45vAYudyQTzRVACGUcArQCWJ4UyBIHAkZZlwOe3f7tz+d/qWmuiB4mZepzEI1CoLpa+SqrlB9M6wD9gsGA0tFQBMnsQXo8ygfrAWV47gAnmimXy3/do9/9ufuIN3oHecBG/cTD77nb5yXhXjl9x6XCphX8ZMqiiDDdH1SaFlKzIsIS5mHoeK4Bxees+3xK5/AA/KDVWWYB/UEZuq5+mrPCbvz/F8uEJDAuBPJZATgEiFntJY5g9Tz/1OGFuOaEvQ/gMuxBuP8GPwvmJiucWMilhn7cCwkCmY4AFdPDUUgnvSvX+Xd8sl+3Q19YAmvAHE1piOacdHzkdTT4OnqK7N2HGgkoCTqGD2pSQRtloNc/v9OBzxvPvDPTbsIfo3HcnxY21oP3+cBs4U2PBX/6nVmNooEQ4MS9aAFJ8DPwTLcMD/hVEBYdHbzlmftD+wkEURb6k3WvV+m4HzXhd6u9HVhKy8OsKJAbnNpa5LMCcL4N1Nw4SDbksQFJgrMegcWoAZUAR+PnMDF3gzWg77DzRk5bucn3i+aKvmkQ0nRMmssV/H1JxV99jn+jcvcRb/bcsNkTuaNNZGosL7fLnh8ZlPM+plaAn+etUR6/ziHIMBBoplfQsMI8U3TDoR1FpQBKoMH5AnBVqOsfmjGidKV5Pvj8D9MtjrcW8+utrjgJRCBfFYB2wJCHBMExJdvxUdOYEiAIZBcCs1BcDl+ZLvtDeBjN/G3Vbj0PeX7HVvs+vXL0lwu/rParea4Cd0TDExap5gbGAzT6/lWb/Evuf2nG/GZ7Pena5aRXuy9attFqf/+a2HTX4g8teDT/4zLv6BurGr814Y+owzQcklGuzPvkT/pxyUKr+iCMk1DzojOGuqaUMu9tSE31OV5vNeOUJkWO/6emNJKLIJB+BGaiCNyJ0u5jDLFtVO0Jdjjr1nH7td7nyV6NdvtfcK/zRk195O3Zn0/+ZeXUhSsrf1qx0Ttnzt8bF/z4x9qFE75fOv/G/035u+cRL1c1HvJ4YY9Dnut0/3NTe/r9OlSCbWnaXLF8nIfDw41sRHM2mJOJt3Sfo1Tx5kcnYTw90jJD03w6LQFRiqqUSzPOuPHDzlHDtnlyBZVpfbeJyVWsCOSjAqABpPPAVjQSgRvBQoJAPiHAmf67osITwfFQo59+WzXk9se+PeDgC0cP2fHYVwb1OvSFvruNeKPHPme/0+2Eaz7o+eRbP3VdubYq6ji1gwy/ggwn13L3TFzmLS1BzSeBo1IlzDHjp/wduSsQpDnuHjLJ4zoTaObva/7A+wCFxbI0r1uG5kxg6iuSjwoAezlW24nyKXCCH11hQSDfEFiDCnNs/S64mTKZNYiy3Ak+AMyJf3Dynp6xQuDMWyY0xth61OfHpZrpmg8QVmZN8x983ltdwvwib6iUcuJ1ZIj4NBiBfFQA7Hr/7F1822BkJQFBIHsRYIP7TxSf1gBOhsVl2oj7aeyG3O8Gs1xwhIDAaLDpoUfV3oC64ZFJURUAxFP+ymoVUgLSNDFQ4d8Tb82ct2Gz1+6An0w7uA0lTw6lI9V8UwC41SR347PCWnr/VuhIWD4hwMmBbHzPQKU59g4npcRe7jDkOAMsFI4AJ1z+X7hX+N0zI2c3+n3x5k3hvjV3BpSAKmUYsBOkQQlYvs6z4LoHP+9TUxoTl8sdubzaJFi8G4pAvikApwEwq6NEuWUWdxWDmJAgIAgAAR3MMdgd4HLjrFTOxt4OeTJ/OEJREKCCxPkAUYK2eA07480yT0DnpOYtHvX+Bqo8Kuj3K82doqbApSm/odbtesKLHbgSsF5x6t/eCw+YKvA35yk9FUzRU09P5aLkarf2/wPEMT1sA2FCgkC+IsAe58uo/M7gPcCPgrkpDZykEefrcPfNpGWQ5QmzceROpKbV8PqCasAJr5fqSvObCXFjnpohAQ0NtJlcQ/01t1vpvoDvyItHqtXrqq06YsyKO/+JNZZIJJHzSQGgKXOADZay9t8GIAkWBIAAN6LhNtc8TIu/qUvhRysBlxKamJwhsYVoZeP6/Tdwy222rYYWuGLnLMgJmSPwNoIsV20sW1Wh7XXOu25Dc5kqAYauh4YEeBaDxr0CEqQIaJqmNFgX9GBQ+Suqgiff8NHaL79fxKFYFNuUuOSP2zubltc0ZpYGpKvY+aQA2PX+eRjFZ+l6EJKvIJCFCPBDzbMEnkLZOU9gENxyMA+/6gl3F/DuYFoNeM8PP3t+A+F3Ophj2C/CtSIqAPn0nbLCIloYnwEPNbNctjxr7mpXn2Ne0Xy6Mh0OYOK6P6B8FZUq4PGETnbU3G6lqBBoDHXGFNXQ6GuaSwUwvODbXIlhhmDgsKs+3PThl/PbO0tF8fwVJuVQXMTiQSBffljcYewUG4D4IdJtZCRYEBAE7BHgUsIFEOMKAm7Yw3kDvOf2vWywEFRLnHNj9bujlYFDAbUR5CICAQ7FXAjf+tjCaxstWbm5oOPwZxv9vbpqvbJpWo2AHjrZ0be5Qm05pAmPSNOUy+VWGpSCGnYV8B7NiNulNM0FpcFAox9gb1/5Kith8veryoCxbsfjXg1+PW1Rc+XsH0t3B0S5GRsVRlzmMqWvbq70ZZ3SnE9GbjyhD05U4vKil6KGiKcgIAgkEwFa3r6wyYA7d9qI5H3wu0DgEbAlcXlgv6Nfbn7P89NXK5f5kEDdRHhCY8DjVf7KKuWtqFBUCmrYu4n3lcqPXr4PDT4nFXK3QcMwFIYSjHFTlixut89TLRYu21hcN02H1+y08d1o41BexGJEIF8UALu1/58ANx6KAkdIEBAEUowAJxdaZcmlu2VWAhKmuLviEKc4PPjCtNbt9n+28Pvf1q7R3C50753GdCCH/vviNVXLB570hvek6z7sDF3AQSRTEe78yL0g+ppKZHlAOoufDwrAjgCYLxEcU5LZpqbQSIAgkHQEuLe91Rg2G7eTkl6K7M2ApydyYyCuznBci4oqnxp+3jutOgx/zvXRt4tW6pqLKz0cx48Q1FyB3xdvXrrLae9U9znq5fbzFq1PlPmeK0G4GyDnBURkKx7xI5APCoBd759bi46NH0KJKQgIAg1EgMvZ3rFJQ4YBogPEbzjnUfB0xOgSNr4bK7xqxI1j25YNfbz4kCs+rPrsh2VLKr3GRuV2BTmuHzU6evma2x30GdqmOYs2Ljvn7olrmu7xeMEuJ7/W8fcFa+1296ubZNQzC+oKbL1uBnccmHMd4OQKpbcefHnSW4Lk5s5xJ85OtsqFO03JchMrhCRMEEg+AnbDAOzdcmOg5Jcku3J4EsXlHCc4Dadvf1zS6Nir3u/Udr+nypvs/ri77fBn1b4XvqcuuO+rzVc/NHnVhfd/teaIq8dW9j7qVdV49/+5Wwx7omy3U97oMHLC3FZxmPo5SZTP9G6U3ADbEU9w5eZH/4FgrrddqGLyKddBPBYQtgSbEV+6F8wCxV8QEARShgD3FuA5HGYZos+pxAqgwv7dj7uLwEkjDhNM/2W5euvjOU2fHz2rzZtj57T6atqixstXVzQ0z9eQwF5gzr3iQU/sqDkdgrgO8ThsZHeKIMQym9JdulxXAOzW/n+DB/AnWCi1CHDMcjCyPBPMH/9zcDmL+VO43IuBOzKyR/h/uOeGIPvDbQUWym0E+MytashGwm0lkEdhbAT/4aC+qyDDOVDcqAmXaSfutHoiSsHfPod+cBkibgzF0x65hDTkYfPnaITz+90RrlCcCOSyAtADmLDhgGNKMvnPFJqEB7DBZ2PPkxbZfZiOHDj8chdcKmr8KHCSDz8CR8GPG8DcAJcmTu50xg8HjwZ9Gn6HgxM1wQhJCWUIAuwVckmuWXE6IYDvCJy8pnNQ+3+D7Yi7MnJuAGfRU3k6DBHmgNNBfK5U9Dkpe5RJAfht4EoGK0tQ3ajcYOp7eHADKjjZRukvby4rAJz8R7OhGcrrEcCZs3CEkoQAe+23IO25YDb4bOx5ulsh7uMhHkhDk+dYRObkTSoD/AjgVigHEODpb1ySa1WVfB8G4LAmG1Krbxvx4+Q6KtLchIn35PH4w10YOZFuPq5TQVxiSHM9t4xmvrRIWOXLcnG+B9f/W8nVhNECQEsA61rjJ65DBHJVAeBkEbsPBU1OdU1QDiETMQcIsKfG7WE5vncf5DnRB05CiVvOUhngRCJaCOysPQnNXBJLGgJ3NQPmAAAQAElEQVR2wwA0/TrdUS5phUxTwsOR71tgu2GQAGS4ic7XcOsTw6hAbI+AE8BUuNg7x2VCaR1S44FR/O1zH4dYLA/snNFy4XR+Fnd6pZJxDfLMGsqEguaqAnAowO0AtiIx/1uhE18Yf4g0TXJexcVIIlVmejb+VAK4TKgP8hXKXgQ+RNHXgs2I79QIs8Ac9udhZu+hflzZBMeUOLH5AoRyHg0cU2KjTwsoG9oukLocTMtaJdx4aR4iUrk4GG47MBtk9uhxGTNxZRaHBnlgFK0IdglQKXoYQux4sAOISyE7BHJVAeCLY1X3HxA4CyyUOAQ4Lk8t/3okyY80nJQTFT+aPG9HzvEOMyCqUBoR4Exw9nKtimBn3bOKm41h3AWPyq3VduY19eK8GTsrSo1sjcuhlydwcySY6+05TMB5Bg/gnpbSz+HS0sZTHOlOwj2HEzgEx+OIj8E9G/zecGnm52ReNuC4bTBxIjDnB1keYlQnF3Y8PsY9LYRwMpUyo1y5qACw58/JLlYIS+/fCp3YwtjYP44oH4E7g9NN7CFxXTE/Ul3TXRjJPy4E7BqwXZEqJ5PByXniYUg001stZ64B4V+4eAjcEOIQARt6PgPO3+GpjZx4yZMdqRjQ3RsZ8BvLFTq0+NHasBJ+ySKa9/dB4svBTuggCHHnQGKHSyEzBHJRAWDvwMoERBPX22aAiH9MCFDr/xIxLgPbTUqCSDi5NE31ad5CHdC5ixqx3faVV+2005qbB++y6dL+A6rO3KGPd1j7Dqp1aSybioWlz2NoZ8CHwwNwhLIIAfYy2QhZFZm/c6vwXAhri0qwN805Nbi0JJre2WBbCmVxICcR8zft1HLbD3XlCgGuKsBlZlGmlCbXFAA2Qpz9b4Uvtxzl8hgrGQmzR4CTe2L+ge3ToYP6+JBDq2eedPLK1edfUPn9SSerMYcdrp7Zb//G9+w+tNUtu+xa9q89hjV6fJ99i8cfdbSaf+bZask5521495BDl53Yq3ewtMBKt1P1/7WAB02VXAKFS6EsQoA9UKvismeay8M8NGFPAAA0q8OxJI7lszfO8X9LwSwP5KRibh5EE7+TqrSBEDsoCdspEenlFOWaAsDeHtf/Wz0kpzNLrdLI97D+AIBLbzh5CJfWVOR2q38PGeJbcfqp3g/2308Na9WitEezZm0LXW5HO3mVFRU1O6Rrtw4vDD/ADWXA8+qBBy3vWc7vo3W+W0O56RAbEzvFcKu4OBmCAMeercaR2TvmnI8MKW5Ci0GzF4fUdnKQKie/ngY5TuqDk/O0GTXkSpDH4DohDlFyTsltEGYHEU66KXPyzzUFwG7yHyepfZc58GdlSbqj1ByT5AcYl9Z048CdqpaPGBG4oFfPohKlFYekYfpXWnyvXqHLVXJMj57tZ5xyqg6rwKr2jRzpEMzsWeTNDyUcoSxAgOvF7Xp6uTgMQKvGSDwf9nThWBInM3NfAE6ctBTMsUAqO1ehTly5wDkLuLQkNvz3QIIdgS3fINwIKcUPY67gwEky/DFY1Ucm/1mhYx/G9dc0S7a3E92uvJlaOOKU6lv692vkVka43d7V8NdOU8oFq0CbX08/o/qKgTtt0uwKpELvOq0/nMBkLy0SmYAAP9hW5eDKk9ZWAlkWxh/GSygz6wXHkrgrJifisUdsKZjDgTUrF5wO6Z4JLDingm0FLtNDmZQrX7hMKk9DynI6Iltpd9SSudUoxITiQIDvCvcT59i/ZfRTe/eumHb0kXozt5umzCiyWhS/+LwKNK30viFDyz45+piVzYutHn8ofQpwG9KOoTv5k+kIcOmb1exyDu/kklWHZm0n9VmEB8e19k73zYd4zhI7JHuidn+DnRA7ANwa2fY75iSxbJfhRz3b61BTfjvz//sQlB8MQIiTuL6fPQ7L6HfvtvvaJ4YOaaJ03fzd0hKnANQUZki79m1/POXU1Z2acC+iGt+oLnuMbyKEG4fAEcpgBDgHgHMBrIp4tlVgFoX9E2Xlaho4lsQzMdj4c0KcpWAeBf6MunK2/zS4TqgXhHj65L5wU0yZlZ35RzqzymlXGj78HW2ExPxvA5BFMJfUcG29hYhS/xoydMllvXu31HTrjbs0pVmmE29gq5KS1t+fdMr67mVlhk0a7AVcaSMjwZmBAE3iViXh2vSdrQSyIIzj2Xc4KCfN/VTCnR6W4yDJnBHh2SBs0Dl/wkmlWkCIc5m44REu85NyRQGw6/3/hcfr9HAJiArVQYCtNXf8ovm8jnf45XU77bTy3G5dO7k1u7YX8QxrBQEScVPTwsLm3x5/4po29vsHcFKQbBQUN9Ipi/gLcuIacDimlM1WAI5LP2Jas20BHMLkjnt2WGyLkX9XPNuFS/64g6GT2nMI6UUIUp7fOVwmlzIt9VxQALg9Jh+6Fbac/JW8Vscq5+wP477rHGMzrcnBnbusv7FPn7YFjtfoO1ASTHOzD2haVNT6k2OOXV5oPdmQywd4UJF9giKRbgTsJgOeigJaKqgIz0TiCXb8Ntk1Ppz1zjpKJ8b+KfLjwg2R2LP32YuHJG7G33fBJnOWEBI/cQI0LVRXIAmeU0CrAy04PO+CFh2Wl9sc8/Ak+nPbZa5YuhTyQ8GMDyc5lAsKAE+9shr45Y/H7gOSHHSzP1W+fJam/2bFxcFX9tqrRAWDyqX4LttX2rAZIrBPwV6iZ1l5+wf2GLbERpLKjZO11jbJSHCSEeA6bh5va5YNZ3VzH3uz8Ez0p7mam5LxN2ZVPv6ouL89t8O1kpOwcAT4zedcCTas4SHR706A91dg7m4Kp0FUhticzMnDm3iyIXe2fEwpxed4EMK2B3MIoqbdouLBFVb0H44wHubEFQ5css7yc6vls+DPdOEkjnJBAbAz/3MnuKWJgyyvUmKvo6dVjT8//IjVhs9bWlhIa5qVZJ0wA980ch2vZFxe2G/HDru2bUvt2ix5vv/U/s3CxT8zEOBHkKcEWpUmm4YBBqMi/KiXwLWjf0BA5i8BhDiIDTp70Tyd1En03SDE3U250RkuYybOR+Gz4soVrpjikE1NIx9zYlsj0MJNSxEVGqb7Cvz5/sBpOPED2PBU0pfCAGTNhwbHlPhATAMlwBIBy4lyh3ftuqZTgTukMce6r4+hBywzTlCg6/UDD17PMwcs0qPmL4eGWACUIUF2kwHZ27PdnyID6sJeHjslTnpz/0F5HwQLxY/AH4hKJYA7l+LSlri76beQimWXyUGQp2l/JlzuOBpVsUNYQ4npcs4I54EwPx6K1aA0s10BINhWAPD0KLvdxKzi53MYXy5LTfOpPfZQNOe7XW6lxdijNwIcmUk+vO0bN+54Uq/eXDpllpkbARwvhCOUwQh8hrJZWfJoSs/0Mx94WiY3ouFSVFTHkqjw3GgpIYFOEeB4+4EQfhXshKiccSvmy2yEedYAe+RskGnatxFPaDDzo7WClgZHu7JGyz2bFQBqQ9z8J1q9avxoNklJV7MmwxxyOYZlWp0TevZaXRgItKJAQRG/vbyKgVNjAQgV6L6hQytCF+Z/qFXbTcQyjy0hqUCAGqPdRl6ZPAzARp+NP3uYdnhxz5ILIYSxMvwVSgQCnBDIcfTbkJgTXNkx4DHn/4U8r+GE0Ym44woVfjsctKOQTjzxm8XvNHeFtGsLo+aeroJHLUyMnsdBnhMp4EQlPmTOsI0aKJ6WCPDFOt5K4t6dBwXU1l6/Fqv9nwnrujKC/KbzJrncurRR9yHt2lVa5MIhAJkMaAFQhgRRobcqSh8Eck8QOBlF7FHS7L+Dg1Jx3JqTU6Xj4gCsOES48ocTx60mldZNlsOgnK/BsXj6c7UJlw5y1QCVOvqlmzmBkMoxLRxc3eS4PNmsANhN/uMxkPMdIyGCdRHgJJhOdT3qXjctKvI0c20Z+6e/5nD2P2XD2E+lPMwnaTdXDRzEvSCs0ney/7pVfAlLPgJzkQVnRsMxpUyzAtBSyQbEcjhta21mwOVJd04bJ4gLxYEAG+/9EI+T6uDYEr8NkyDFYVG2KzEPGSJuDVV061g+96C9ekw++/iBH91w/tAPzjpu4MfHHrT9B/16tZ6gaYpLAePtGXEIjHMdHG91nq0KALdy5DKaGlCjuTL5Lxoqzvz2txL7x6BBS4xggFaCLWJbLQFbbpz/NYJ+GBHifded50PJAzp3brutwPSJ4H0ifMQjExHg2LhVudi747IqK5lUhXFsjEv97L5VLA8nq3HimdODbRhHOH4EeB4ArUU04ztJhTP8udUwJxQ6kQ/J7LpjO338Myeunjv+wr/XTrt2VuD3W4x5Ey/bftxzpwx7/r7Dj3zg+v2OfuH+ww8f+djxR88ae8Eh/t9u6eL79R8z5ky45NXLT9/1lYIC7ddQQs7/cM8BbnPc20mUbFUAOPnP6nvOZUNcg+kEA5GJRGD3SK9tPsd07tKo5k7TrB5DjZSF602NFaDY7W7dq1lz7hRmVhjWOdpYn5m8+KcHAfberJZ2lqNYdqeCQiTpxB8GhyC5hMsuM+5XwUldPALZTlbCE4fAQiTFTc44ox6XiaOTD+tTvXzS5Zu+ff001/67d2ndo0vzruVlJVQiaoYSzDJr5HJru27XrfmZj9524FmeX25pOf/Ly14e1Kcthx2cWoY42fRrZGA75JSNCgC1ak7mQP1MiTMjnYJlmkgeBwywqnuLgsJmteENVABoBVDB1Ax3HtKli9WJYfxhdq+tl1xkKgLsIdttitMQE22i6s3tfTlBzC49zlDnEkard9MuDQmPH4GNiHoEmLv0wWkYDe7bNrDim8s3vnr/YaUtmhZz7kcowbjmSYViGu26ti8/+4f3zjtj9bRrP9ihe0uuOnDSa+KSWJ6U2CGUjMmfbFQA+LBYOZMqhbzF/B+CIa4/7AWbHpVZWlAQNPRArQXAFc8EwHrF0n3Q1eIcRqiXlOXtsPYd+GO3kuEabatwCcsMBOyGATiEVXe2PSdG7Yii7wVmj5wdCFoROZOb3xOG0XKA4ITQ7UiFB/zAsSSuTuH48hxLKQlMNgLsgVyKTK4Bxz0mOfLRo1d899bp7uZlxWHvEtJUyqWFnAb8KWxeVnLyL+MvOnb6mPMe0TTlZGiAZ51wGXzt97p+/tmoAPCHW78ede+5NvLnuh5yHRMCXFNKK0vUSEPatlur9G3HKuiJONgH6RleKAFRc0ycZ+9mzUzrtTWXuo3GVi9xMhABzpSn+dasaPyusRPAyXecCEyrAb8JnCBFP64mYDiHE7jem2EbkBh74Rw6vB7XVArgxEyXIYbl9tkIJ7EXx5VM/F7xXjj9CDyKInD4iIoZLp1Ry2Ylauk3l687at9e7ZShorf0hrO0HEiV7dS37U3eX25e2btLC77HdilzdRO3FY6aNH8oUQMy1JMz0zlRxqp4/GFbhUuYNQKW1pXeTcs4v6I2BW4EVHvTgAsOBRg+bwNSsI/aoqSEPUErQW7sYRUuYZmBADVQmkKtSsONX9jb7wEhsjZBKAAAEABJREFUp985KoDcvvXfiEOlgErGvbh2ahni1tmPQd6O2MvkjG1ubmQnK+GpRYAKIS1FjuZj7LRD68DCTy+qalVW3CJ6Mbf6RlcLtgbG7rjcrv1/+/TifQ7fp9ddiM3fAxxTOhshp4MjyOkPIyJimjxYEZqozbKn5va2WaD4O0LA1FzE2O0bl7LnwsttnIBhACZm+L3KCEQmz7BEcJHbZfe+b5vbkIgMJY1kIvAKErfr/UCkQUQT6q1IgRutjIPLpWNwotJh8GWPzO4dg5iilYDWB14LZx4CtAbZ7uG/x04dAt++OkIvKi60/GYq2OuTVMXuHzxz4mVnHNv/n0ifSiUcU6J1o239UCcva/046bpnWc+1yZyNP5UAGzEJtkCA65ZNg5sWFHAjjPDwBL7gHAowkrQ/QIHmstPDrZTL8DrLXboRoLWGpv1UlIPvDS2PPI6Xu/nVnyTLmeQjUZBCsB1xJ7pn7IQkPK0I/A+5Wzbq3TuVG588dawqKiosUhbzl5COsg0PCcX7R2vz0gNHXn7Ufttx3olVIi0R+BA4jNiohnlk8A2PSbSbpS3m/4Y/QKslVmqz3x/R69IjfBpWCMPnUVQEGpZKZGxPMLg50ld8sgwB7nrGGdvcEChyslXyK8OhBW7Y8zCy4n4DHGMdi2vLBgPhJPbCuBMdr4UzEwHuB8KJoaalKy5yq+lvn+ZxF7gLnH/6nEuaZmwe0Hr0Uyec1bpFIy47NZdSikNUYRtSZZMCYLfzH8fsZEKN1eN3FmY5U37O+vX++skEk7CMj0MBenUllGc7y1b90pjfb/Z5LeuGmKnqUSIroTgQ4Kx9muN5rno6v120FHHG+CzUgUutnCgi3Kb1WsgLZTYCthM4p7xx6sZilyotKLQz+NSpqN0ofR3ReC5hotp+yaSr+B7yYCKzJCCm7q8bmM4fUd1y2F3z0BlukWklZ6f9WMWVsG0IrNl2GXk1ZfXqiMkuAR90Atvh9ci0bH30oDKqoATAIgBNwFbcTmBpRSWX+1iJ2SkIVnElLHkI8Dv1AJLnrnoR45jwTxdxtzUn5eHEMq5eSmo3MF0g5FC+u6Mue4NN6dzj+/u269i03FXgVrE8TMNumMA0R+cBbrd2wtdvnMk9cPBBNo3HDadotQoJ8IcVusjwP9xQI3LseVuhuYaMhyFs85GreBHg/timpvIlFRUdNE2r9+4b+DFQuYw3S+t4nBOgV1cog6sEGvBDmr56lZ0evti6JBKaBgS4QROX5t2MvON6yYoK3Z6d+7afe8HJg6bed+1+37xw/xFfP37nIdPvvmqf3845fqe1Q3bqqFo2ozUfOSSeuIf8yUjWTvmEiFCaEbjCKv/CApd65DqOECjlKiqyEg2F1f2TqNVSddOMdj1scKeb2rdpwl0DowXX+NF6FbrOFgWA2nOowCZ/+IEIW55mIife9giwcee+5GaSWkBzR2Dt91spnWZJxeCPhp+rBPSqzcrwVCsuG1RQO2JIQb375592ywDtDgyKJTuRbTgCnLjEBpTL+Ryn1rysRN171d4r/vrs4mWrv79mZtXPN6lpY87Z/ql/HjrkpguH7n3WcQP2uXjEzrvccsmwPs/dd1jLb98+S62ceo1a+PUVm6Ac+A7Zu6fix95xhuaCMxF0JNhqC2oEC2UAAty1z/IE1KfvOKjKrfRQy49OUGxF1u36HrElZyHdftYHF3B3yfUWMicgjIq1ygYFYA8Uti/YimTynxU6zsK4fzR3w+K+2P2tosyr3LysfniQCoDbbp+d+rHiu2fjTyVAr9ysdM4T8HoUlQMVgBISDChD38KhDYtwr1A23eepnL1m9SCLHPkLlR3ZLABKcRCXYXEXM+6f7ijrAdu38fz03tnLV0y6TL/hnF3bdWzbtEPz8lKaOy1XttQk3qlt0zIoB0Vjnz1ZLf/u6iCsBap9axajRiImdx6kDwHLsBJAyAKikmn6nsC8rk4c3jNkhdZcbvQ92E+yqlV4WGgIwIgtTngKzu9aNC+9qE2LxlZWgEZI7TiwygYFwG7yH3f6+pKVEY4JAQ3SnBF6F1zOal4ElztGcYwopOXiPio9MWdO6IdQP9Dnh5VTY7L1Q5J4z3kCAZ/i8IDurVa6p0oZ1VtYx7AB73VftfL4fZvx87OyAMxFKU2HPhAmlDoE+P5xv3+Oydrm2rl9WfC3j89f/cM7Z5T07d6yPQxDoe+a/apP86SblZW4YS1QC768zPi/m4ar8qZRX3mzBDiMxt8RXTMZ8c8sBKgAmJboqjN38bo0Ay2/gvk/5JjKmgUYwcRNaDbLY6t/y09eHkELAD55W30inVB9Qz+UyLCM8aFZ5iSb0nDyn1VFbaLnVTC/YuyVPIlas8HnjNE7cW3VM0ZwOI3666/emtvNeRdhAUGO0VM7DvPNjJs35s+3G9+fnBkllVIAAfZeDoRrS/++Yb81f46/QOvRsbx1hHAClNHCArd27Tm7qzkTLlZHDTc9IqN+1txQql19T7nPWATYDlpt8qSuGrETzItbyq85+MZtkQz/qwdoZAz3S9Zd/95tqIBy+MwsiwMQUMiKw00pUbvnWl6eUsSdtqxsbCNQMqteG7qcirtvKflnigBXUHAS5ShIcIb/eLiXgLmtMpzYCdqWNmP9+qiHUXiqMdwZ5w8k9pI4jKG5fDdO/d7u601cHCYoYklEgFvknmaXfmlxgfpt7Plrrzxt51aaUibfMc0uGcfhbVs2VmOeOEH9746DVVGhbQ+QijbnJXFrYcd5iGDaEOAQM7+TUQvQuLRQtWxa1KQmMP63ylA6hyRrEkqmq6m9Bvdrx90rzXJh53onkx+OWZyY/LlIkjtk3YhYnKH/E1yaxLjhOyeRLcU999qm2ZV+y3H/I/hZ8AVgjt3Zmf85Rsh4EBeqgwAbOx5owjOhV8Cf26ZygkvtSwy/BtFpX3+Nj1v91QAK4++6CgRo6or/Z9KggkWJPGv9hl+ChsE1slFCQ17QWtTnoSv5k04EuiFz7sIGx5x6dCo3Fn9+cQVcThI0FUyAASAi7UtOHaw+fu5kJ0MCbRGZwxj8DuJSKIMRYFtjWrwRh/XRlYFuz1YJTbP7tm0VjOIYfnwb66QVRSRRXtq/rh9uV9DBiVYA2MCw107tl408TRAPokangwkyt+/EZQTRKkCT2c4IYeNPJYAKwy64tyKZ/LcFHXZJqGwRa26UwvHsfyOIa1oZhsvE0nqvt/WC6qo/o6Xqx1BA0J3oVytaTvZ+msvlPXT8OMsDjpAK12nLJkAAIo3EF4ab5Vgpaqp31+bGrJFnBJqWlfBbk5bi7jekm/r8ldOcKAGcY3NbWgopmcaCgOWk5+MP3K6ybmKhCX11PWK81kMdpBgjxSG+z+5duyIaO9hwotJA/uiihsToydOynkAc9sbfhHsMONk/UFoQJiCffCUOjXAm50sAgLhT2aK1ZQfcp4QO/uSTlkrTaL2JyM9XWaV0d/o7P68sWDCpKhi0UwBkGCniCabc4xTkyFPY4ESnDq2bqOlvnhooLCksrNsjiy4Na5RZQAL8B/Vtp95/8kRVWmK78uUfyI4dGzhCGYoArJnmJevbvXl4J8rGAmCe0pYQTgZMxb4ALpfqgxx/AJtRj4YqADQ18wAeLp+6FLkku9FHFrXE07Q4B6DWIw8uOqKOF4E59MHx/NG4PhscOQEKng0kLmPi4REctomaVEUg0PJ/f/45O2ogPH2VFcoogHGngT8YJBUXeV3uP6/8drJlo4KEaS3JZ0USEKSdqCn+06oUbGhnjDzD43YZhbDqWIluC0uyqXWvXbuo/93BObXbsoxyxbrZDmtEiSdeqUPAcj5UWWMonHXKEjnwWSfQ4aXhC0CH3Tas4DBajGIaO+bsKJvF6xqvAsCGnodhcCLYyUg93nQQNW66HDH/Dxza0ABurhKHTnjSEzU5zmR/GhU9DGy6ZhVh8RCnqPKAFe64xkkxvZEI5xH8G64p3T9z5q5r/X4uxYyQ4evtqdisghoUaKijEQLJ9HAXbOr37rs8W5gTsqxyegiBLCocoTQhQCW2l1Xe7z9+bGWTIq2koAiP0+nTSrICwPKefdwAdeYxlhZkinEvk6N5IZyRCFgOOxW6tbD2zbDUAJzVz1CG0rmFelLfUaM1PrvrLErUPKxiFoJ1g/bHzS9gbidoa/+CXLKImvUNSJxKyL5wc4XQZVZcAsVeAydJci7E3agc50NocBNJPPnvAyTInRZpJh+G6wfBnEcAJ0RUOKy0SLXL2LGtg5qLFolQhPp/fFWVyhfQlVaQgtcF1ga9oNBzyeTJ36/xePrVL0u9e1o5xPxfD5QU3/KloIJrmu0xB2xn7NmvDYe88A5BmTSVDA9o6FhteGrmd4/edpCTDYPuQwrxfG8RTSjJCJTapB/+3JwqoDaJwgSgdO6dYicXf7i7RVkjq7lNTcMrZp0Rf3n3QOQzMCcXwMkI6oxSTATzB8Yy4jLriMsiufSJh52sQuk/BdPCkQycuSrgOaTPjSC49IXzNbjumvnCO4I4AYaKVkRAjYcnGCzbZexHfkPTOJu+xjvMDfq8qrqyWhku6G3JWCaIhl8rKFQBQ/N/vGDBjLfmzaMSFVaGKDe3wK92fS+uhVKPANcr8zccNedGJYXq5bsPCbIxd6E7w49mVMEonkZQT+5EgK15ljUpVv+6gf2irR7RHSqjB0cPEt80I2DdbhhGWMcr9F6ZFDhWb84FCPpgqDQSpVWEl6BJkyKrYXL+osIjmNzR5P8+wjijNRalAVG2UCl6f8Pad1Bn7tBH3bDz4E0PDttzwzP7D9/00F57b7xnyNDNZ/fpq/ZEeDlNfFuixPKXZeLHnGXMliGBnqggrShfwGXjy1OcuOmRpTkKsvEQLTY8BnIIInMewYVwOfPdtMFGeF3iPA/LdfIrqqvb7/fpp2sNTTOddWoYuvJUVSif17dlgqCbnb+62cRxHWr4izDM4IKCUWl8snjx92d88w1NrnaJsT4j7YQkPOkInG6Vwx2XDgsWqEDoRXEVQXm0Eo4aBiUgqn9iPU89ckfVr7ftVJyLE5urpJYgBKJOZK5JG9+0sJcomOi1/HrShgOMZas2Wf1oAmw4a+pp5vKt/gaBR4Bjov4tW6p3Djiw+tdTT1u7/Nzzg+OPOlo9vs++6vZddyu7ZMf+zUb03q7sgr79yq8auFPTx/beR41D+KKzzzFmjzh13X1D9/D0a9EypvwgzDKyrOzZ4jajiFizAWZDzAaZ5mfOo9gPpQx94OAmiqj1UbGggkFFg4OUtyLx78FhLzPunRDVU47TLrcSnrtxY6cdP/ywAvqspRx/QN7KCsVNg3QNyndBkdJCKwY0q+RrwzQOyaG3b4D9qE1VBZSKqirjpfnzp5729VdcDlkra3KxAf6XgIXSiwCVddOx8aaNi9SlJ/HV3VJIzY13Zcul47+J7K1ZZarh1b3xgqFWIgw7HH8sJ5whXCj1CFh2hGleo74AABAASURBVHRd4SuzrVBGIKjwuLd51F7Ff2HAAhBkxwhpx59KRMwKn0/nhj8RAVs9Ktgobb2O6rDxp3nd8VaxhTAqXDFggP/v006rmnToYergdm1KOzdt2tKl8UsfNY8wTw3/upWVt7hiwMCSKSeepGaPOG3dib16B92aY8g5aY6NX5uwhNNzw0MXaGrnfgU8QGcKivEPMM2BcBJKPHSEQwgcSmDdhyP1R8ELwIkgWinYWwv7MdRPeJ3X277XmDEt/6yonF0/rP49zV/e6ipVXbFZVcP180fgKlAGlQEoBaqgWGlo5BWuDTCXFVJh8OJHUl1ZqTxo+ANej1IubdPJ30z69R8zZth+gbeWgSsp/t56LU76EOBvg7+RqCW4eMTOym3o21p9qqFRJc09+bE2D01syImH9lEtyi2Hk1kXU4UnsaWR1GJAgMOipuJV3gA7VGHhhhZ2m7AbA1kFvX7Fb2NDE0UROTmbHUCzpFZaKQCcdMPlUdtUcLNktvof1b2H9+9TT6u+Z0D/wnJN4YeNtoK9NYWibJWJ1elWVtbiheEHuOeeftbGg7t0iXgQJumxzDTxcujCRCRp3tzQ6Hyk/iGYE+NqJtlxZzB4JZTYiD2OFDmOykafa6m5DwMPgoB3womKFeeBWCbs1/WivSeMH3De1KnTdU2zmoVamw5f+IDXqzhh0APrQEgpqNik2LvnNVcT0GpAhSHoh40BygLeKuP3ioqfoHBo36xauWNtYtYXVIq4hNRaSkJTgYCltebCEwdAJ9zS6msanrbach1LwRgjVVYAbhFMJcCmfLRS2ohIcIoRYOfMNMulqyvRkIUHBzmDP9xLJewWQ6VcIRCERYB7BsSbrqEMLnHmUkCzJJaZKQD0fwOxHG1g0bq0VE09/oRNr+45rLiR0sNU4HjMdsg3gto0Ki0feejhBe8ffsT6FiWOVsCx7G8hIWrdcJJKbHzYs5+KXDhjnpPsjsR1GBa4byjxe8YDfO5AQrTKdIN7BZgTM9Eq4ir59E9kwcOE4FjTuCVLdukyalT5awsXTsMviGZ36wjOQ401vsCf+3366bz9JkwYVBkI0JTsJDb3T+DSRieyIpN8BExP+9uuWwvVqWWjwtoihBSA2ruYLlK18xoLdcyBVt9bSiiuWELnSMm/zEGADaVpaT6dsqiofqDO2fvUSesHJPIenRzmE0THSPf7FZUBDhU4zWLlmiruz2NlAfidDX209DjZz5Gp6sDOnX1zTjqpeodGJWWwW0SmlWCQ9u/UufnMU07dNKRtu2BkZhE+1LbZWEYENNCjAPE57fcRuDSz/AyXY/v8oJlhCpG4iBNUaM24BLE5W3pXuOyFz4SbDqISwhUKPIXRNv+gYbhvnD59t86jRze9fsaMHzcEAn9pmgZ9wDZqhAAibZi+bt2Pu40b93f/D9/v/dumTdyrIELOxIPnInCSpZP3xiQJ8U4gAmwEaamLmiQbUn70agI1VwM+JOhR8eNZk1Yy3WGDO6niIss+B3svA5NZBkk7ZgQshyufGzWL3/uIRMMtSxHBifPAF5d5URnQYRWgZYAWiNA9FBEOG9Rl/m4o89XUvzjh2+qH82u0xor7xztqNG8etHPVu/sPLygMBkoVtJXoNbbKP3oMO99mxcVlE44+JsghBztZhN8K5kQ7OA0izs7npke0jHA8nHMjrkaKPcCJJg4dcF/0E5AwJzQeBtd2PT5kUkV4JRVXEvCQIUd56lAE3liwYHCf99/v3m3MmIoLpkz5ccq69TMqdOMvXWkbNKVqG+Yt11o1TBorFldX/zxq0aLvh3/22fyOo0Y1O/KLLwYvrqqi5cNRvluFvoRLi0wVXKHMQIAWuqgfVhZvz8Gd8Unha8a7hnPoEJaGJ2ObQqOSQrVTH44CWooOsgyVwFQjQKuqbpbpX0s2Kp+uIpYLBzzom2n4WplFTJY/21pd32IRCAYVLVx1mcqCUoZ+8Z0TqGRblWJKfQWAJmvuLW+pwjLFWwbtvP7aHXYo1YL++mkweBsnCSCXphW9dtDBhadstz3XqW/LL/KKdeE6d85piAy19mFDU2NiXw1RLoc7FS7X7cNJKPFgnf8gxX3A/IKcBZdb/VbAzUTiD+YcFOwmsNO5GRBVivsGjF26dPBxX0zcufeY0d07jhrZrN2oUe72o0YpWAqCW65HlnYdNardbh9/3P+KadN2n7Nxo5UpK5SuyR9OjDwUYabLExEmlHoE2DsxzXXXfm1qFcKQUAN1AYyHJnvTlVAx+WeHHrarlzhRmaLCmYHAWhTD0grwyZRF4e8jIpDYE6ebaRzUtV82V/qsrPjsZM6p33izt2zbo728346VV/Tu1byosMBe/aG2kiR0kLnrmf32LxreubPHJgs25HfYyDAYSaq6Jva/4PkY+ADwtvFI3CSA+EJNRjpsQPvA5bkKN8DlMkaG4TLjiZ/l/0MpOQmRVhFcNowCsBQ0LIXa2MTwZtzxdEqo6rgSyiQETFtJzqRvUVZCxb22vEYCviMcBiDXJpqki97dW9ilbHn4jF1kCU8KApxHZZrwDf/5pkTTNH7vwmRobg/zyJCbh17+nhZqq7lRnOBv1FUAuqLsthOkdmvTxn/bjv0aFfJ8BJ3fWMSyogT8cK2SR4td+O4hh+ndysoiHk69eNfgPlovkmNyXJ/7DMKXgKeBbwMnY5yO1goelXwu0ufWu5wFzQb0d9xnM9HEPhgV4CQ7OGknzsvgZKsHURK79wIiQmlAwFQBaNuqsTIwbh9WJj0xj5HjpltMpGGpJ/SGCoxNglyxYyMiwSlGYJRVfktWblK/LdoYtaPpr65WSkNLpDLkn0tbdvt/J9HqaVWgMQysqwCw0SumpxmXuN3qvf3280OL1gpwbSYX5p9kBYB5FbpcjT4+8qgVRa661WFIGLMHf+dWH+5vQPM1QaApZCz8OabdAW6iiZviPItEOSGR+R6Haw6zcEgBlzlDVJ5YR85X+CNNteI43UPIm8rbt3CFMheBVmZF49a69Vf80YSfqE8slQCVIIUiWh3Km1h+RhlFFACikFnMw9bYcTAt1fl3flqqor2E0E05HyBakGliSQx45NWfOFS9g0UWXJpNC4CqaTFpkuJObxZxlHrvwAPXuoLBRgWFRUo56f0jNcOhHEQbRJ2bNG1/0+BdLDd0QAYcv+eJd2yUOS/gWPjFMzcA0SyJqwLugwRXBXCskxvPsHcMVRG+uU1cscDZ3dehmovAqSDOR+B8iQHI7HowLS1whDIYAT6zqMVrXk6jXOTnlEpA1Agxexoq6POpZFsCLIrFCloES1AaEEAzrp6xynfm76vUFz+uiPi2MA46xaF3KvKtZWjq2DC0mTf/ZyL3g7HK9DUEhtqiGgWADZTpjFwIq37Nm/sGlZWFzHYFBZaiFN/GBnDVTX/r2+QScHXtoJ3LOzS2bM85rsjd4ugmIMfaJNjz5JhLzaoANkS0qHA4AQDUyuXLhQ8V5TbHnE9CJYvja8nAgT9G7rJIvE9Antk+lIIq5A2xFxK1soEAvhc1X6Y6EnoQ/nXuG3rJ8Vs9ENP8VUdZVnn4ObAUdTB2ahlfApODADuFliuFTrruw8Z4PaM+4GAgqAJeH4wEaVIDNOXvf/SLXB5uZcnmu1e7jwt/ZjSNc+c6S0jf2m+/9dytjUJa+NbI9LJkQ0/8jyxahm5NK31wj2GcTR8tONF+NVvv0qpAkx4nCv4XmXDiIBwhIMCXjQc0cZJgL9xz/wDOgWjIToVepEMrA99ZWlcuwD2PhIYjlEUIcOZ11OKu2VClNI2fpvDgkOk+3KvBdwY+2lQEDHZUGpzalgSqPbbfO1uBLSnJ3xQjwHeytnGMlrfHG1DHXz+2QKudEBgupQeDyu/1KoSHByT5DvkZb4z77ak/F62zs+RzF9TaIVr+ythwsQEzLWKf5s39bQoKQlvZhnr/sf5YEn16kmlJlTqqe4/O3JnQQqQhQQsR+X/gA8Ecz6ep5S1cJ3KXOySXk8QzCZ5AzTgHgthxtQUb73/Dj2NW3KjHi2sz+gkBfFc5xZrzDLgREZUweAtlIQIchota7DXrqpTLzU9TeHBNByTct+F3BiwLutevdCgDDU9NqXUbq+2SkSWpdgilL5yTsi2fz8Spi7R7XpjuUSYdfQNKgK+qSiVSqbSGQ1N/L93w1rn/GMel41aitFzcXVeAv7IT63pEu/7fkCGra358LncM5v+tiREQoLH1LrkONKGSS/oPYEOdiIxotuYmEbcjMa7d7Q73SvDnYIIJRygOBGgZIK4039+I+Fyqx1n7tZop/OoTlxlymKWqfoDcZyUCPBEzasFXra1SPpM+cqIa6ciMDWVgOED3eLcqAvzpR0o58Zkzj/OKLSVTNTfGshASGBUBTs7+Z9SQOp7/ev770tfHz6uq4xV+idcnUO1RQZ4ZYKIohEeI4w7p8vewcVPlV70Pe56b3XGzOquE2HkNGyalAsDelFUktWN5eWjsn0IuF3LlRSwMi4ERSF17efYOfeMoZG2FPLgaB74Y3AnMnuq9cGeBhZKLAH98ZjnUvoNmAuKfVQhwxjXncEQU2ucPqpm/r1CuwsjOhs6DoCJiJM4D3+2QIhD0+JReu/+68/TZ65v9+0q7CDzEy05GwtOHAPd+4URuyxJcfPenjV4Z98cmKyEdSqW/sloF8S4pM5OBivGfpil2yJnuuk2eiW32forL27ms3CqhxQgM6/3jPrQKIGTa50003r9Tp/Xowdeua4m3ZTX8XsUfR7Q8Eu3XqrSka9emTWPROKiyc1vb41EWLk+q2RfA8pQoyAolFgErBYDPJbG5SWrpRIAz+kx3X5s6c6lyRZlsjL6Eosk+FQVnPro/oHSM6epeKATozRm8x0ddh5lXx5CBjuuQ5QBhtB74ITfvb9spLvNSUX7JI24E2HacgdhWQ5JKKaUuu/fzspufmOpRJnMCkEaI+B75MSwQhIXJ0A2Ix9CSUhSNPhMKQpHwV1apoNdrzFm0cUzH/Z/m/iudGWbBBsK490zEkCktAAgzp2v79tuMlrtWwGBhau9iuOAvN4VWgMO79bDTsjlM8G/UYC8wt97l5AnuCxC1VwIZoeQjIApA8jHOpBw4lBa1PN9OX6xcRZyfHBkc9PngGe+HCFHjIHZeDF1XbPgNNPxUBIxQ4x9UOu8Rxq/sT3NWqUCQuo1lJt9bhkpgJiBAiy93ErUty+NvzCjZ57zRhido2A5P6nhPAh6P8qER91fBMuD1Q6ENKgNKAZtIFdoAA8NRuDEgq0Ph5FACG33K815zu6qu+vekUbud8gZXWDWzLaBSbOei/tZsFYAdystre//MKHIzRPo645AVAJVyJt0wqcO6drXbQ/9F5MDxZ24YwzFp3AqlGQErBaAJyibrpwFCDhFXc0Stzvhv5qtNlX6lFUSu2GVjrIeUgKhR0+eJXtqzI9luWBaBsxu46YylkARmBAKPohS0DMOJpLo+P85tLQD9AAAQAElEQVRZ4Wq991ONXho7d6NyuWw1wJq4ejAQWjpIpSBQXa38VZ4Qs9EPwFoQRI/fgHJAeQ1WhuXrPN+32ffppc+P+Zlz95xowZ8g7i3gqGSrADRxu8vCY1LPDfdxfAetRmEowLF8AwR3aNE8evdhW5rce3/bnVxlAgIcirEqhwwDWKGTfWHcJyPqM/d4A2rUhN9VQUlY/6O2hkH2vutvF1wbmp6LIL5vYz4Nm2MVrSA/wlOsjAAhS4h75HzhpKx4/OqK+yeWdzvkBddXP61YDUWAyp6TqJYymkvTV2/2/7zLaW9N633Ei7tXVgd6W0bYFsg9AU7GrWkH11IBKHZD+9b1UiRQS4ZyonTUikdccDKgEaAJLyIooR7NiootlzYiM25SA0cogxCwsgCwmDIRkCjkDvPDxGW0UWv04uiZyl1YpFwufIeiSATRQwpZTKOEpcPrrXFz1eZK228bhxnTUTzJMz4EOA+Ap+pxB9k6KZhfrtlQrY64bEzrsj2eKLjruR82rqsMrNU0F99180j1QzRlBJS2YvzURd93GP78ou4HP9f/twXruLNsfUmz+7kIOAQcMe4Pv1qyVACaFBZWKao1teKJuTC8HmUEY8Mj1pwLXS6rk5CYnPQmiUJmsZ0CIM8ss55XIkpjuv3qtFnLFIcC3I2ij/zw0xTAtyQRhWhoGgaUlH/+jwd5WqZkIHQkWCi7EOBwMhvTqOPoZlXRYbr/z0s/lHc58NmWjYc+7j708g+9b38+f/G8ZZuXrK8KrPEEjHV+Q22CsWtthU9ftmy996+J05fOvvaRybOa7/X05mZ7PNHuxGvH7r6x0svTbM2yieY/A577gG2Xo1gqAKXugjWqnpmN429IuMFkeKBbJPGcAIyXlBRYj8U0b3AlJIFEIyAKQKIRzfz0fkURJ4Gj0q2PfKm0ggJlNiGQ46MBrzdq3FR5ajCKvvbRr2rRcssVYSzOFPyRnUIBQhYSNwfi6jDuo6/iKf+kGUuKz7/jk847nfBap84HPNuq1d5PtWg+7Mmylns/2bLdvk932O7wF7offeUHA54dOWugP6DXG3p3nOPHkOSeKraNP+RCywDpRuVCt6uofgB/cPX94rs3FJUAlTxLQFA3YEUxL1xE3cxFJSRFCIgCkCKgMyQb2va5sdYAs/LM/n2VennMbFXYqFRpGlraKIJGUFeB6vQpAWsrAuqGBydGKVmEF7cKj/AUj6xBgOM7Z6K0V4B5DSdjiBMP/4nSHAWmsgLHniwtAJ5gsAi/urBUAolcygcbnu6FJSCRaW4r7QbdMIq23UZcEbAIT/FIKwLci9vqucgQQFofT0Iz56Fc3A2SjaLlDmbX3v+Z+nPRBlXYuJFpAQxYKgPVGFqE2dVUKAkBmtutLrpjvNqwyWOXOpcly/i/HUpZEa4eRzF3A88EZwJxXwma/O9CYay+nwgOJ0sFYEVlZZHSXBy3qo2l60hfi66J1wrFcgElwPBWK8PHH1BYVrGkEiEbNIx1EZ7hHunrMoSXQ+62IcCJIVa7qMgkwG1YZesVlThuAT0ZFdgJbEsVVT515g0fqCDG2QtgCTCLYOBbEvB4lG62j7BZxDj9md/TI2eqDyf+4SSFByEUAAvlBgKzUA0qATfA3QBOB/HQibuR8UAwl7PDiY0sFQA0x01cLo2ZhKUK/7D7RNwYfp/SqyuVEUzMb6TC799kUy72Nm1EJDgNCFgNA7DxSEORJMsEIMBvzYVIh7OTz4MbUy9i+s/L1UW3faxcRUWqoDT6pECkGaIgLIp+WAN0nfpkyCtxf9D5MdAJ4vrsz6YtUdfcx5OubZP/BRLPgYVyAIE6VfDj+j9gLst7CK5j0ztkG0LsLT+NBHYA3wm23YAIMlGJP8qoATWeXkNFNKSBZGnY+GFxXoDuabgiMG/jBrttfK0amprqi5t6BKyeiygAqX8eiciR25VyAhxn/PM0x7jSfPX9n9VV936q3CUlysoSEEoc1oCgx6eoCBgJmmekQ6Hgjmx6UFez/9qkTrn6PRUMOuoOXY0yJaZng4SEMg4B7mVxPUrVFXwT2HYzCMjEQ4sQiWZ+LmG/BNe8hxM/2SoA8ysrIxrSQKiXHpMCH1sJ8YM1PFWwCFQo5YeShR9zbAko9f6C+Xa/zHmxpinyKUFAFICUwJySTLjS5gnkxK1vaS7FZcPoqTd/RK/7U6UVFqmipo2Vptl8wvDtCHihCFRVK64WMNCIK/g5KYWh8F83VHBrfCoUBVA+Js5YoQ44+01VWY1vk31C3HHU0QxB+6REIv0IWJaAw5f/B4k+4CHg+8GzwBg3x9/4iMrEw4jKmf3d4f4TvBycELL59Sj1xK+/ohWOzCsILTjSN8E+sAjovmqlV21WRnWF0r0eZWCowICCoAxgyh8y2ICcAtM/tN2wt1r9smYNT0iyKtAcq0AJSxsCVgqAzAFI22OJKWP2Ds5CDH68LoXL2f5wHJNly/r469PVoee/pdZV+FVReRPlKihwlHBotcBWq4CfCkG1F0qBTwV9GH6EVZNuwAM/+IfCqzwqwDkF+N5omqaKmjRWz773qzrm0ncV5yU4yPRPyFwFFso/BKj03opqc54LrV4H4ZpWApruuQU2wzkctgD+ZE6Ipf8LuKcVgbP5uZkdlYnr4Pc1GI0e/iaQXHZpjfprwWB3QWHED9KHhtgubiLDQ418wKc4WdDAEIFeBYUAikGtcgAFgf6Gz8t5BP4vlizh+IhVEWZaBUpY2hCgOc0scxkCMEMmc/z7oyjcEedluPyAwXFM/MDxA0lT6ndWsb6YslDtfvxL6tsfl6iisiaqsDGsAS7bz1lYkgY6Eew06IGgCgb82w71gf82QU0VlBSr9UG3Ovm6D9WV93yigs7M/pw7dSrSidqBgr9QFiIQZ5G5G99niMt5AjTdH4ZrWgh2gMuOKnlXXNP/fLi0InwE16ozhOCGk+0vBnb0xiu8PmryEbn58MOJ8MwAj7+rKheg3G6LonANJzUwCxEJShMCVi99I5SJDEcowxAoQ3loquQuZHviOlZiD4gfRX4glyPycWAunYMTnf5etlHtf+br6vTrPlDL13tUcbMyVdikkdIKrH76ytE/TdNCDX9h0ybqlY/nqh0Pe1a99xk7bI6iU5E5HZKsExwhQSAzEaACYGsKv2DypKgf5WDoQI7Mq9jF336H9t+yXNMQGvfMScQVSh4CUd+1OtmJFaAOGBlyeQrK8Rv4GrAzezwEtxLHTTlMsDvufwDXEHcyOwI3lu8DRgDV2x//qvod+rS6/l+fq/nLKlRxWVNVXN5UFZQWb1EGOCCBhOxIgwXBXVQEJaKx0ktL1TMw9/c57Bl10e3jnKzzr5s8cZA1/3URyYnr3KsEFQCaGixr9v2qVfsGCwqiauNejJ8p5fAXppL/r9owlk9ZuZKmFavMPrAKlLC0ImD5wUfJZB4AQMgQ4u+M+6PzQJ8OMZaJSjqHCZjGU4jLXjOcMOLyuf3gswJsSZyQ9+jL00KKwEHnvKlefv8XtWSdT1EZKGneTFEhKGzcKLR6gBP5uJSwoFFJ6L4IvfxiWA+CJaVq/PdL1CV3f6q67vOEuuqeT9WCxTEt8Wad2Pg/puSfIJAFCFABcKKpui6c/N3fCmax+nUyoIKHlIAoYfVlU3F/+ldfr7LJhz9SJ3W2SUaCk4SAnQIgFoAkAR9Dso0h+wCYM5yHw42VZiPC3uBzwHa/118hwxnQf8G1JXyOFOcHXHDrx6rX8CdU7wOeVGdc/4G6/b+T1HNjflGfTl2sPpi0UL3/9V9q9MQF6qFXZ6gL7pigho14VbUd8og67rJR6sVRs9S6jdW2edUTCOCe9XkUrlAOIpCLVaICMA0V+xlsSeMWL9prs1J1TXS18rquq5ASoNJrCVjp8/02celS7opUW7YoF9/Aj7Mu4QhlIAKiAGTgQ6lTpGNxzWHDm+EWgWMh7ilyLSJwX4BYdi7j4DsnSX2GuDHRX0s2qLfG/qr+9ex36vJ/TlBHXfyuOvmqMaE1/Kdd97669eEv1SvvzVY8ebDawzY8puRrhDlccShuXgELCQJZgwAVABbWyS5V2q4ffNDU5XZ7GaE+60Fdeblmv35Aqu41zTP0gw/LHWTHzUgciIlImhCwWgXAIokFgCiknjlT+WNkS+tZF7ix0tuIwCVNj8CNp6Xlzp1sZO+NMz6iJYW+RKqDwBwKgSOUmwjkZq1qFABuVmH34VUbfb4dbv5p5kRN02hGj0BEDwaVB0qAoaXYEqBp+sWTp/y4zuu1G4f8G4UeDRbKXASoYLKnaFbClmYB4p8UBEqQ6l1gjsdzmRIuYyKuIDoAMUaAIzYVg18sFITw7WBaA2bATSetR+acvMi6cdUCboUEgexCoEYBqESx/wu2pZf+mHvY1PUb2QuIKmvAEuDhPtxRVYSoURro6TI++HvR528vmD/MQUL3QYZLAOEIZTACVsMAYgFI3YNjg8+Gn/uNUxGIJecqCN8C5pBconfCm4l0uWqASwYX4zqV5EdmtJhuD9ds8iKChHIJgVytS40CwPrRNLeUF3Z8zOefHrk0EPjKSs7r9SqfPwCRZFkDNBUwDP2XdWu/O+ubb6iFIy9L4jgiZx1bCklgRiAgCkB6HwNN/FTyafKn6T/W0ryPCH3BD4CTpXDz4/I00udBLFfA5a57cJJGVGg4u78XcuChRlbvKESEBIHMR6CuAkArwD8cFrlol/ffH/KXx8MPhGmUIIYEqj2ekCKQMIMAhhe4ERfT/W3d+il7jhvHPcbr1sOsPFcigNo7HKEMR8BqOEosAMl7eJzUx8l9nOTHyX6x5jQfEQ4HMy6H23CZdOKQ0ePIhT1yrhZ4DdcbwIkgLk38Agnx9EIOL3Jb3wYfwIL0hLIKgdwtbP2G83VUdQLYCZXsMXbs8M9Xr34PwpbtOxUBj8erPD6/CuqWokgqGmlKV5ryBQKqGsMLPq/X+Gbt2m/2Gj9+KKQLwXb0FgQ+BQtlBwJWvStRAJLzDLmcj8v6HkDyXOYHxzF5IPlP8I7gceB0ED8s3C/9TGTOd4RDgiwTv2dOG21u2cqVThwOPR7ptAMTF86RYhhuhQSB3EGgvgLAHxH3IuYEFye1LDnj66+PPe/77ye4XG7bONzP3+fzqWoqA16f8kEh8Ad0KAVKUS8IMXKlS0XBjwbfC7lqWBG84GAgqDRNq7ps2g/fnfzll1xHXL/8iB1BHCPkZJ2IAPHIWASsFACZBJjYx8aeLRVkzmLnpjyxpj4eEbj//11wqQjASTsFUQKeJcAyceUAzxZoBj/OR9gH7tHgk8DHgA8E7wHmuQWUoUXxatxzCMTqPYSIUD4gkMt1jNaAch7AGai0DnZE4xYvPrTzqJFrF1R7JqKFphJhG88wDDT8ugoE/FAEvIpzBkIM5YCuD4pCAA2+DrmtiRlLPJ4ZfT/8cPOYRX9Tu9/qbelw/JEHciTKJGiZmQQmDAGrDy97ftzaugAAEABJREFUdwnLKI8TKkDduWsdZ+mfgutYiYo1e8mcKDgv1shpkGcPnhsQcR+QD5H/SDB3BKXiMwXXVu8cgoUEgdxDIJoCwFpybP8OXjhln673Gvbx2OF7TpgwdUMg8B166o4VCKs8qE2sDwR+O+qrr2bvOnbszuu83rZW8vXCLsd9LBuOQFwoAxCw+hhzNnqTDChjNhdhTxSey+gehtsUHAtxHs2DiMA1/ewl41JIEMhVBHK7XmYKAGt9P/5wli0c5zR/8+ahfd5/fw/01H+ftHbtF8rlWs5G3HkKWyQNTVs/ff36qft88sncvu+/3+eHNWtovtsS6OzvvyDG5TpwhLIMAatJgKyKWAGIQuxMMzdXwrAXTLN9rCl8iQj8HXKiICcN41ZIEBAEshUBKwWA7fZlqNjr4JgJPfW+J3355f7t3323zc5jx/76v7lzv55XUTm1StfnwzSwHkMFW8cLNc7i3egxjMXzq6p+fHH+/G8O/vzzPzuMHNnsyIkTh/y5eTNn98aaP/fjdrqiIda0RT75CFhZAJi7KABEwTm7Icp5MDT3n4XrWNfmcqOb0xBvfzBP/YMjJAjkPgK5XkMrBYB1R1utOKv2Id7Eye4VHk+/+3/+eZ+9Jowf0nPMmJ4dR41q3n7kyJL2o0ap9qNGFsMt7z56dOc9x40bfOtPP+09e8MGru2N9SNVUzyaJ6+tuRE3KxEQBSBxj21nJDUZ/AS4OTgW4u//WUSguf9NuEKCgCCQQwjYKQCsKi0B1+PiRjBn18LJSOKEvwtQMponWWZcCmUpAnYKACep3oS6cY4H12gfhWsuCeUGNvEqjkgip6gFasNzL7isjbvm4TYm4ix6Kg8XIRYn0MEREgTyCYHcr6sTBaAGhX/jgktmePIVLjOKFqI0nNj0PFyh7EOgFEXm8iwO23BJ2lTcWxFXdnCOx/8gxGfO2dxssLj5DHds42xvpnMNwvlecOIgLvOCqABRKeLOl9yxLpbfOAGi8nUuLogb9wXApZAgIAjkIgKxfhw4CYiTh97JEDDY038BZeFpXOzp4FIoSxDgVrG0KnHzFi7T5NbSnHjKJWn9GlAHNvZ8R5kOZ7lPQlrrwNwQ5jq4PcC5SjuhYjT3UymKdZ4Ezf20GHAvgJeQDn9bcIQEgfxEIB9qHasCQEzYQ+DHlWZXTiqiXzqYvTzu0sWNi9iApKMMkmdsCHSCOIdofoVL5nwNbujELWjhlTSiheFgpP4fMLer/R4urQO5sqlQOerD3eumw+VQCJyYiPGGIMbFYCpLcIQEAUEg1xGIRwGoweQjXLCnxY8GP6q4TQlR6TgdObHXT4sELoUyGAGapKmocctoDtU8gLKy9w8nbcTd3mgdWIIScO/4eMbIETXtRGz5W+BvgmddcLZ/LIVaD2GuDmD9xYIGMIQEgS0I5MffhigARIgnctFsyKV6J8KD++0nY6IgNx/h5kTcdYyNxxvIiyZLOEIZigAbJx4Kww1nuNsat12NtYFKdtU4XMAGlHMOJiIzLnODkxXEYRIqwFRguGd9LIWmef8VRKC5/ym48lsCCEKCQL4h0FAFoAYvNvqjcEMzK2di83hONtickAXvuIgzjzm5ixYG7ld+BFLhvuP8eOFSKIMR4PHMP6F83CmO49K4zHhi408lgMoKrUuZWmDugvh/KBzx5cRJXMZEHDrjsMvZiLUKLCQICAL1EMiX20QpAHXxWoabx8FssDk2yQaAs5L50eLkQW7Ny17hAsj8Cf4RzJ3J2KvnmDD3HWAcjs+y10gLg93OcEhCKAMQ6IkyjAV/BuaOcXCyjjhcwTFxTi7lO5hJFTgBheFGPDfAdXIKJsRqaTOuuD/GYLj8DcIREgQEgXxGIBkKQF08OUTApUQ8TpPrtjl5cC8I8CPExmI7XO8CZk+GplhOEKNJk3FoVUCQUBYgwINluFcEe5eHN7S8BUUlVd0HDf19+LnXTTnjXy99ceWrEyfdNu7XH+6aOG/GfZOWzHzgu+W/3fvNoh/v+vSP729+f8aUK1/5/JtT7n7qq2EnXzC5c99BcwqKijlk1JBi8HfBpXBsbPleNiStRMTl7+QTJMQDbDiREpcx0duQprn/Ebj8TcIREgQEgegI5I8vP3T5U1upaTIQ4PDMF0iY+0Q0ghszlTQt3zz0hHO/u/zFCZP+NWXlvAe/X1V0+Yuf7HDYFXcO3eng4/fv2n/XvZq377xr0xZtdi5pUrZTUWnjPqVNmw1u2rrd7q279hradcBue+965Gn7HnfzQ8OufuPrvg9+v1q779slv1z4xJiJOx9y4oziRo253XTM5UKE1mAqpGx4Y91FD1EbTFy9cA9SoWJ1ENxYiZMDORwzAhFpmYMjJAgIAoLAFgREAdiCg/yNDwE2LhyLplUnphTQ6FcceP6N39wx4fdp932zuPiEWx/do/ugPfYqLCnthYRoUYATNxWUNC7bcfs9Dhh+2gMv7Hz/5OXqtnFzpu931lUzikpKuWNkrAnT9E6rlNNjqGNNP5r8kfDkUsnb4BaDYyHOvbkFETgMw3kNuBQSBAQBJwjkk4woAPn0tBNXV743dyI5mqV5whwunVG3nYfNvfr1r7659+vF7kMuu23v8rYduCQv2fsAFDdv32mXI66+Z+cHvltRdclz4ya36tydB9w4K/QWqc5waOngvhO4TBp1R8ofbmVe4zImeh/SXCnD5ZbxKDuILiQICAL5gAA/5PlQT6lj4hCgWZoN1F1I0vH7M/CQ4/+45dvlK89+dtz2nfvtvLemKaaDJFJMmtas1y57DvvHh7Na3zBq6uROOwzkZFSnhaCiwiOmH0UEx3WHrBNiL5+9ffb62ft3EqeuDOvBibdcesktkeuGybUgIAg4QiC/hBL9Ecsv9PKvtk1RZS7FdDzRr8vAIcv+8c3SZYfe/eJ2elGjtsXcHQCJZAAVtOvZd9g1b03qDp5a1rodd7h0WqyrIPg6mAoBnAYTx/d/Rioc749VMfIg3t3gHcFcegtHSBAQBAQBewREAbDHSCS2IMBJcFzexxUbW3ws/hYUFXsve3vK76c990kHo6RJB4ryZStyZY4GwDKBNVgBhtz5ydziY2588FuXu8DppjicWMfdDdlzRzJxEWf0c4Ihh1J4BHasifB8A+7GyeGY6lgji7wgIAiEI5Bvd/wm51udpb6xI8Bxfu46xy1jbWPvdPipC276dqXRtEffHeru2lScyW+bppXtNeKSPe/5+u8/2nbf3qkJnTtTvgtACsGxEOW5lp/LDDnBMJa4lF2MP8eDDwXPAwsJAoKAIBAzApn8SY65MhIhKQhwMyf2/Dmj3DIDTdPUuS9M+P3QO5/qEVQat9kNky9CeJhHBt6UNG66ww1jprXY57TLuT2wkxLyUKxXIej0t0QLCldO/B/icFc/OI6J+xtws6w+iMFdFuEICQKCQGIQyL9UnH608g8ZqTERoHmbZu4BvLHi4sblVTd9uWRlm/5Dw3r9deMUZsnbpimt6VHX3z/kipc+/c5dUOhk4xxucHVf3bpGueZ+/dxTgJYU7uMfRcTSi/GohHGzrEpLSQkUBAQBQcABAlnySXZQExFJBgJPI9H9wJbUonOvtdd+Nt+rGjVpayZYqCkFUtn0r9tOQ/a4ddwvs4pKGzlpcNkwnxOlfjwAiSf1cVMe7ioYKwxcrnga0uVZBRwywKWQICAIJBqBfExPFIB8fOrO6nwpxHhgDBxzat9v8Ioz3p7SyCgo5CRBU8GiLH3Tylu3H3zXZ/P+btqi9XrTym0LeBKXO4NraCgueK7Af+FyKAWOYwpAkvG4he+buBYSBAQBQSChCGTpZzmhGEhikQjwfAbuGx8ZUsen6y57rzjy2U9aNi4ssl265s66/v+2ihY3btIXloANUAJ4QuW2gMgrznvgpECec/E8gieDdwLHSt8hAp/B1XA3gYUEAUEgqQjkZ+KiAOTnc7eqdWME2q5xb9lt+7UHPDqqZfOCgkIn6+YKYjV8q8z6V1hc2v3mj2YtgzLAU/WsCsfG/w8I8ATMWGvNvQgYb0/E59bDcIQEAUFAEEgOAqIAJAfXbE713yj89mBTatyy9ebjX5tU6tZchS6HM/vdsTaFprmnL6CkUZM+t3zw04KCouKgTSli/V1Rh+Kx1zT38+TMuqsnbbKSYEFAEGgoAvkaP9YPVb7ilC/15r78F1lV1uV2G6eOnKFXG6pR68JC5aSlyoXGvwaTJi3bDrz0hfE/1NwnwOWSQPb4L0Za68BCgoAgIAikBAFRAFICc1ZkwhP4OG5t+U6MeP3bhZ6C4vLmhW5l1w2uqXUuKQCsU9cddxmy/znXcpyet/EyJxVehsi7gqeAhQQBQSAtCORvppYf+/yFJS9rfiFqzW1l4USnIWddO8/dsWfohLqmBe7oQlF8tSyeABilOiGvw664c2C7nn0WhW5i+0OjySuIQnM/Vw041aMQRUgQEAQEgcQhIApA4rDM5pTKUHjuJw8nOpW16VDV94J/dGPrVY7GP2ho0QWj+GqOBgqiRMxgL03TGl/56kSPu7AolgacB/7sjWpxeeUquEKCgCCQZgTyOXtRAPL56W+r+7W45H7/cKLTCS9/vcmvGxwmUGUFISe6YBRf56pClMgZ7FXcqMl2x938HydDAVw5QIy5R8C3GVwlKZogIAjkEQKiAOTRwzapKnv/V5qEhbx3Ov7cv/1NyrmVrSp2uRStAKEAh3+0HBwCqKn6kGPPGtS8XecVNfcm7jT4c18Fbu6DSyFBQBDIDATyuxSiAOT382ftOfvcfBc/TVO7Xnl/SwqSmxcWxKwAGFqsKgNzyhLWtCYXPDnmL5vSDkc4J/vBERIEBAFBIDMQEAUgM55DukrBmXyciW6a/8F3PjXfo7lqT60r1ExFzQNimC9gnkjmhrTtvv2Q7jsNXWBTwhttwiVYEBAEUoxAvmcnCkB+vwFHoPpdwFFJg7m/4/BjO9cENna7lB6HOT+H+/810Ggj7nnablLfMRDuABYSBAQBQSAjEBAFICMeQ9oKcb5Vzvte+8A8v6EV1cg0cdNgUHPn3A3GPGjgPO1MkWzZqftuHbYfsNCiPJw5ea5FuAQJAoJAShGQzEQByN93gOP6B1tVv8cRZ4Ym/tXIFLnisf8rFcwDEwAwcp1423/tJgNy+R9EhQQBQUAQSD8CogCk/xmkqwTHI+NCcFTqdcAxq3wud+3YP18UIw7zPxM3DP7Nfe7cb/DA4kZNKixqyoOCBluES5AgIAikCAHJRil+1wWH/ETgaKtq73HpP/11w0tdrrgN+Wz/A/xTN8EcvNY0VTrslAvsTvE7MQerLlUSBASBLERAFIAsfGgJKHIp0tgXHJU0NPbuVu3DzP+lBQ17VfJBASCYe55ycQldC+bES4tgCRIEBIHkIyA5EIGGfdWZgnA2IrAPCt0IHJX6H3POsoBSYTP+iqAURBV26OnPAwsAoShv3X5g0xatedAPbwh1cVoAABAASURBVKNxX3jKagCAICQICALpRUAUgPTin67cefysad79R1ys1w90xzn+X5OOP18mAihVMPCg4+fW1DuKq8HvALCQICAIpAkByXYLAq4tjvzNMwSGWdW3qG3nVvXDtQbu5seVABFaRf1McuR+0KHHe22qsrtNuAQLAoKAIJB0BEQBSDrEGZcBe6A8lCZqwYrLmgcDyhUxjm000ALAzLy6QSfnueP2AzvaVFK2BbYBSIIFgeQhICnXICAKQA0S+eNy5z8eABS1xn0OH7E8WkAiLPg+nbpHtNRzy6+wuKRnk2YtrZYDDkCNuTEQHCFBQBAQBNKDgCgA6cE9nbnuaJV5j32OiNpNj+pplVCUMB+0iDwxAmid+g6yOiCoGPB0AwsJAoJAihGQ7LYhIArANizy5aq7VUWbdO4ZYf6nfKL67h4oAUwv17nrwN3W2NSxt024BAsCgoAgkFQERAFIKrwZmXhnq1IVNC6LqgAkwgLAfD1B/s197rTDQLtKWipidpElXBAQBOJBQOLURUAUgLpo5Md1J6tqGm53VAUgURYAtv/ePLACtOrS03Sfha34t9nqiiMICAKCQFoQEAUgLbCnNdPmZrlrLrcKGkZhtHAtURoAEq+iFgA3l6m0aXO3Tf1a24RLsCAgCCQYAUkuHAFRAMLxyIe7ZmaVLC5voYwELPczS7/Gn9sC+3J8NmBhcXFRTX1NXNPnYCIv3oKAICAIJBQBUQASCmdWJNbYrJSugqid/y3iCTbbV8AKYGxJOSf/uguLog6l1KmsXXgdUbkUBASBhiMgKdRHQBSA+ojk/r2pMV/TTINUojvsaP9VdQ5vDehyuXngktXbZGchsIorYYKAICAINBgBUQAaDGHWJWD+zC0UAL+R+Na6KmgoKgJZh6CDAhtGMGAjlnhAbTKUYEEgnxGQukciYN4YRMqKT24gYLdPfdRaVuuJb684BLAZGgDdqJlmsWfQ7/fbFH+TTbgECwKCgCCQVAREAUgqvBmZ+GazUvkrTYNUVcBIyvRAP8YWPInXLcyqmDL/gM9npwCYg52yUkpGgkC+ICD1jIaAKADRUMltP9Oep69io9I0LWpzHEzi+oAKDAX4jdwC3VOx0a6BtwvPLUCkNoKAIJBxCIgCkHGPJOkFinrYT02uBXrQV3Nd3w0meCVA3fQ3w8IQVfOoK5RF1+uWLzHFcWs1RAHYCoQ4gkCyEZD0oyMgCkB0XHLZd6lV5XRvtekcgapg8proIAq1EUpArhgCVi6YYzfL3+6sACAiJAgIAoJA8hAQBSB52GZqyousCuZZt6raLHxjIKDMFwqaxXLuj/ZfbeIf51EyVnLBT1NM91vYWui5W11xBAFBIKkISOJmCIgCYIZM7vr/blW1lbOmmnbz2TsnW8VvaJgPGeSCJeCvn6a2s8Fijk24BAsCgoAgkFQERAFIKrwZmbhlw/P7x2+2sir1Zn/AKjghYVQCaAlI4pSDhJTTLBFdD67etHq51V7/GxB3JVhIEBAEkoyAJG+OgCgA5tjkaghXASwwq9zKOTOKXCYrARhnUzCoXMkcB2AmYCoBG4OGMjVHQCZTafXf8/6yKZulEmYTV4IFAUFAEEgIAqIAJATGrEtkqlmJ9YBfqeoKyxnqviRsChStPFwauCFgqECWmQJmf/6Bnd7yc7T6ip8gIAgkGgFJzwoBUQCs0MndsClWVVv63WeVVuGrvcGkTgasmzeMAGpDQKls2ixo+tg3u9WtQ5TrL6L4iZcgIAgIAilFQBSAlMKdMZl9blWSac8+0MbKyq/DMJ+MswHMymQgYDM0gWwYEvBUVsxds2iB1QRAWgcmokpCgoAgkGQEJHlrBEQBsMYnV0O5EuBvs8ptWvZXgcvvtbQCrPH6VapfHh+azvUYF/DoVAnMSp9e/5/Gv7vWpgQ/ItxOBiJCgoAgIAgkF4FUf8OTWxtJPRYExlkJL5o0rsIqPIhAj86/uEghQQdQPECIcwN4jkAKs3aSVXDiSw/vYCP4mU24BAsCgkBCEJBE7BAQBcAOodwNf9eqat89ektbDANYdrVX+wIqFSsCopUThgC1IagUhwX8GTJJcP2yRdPBLaKVt46fpeJVR04uBQFBQBBIKgKiACQV3oxO/BuUbhk4Knk2rFW+pfNXRQ2s47nW50/ZhMA62dZecliAkwTXB4zQREFLjaU2VuIvvDBNfP7GE3aN/5/I+TuwkCAgCCQZAUneHgFRAOwxylUJNFnqNavKfXbXxc2twhnG8wH8BpPiXfoY7T+GBgy1FhecMOiDJgBKaoGYB4cjmGdFMOj7/u1nettk+CLCk10sZCEkCAgCgoA9AqIA2GOUyxLPoXKmrffaubOKghtWr4OMJa3ihEAtM9o1jgZwyeBGKAJrMU7AIYIq3VC4VA0pIdNlGtVAi2mvQfp0OSERyatfP3pjuWG9P0IAIL4CFhIEBIGkIyAZOEFAFAAnKOWuzHxU7VOwKX1yw2lNNJumkw3rCo8vbfMBzArPcnGIoDKoFCcNrkELTqWAQwa0ElAxqEYYG/G6zEaecdi7ZyO/DvHY4DONiqCh2POnQlCTr1sPej66/6quNfcmLsf+l5uEibcgIAgIAilHQBSAlEOecRn+26pEa+fOLKr485cVVjIMQxup1vkCStN4l7mMDjysAVvmC7CRr0D3nQ19XWYjT+WASgEbe+gIlhX66vG71ulBOyn1pGUiEigICAIJQ0AScoaAKADOcMplKe5KN82qguOuPbGtS9MCVjIMq0QjuNkXVBmuA7CoCePA5vVrJr/+WAebBL9F+CdgIUFAEBAEMgYBUQAy5lGktSB3WuXu2bhOm/PaI5bnA9TE3xgMqOqgnhdKAH48+otn719aU3cL9zaLMAkSBASBhCIgiTlFAN8wp6Iil8MITEDdvgSb0g/P3t88uHqp7bJAJrDW74cSEORlzjKtHLPHvLBk3eIFjW0qyTkWX9vISLAgIAgIAilHQBSAlEOesRnegJLpYFMafc7+rd1G0GcqUCdgrT+gKgPBnLUEVK9eunzsv67tUqfK0S45D/H2aAHiJwgIAslBQFJ1joAoAM6xynVJ7lH/tFUlvZvWa1/eem5A2awKqEljQyCgNkIRYG+5xi8XXJceqHrihF3bOqjLC5CxnF+BcCFBQBAQBNKCgCgAaYE9YzO9FSWzXKr297fjG/359lOrIeeINgeDapXXp3LlRXMZhveF0/f0+6sr7aq0BABdDxYSBASBlCEgGcWCgN1HLJa0RDb7EdiAKpwDpukaTnSa+uRdrVdM+tixEuAzDLXE41W6YTnCED2zDPINBnX/u9eP2Lhy3m/lDop1GWQ2goUEAUFAEMhIBEQByMjHktZCcbna83Yl+OzWc1pvnjvT0aRApkWNYrnXjyEBv3Jn2ZiAGxVY7/cHJ9x/xap5k8a3wa0dcce/D+2EJFwQEAQSi4CkFhsCogDEhle+SF+Div4MtqQPLjq0zabfZ6yxFKoXWBHU1aJqrwrousr0TYP44/DqQbXE6zWmPXbrip8/er1jvepEu50HT+IHR0gQEAQEgcxFgN+4zC2dlCxdCFQi4+PBliZsA40jlIBWq6d8YrtTINIKo5U+v1oZGhYwVKYZBPij0HVDLUP5NviDwal3X7Lmp3eecdL4E6+jUNH1YCFBQBBIKQKSWawI8FsXaxyRzw8E/kQ1R4ADYHPC+P6Em85oN3/UM2scLg6oTYvbBy/3+tRK35b5Aem2CPDH4IdlYqnHr5b7fByq8I67+JDNcz8b3bq20OYXQQQRr9/gCgkCgoAgkPEI8JuX8YWUAqYNgfHImZPZ4FjTd4/d3mryXedtdhuG31oyMtSvK7Xc61dLMTRQHQwqV6yaRGSSMfloyK8yGFCL0eNfBcuErnRVULVx7ZtH7ehe+euPzRwmdhPkiBccIUFAEEg1ApJf7AiIAhA7ZvkW41lU+A6wLS348qOm7xzXvyC4btU6W+EoAgb81vnZEPvUKjTGHH/nngOJfkm3pGcoT1BXK2B9WOLxKZj6kbtSLk0z1k0et+ilQ3q3rF6/qiDkaf/ncYg8BBYSBAQBQSBrENjyLcya4kpB04TAPcj3PrAtVa9dpb15bP8Wf45+bg1eLvTtbaNEFaAZYY0voJaicWbPfB1M8h6Y53UMObjQY+fMfLshA5em0KCr0BwD3dDR4AfVGqTD9JjuWr9fQQdQNf8KA/7Kz684ZsPH/zjbboe/mih0H8GfK8FCgoAgkDYEJON4EMA3Op5oEicPEeCBNmR21K2rj0Z66n9vbTXyuAGad/G8lWivreUdhFbrhloL8/xyrw+mep9aBAvBEgwZLIW7yutVdZm9evovRjh5CWSWY4iB2xN7kU797Ao1FVj+ybtLXxzeqfHSmZOb1w+3uH8QYdeC7TGBkJAgIAgIApmEgCgAmfQ0Mr8s96GIJ4E9YFuqWrNCe/e0PdpOvOY4j755/SbbCHEKcDJhXa7bq7dKEhYCwzP/l8WvH9JLfX7f5R0VFBcr+XphbPxvrucnt4KAIJAGBCTL+BAQBSA+3PI51ihU/hCw46Vuy2Z8W/LG4duXfXbFUVXBVUtWaYkwCaAA8RKGD4KVv/6wdOTROxojz9m/s69yk9Ox/rpZ9sBNa7CQICAICAJZiYAoAFn52NJeaB5vOwylmA92TCtmTW305gk7t3nvlN30tdO/WeEOBryOIzdQkEqH21OxYd7bT654Zb8O7jGXHN6xat2qhrz/J6JIv4C5XwIcIUFAEEgPApJrvAg05AMYb54SLzcQ4Hr3nVGVt8Ax0eZlf7vGXXtCu5f361D8yaWHezf8NGmpy++riikRB8Iw8euuivXrln78xiL09oMvH9Sj2ZQn72pnBAMOYjsS4bbAtIi8DelWYCFBQBAQBLIGAVEAsuZRZWRBOa5/Kkp2FtjxkABka2nVLz8Uf3TV8R1fGd6p0TuH9VZT7rlk49ofvlxurF+91h3wV+EF5QY7tfLRLwxVoAy/y+epCC5fuHLp+LcXfXbZEVWv7tPe9cph27f44sFrulSvXw3Lf/TYCfA9GWnQGnAsXCFBQBBIIQKSVfwI4Psaf2SJKQhsReBVuP3AY8Bxk69io5r32ejycded3P71o/u1fHn/jo1e2buN+62DuqkPz9hTjbvgQPX5FUdVf3HdiZsnXnWM/+PzhqtRxw1Qr+/bQb20d9vCVw7o0uTNk3dr+8UDV3ZZ8fO0RoYejLssiMgljBPgckUiHFtqCwnW/024LcFCgoAgIAhkNAKiAGT048mqwi1HaTkefhDcX8EJo4CnSm38+w+1du4stXzW1NKlP3zddNlP3xWu+/NnVb1mhWpgQx+tnFPhOQR8KHg38GywU+J2wLQGHOM0gsgJAoJAvAhIvIYgIApAQ9CTuNEQ+AyeO4HPBy8EZxOx4aYSswcK/QOYNBN/dgVzCaTTyQPtIP8e+HVwC7CQICAICAIZh4AoABn3SHLfO0/EAAAQAElEQVSiQGwoX0BNtgNfAE6oRQDpJZrY4+f+BgORMM349Tf28cH/NjBXPnDyIy4d0WmQolLBEwJxKSQICAKJREDSahgCogA0DD+JbY0Ax8+fh0h/MIcGRsNN2dI/5GVFFQh8GTx0K4+Ey3F/OKY0DSE7g/8DtpOFSIja4+8H4FfBsewyCHEhQUAQEASSh4AoAMnDVlLehgB71BwaOAFeHcA8YfBzuFQQ4KSMqpETG+Oz4bIc58Bl7x+OY+IuiDdAem/wPLBTOgOCtAYcAVdIEBAEGoyAJNBQBEQBaCiCEj9WBHhS4JOIdCCY6+hPhPsEmMMETnvVEHdEtDb8CEme1Hc43NZgTs57Be5mcENoMiJzyIAnAVLBwa0tUen4CFK0PDSDKyQICAKCQNoQEAUgbdBLxkBgA3gU+HLwjmA2invCpYXgUbgfgmeBl4LZ84YTRtw8iKsPfocve/IcYrgb1xzP7wO3CXgX8PXgceBKcCKJ+V+BBA8AxzLhkfsm0BpwGOIJCQKCQBwISJSGIyAKQMMxlBQShwB75exZ00JwDZI9GswVBZ3gloI1MJUEzqwvxnVjMHvVbOw5ls8hhjvhx/F8KgWcjIjbpNMXyGEA+DmwU2tAR8h+DH4RXA4WEgQEAUEgpQiIApBSuCWzBCCwEWlw10HOzMdlxhCVlwtRGh6UtBiuU+I8BCorslLAKWIiJwgogSARCIgCkAgUJQ1BYBsCn+KSqx6eheuUuG8AJye+iwi0bsAREgQEAUEguQiIApBcfCX1/ESAVoqLUHWO8XP+Ai4dESdEcm7AkY6kRUgQyFMEpNqJQUAUgMTgKKkIAtEQGA9PTm6MxRrAfQM4+ZHWANk3AAAKCQKCQHIQEAUgObhKqoJADQJc6UBrAFcmrKnxdODSGsClkbJvgAOwRCSfEJC6JgoBUQAShaSkIwhYI8CVCbGemFhjDXgGSTcFCwkCgoAgkDAERAFIGJSSkCBgi8AqSPCwIVoD1uLaCXHpI1cX/Axh7jcAR0gQyF8EpOaJQ0AUgMRhKSkJAk4RoDWAcwM41u80TlcIcoWBWAMAhJAgIAg0HAFRABqOoaQgCMSDwApE4kZHtAZwXwPc2lJda8BwW2kREARyDgGpUCIREAUgkWhKWoJA7AjQGjAI0SaCnRKtATxcSawBThETOUFAEIhAQBSACEjEQxBIOQJ/I0cejsTVAjymGLe2VGMNmA3J/cFCgkDOIyAVTCwCogAkFk9JTRCIFwGeIcD9AnimwFcxJNINsp+DaQ3g4Ue4FBIEBAFBwB4BUQDsMRIJQSCVCPyFzNijpzXA6emFda0B+yG+kCCQgwhIlRKNgCgAiUZU0hMEGo5AjTVgIJKaBHZK3SHIuQRiDQAQQoKAIGCNgCgA1vhIqCCQTgTmI3NaA26G6wU7obrWgH2dRBAZQSAbEJAyJh4BUQASj6mkKAgkEoEAEnsQPBj8I9gp0RrwBYRpDWgMV0gQEAQEgTAERAEIg0NuBIGMRYDnAgxB6WgN8MF1QmINcIKSyGQBAlLEZCAgCkAyUJU0BYHkIFBjDdgVyc8EO6UeEBRrAEAQEgQEgW0IiAKwDQu5EgSyBQGu/d8Nhf0nOAh2QnWtAfs4iSAygkCmICDlSA4CogAkB1dJVRBINgJ+ZHAXeBj4d7BTEmuAU6REThDIcQREAcjxByzVy3kEvkcNuZUwJwrquHZC/N3zhMFZEN4bLCQIZDACUrRkIcAPQbLSlnQFAUEgNQh4kA0nB+4F90+wU+oJwS/BXCnQCK6QICAI5BECogDk0cOWquY8At+hhjuB47UGUIFAdCFBIHMQkJIkDwFRAJKHraQsCKQDgSpkSmvAwXAXgZ1SLwjSGvAvuMVgIUFAEMhxBEQByPEHLNXLWwR4QFB/1J4HDHFrYVzakhsSN4FngLnUEI6QIJBOBCTvZCIgCkAy0ZW0BYH0IrAJ2fNQocPgLgU7pb4Q5HCCWAMAhJAgkKsIiAKQq09W6iUIbENgAi53BNMaAMcRFUCK1gBuPyzWAIAhlHoEJMfkImCnADRF9geCzwRfD+YHQVgpwcAcg2vwnpwG3gNcCBbKDAQ2oBi0BpwAdzXYKfWDIK0B98AtAgsJAoJAjiBgpgAMQ/0+BvND8SncV8D/BtMkKKyUYGCOwcN4T14HTwbz/XkZLpebwRHKAARGowy0BoyB65RoDbgNwj+AuecAHCFBINkISPrJRqC+AsBTw95Ept+COW4os4EBhFDcCJQj5lng38DctY7b0eJSKM0IrEL+x4NpqVkH1ykNgCA3HuIWxGLdARhCgkA2I1BXAWiFirDhHwFXSBBIJAJsLO5EgiPB7E3CEcoABKjs0xpAa5/T4vBZ3gFhWgO45wAuhQSBxCMgKSYfgRoFgD/qd5Gd/KABglDSEGCvk0MESctAEo4ZgeWIcQT4JHAs1oCBkKcSwOEwmRsAMIQEgWxDoEYB4KS2/bKt8FLerETgCpT6ELBQZiFA6wzH9z+LoVi05vDbwWEBKgQxRBVRQcAKAQlLBQJUAFoioxvAQoJAqhB4ABnJfACAkGHEnQO5g+AlKFcF2CnRcjgNwreDaU2EIyQICAKZjgAVgJNRyDKwkCCQKgTYYOySqswkn5gQ4K6BTyMGdxHk1sC4dEQcBrgbktPBtCTAERIE4kNAYqUGASoAh9tkxQ/Ce5Chds89xoWVEgzMMeAEsbF4X+yI4852MhKePgQWIusDwNzXoRquU+JKgakQvhXMIQI4QoKAIJCJCFAB4LafVmXjGN9xELgXzFPGhJUSDMwx4IYxR+JdYW8QjinZvXemESUgZQjoyOlRMHv0bNRx6YhoDeD3YgqkucoAjpAg4BQBkUsVAlQA2tlk9rxNuAQLAtEQsNt2tn20SOKXkQjMRan2BNPy5YXrlDjMwyGBfyCCWAMAgpAgkEkIUAEosSnQeptwCRYEoiFg997YvXfR0hS/9CEQRNa0fO0Ml406HEfEzcTuhyTjcO4HLoUEAXMEJCR1CFABSF1ukpMgIAhkOwJzUIGhYFoDfHCdEpcJcqUA9w2QlQJOURM5QSCJCIgCkERwJWlBIEcRCKBetAbQxP8Trp0SG37OKeKOo32cRhK5fEJA6ppKBEQBSCXakpcgkFsI/Izq7A6mNcAP1yntBsEZYCoDbrhCgoAgkAYERAFIA+iSpSCQQwiw4ac1gJMEeeiT06pxDgiHA3hqpFgDnKKW43JSvdQiIApAavGW3ASBXEWA4/ucIEhlgBMGndaTFgSxBjhFS+QEgQQiIApAAsGUpASBPEfAg/pzOGAvuH+AnVKNNYBzA3ZwGknkcg0BqU+qERAFINWIS36CQO4jwA2AuOSP1gBuJuS0xkMgyEmFMjcAQAgJAslGQBSAZCMs6QsC+YkAtw+mNWAfVH8e2CnVWAMmIcL2YKE8QUCqmXoERAFIPeaSoyCQTwjQrD8YFebOkDxXBJeOiHsNiDXAEVQiJAjEh0CyFIAzURz+8OfDFVaqLgY8YW0EcBESBPIFgU2o6EXgQ8FLwE6pFIJcKSDWAACR2yS1SwcCyVAAnkBFXgEPA/cQVvUx2BeYvAnmOCccIUEgbxD4BDXl4UC0BuDSMdW1BiTjm+W4ICIoCOQSAon+MQ0HOJeChewR4Gl53e3FREIQyCkENqI2tAbwGPJluHZKda0B2zmNJHLZgYCUMj0IJFoBOCY91cjKXItQ6v3AQoJAPiIwDpXuB34NHAvtAeGZYFrQEv39QrJCgkD+IJDoH5Bs6xnbuyN4xYaXSOcWAhtQHc4XOgnuGrBTqrEGfIMIvcFCWY2AFD5dCCRaAZiQropkYb6cEc3JTVlYdCmyIJBQBEYiNVoD3oMbC3GekVgDYkFMZAWBOggkWgH4EGmPAQvZI/A0RH4HCwkCgoBSqwDCceCzwLQMwHFEjSDFlQKfwe0GTic1RuYcorgE7kPgt8FcDTUdbg1/gWt+Ix+Dy/lSB8AtA+ctScXTh0CiFQDW5GT8uR28AiwUicBieHH88nK4QoKAIBCOwKu47Q+O1Zq4P+LMBl8M1sCpol2R0V3g78Gc4MjDjZ7E9bVgfgtppeA+CDXMeT/HIuwKMFdMUXFZh+sfwf8G82yEVJYfWQrlKwLJUAACAPNecHswNdsWcIWVIgbsIXQBHv8HjmWLVIgLCQJ5gwD3CjgMteVqgc1wnVJTCD4F/hTcFZwsaoOEbwTPAfMQpDvh8ojjeOf0MB4PUroe6UwF/wWmUtEWbo6TVC+dCCRDAahbH/5418NDWCliUAUshAQBQcAeAc6R4X4BAyDKzbPgOCaa1X+G9IXgRPamOyC9h8FsoHnOQR9cJ4OovFCp+BuJvwjmPRwhQSCxCCRbAUhsaSU1QUAQyDcEFqLC3F/kSrixKNC0BjyDONx8iFY3XMZNPJ+Aw5p/IoVrwJx3ACfpVIwczgFzrhCthuW4zimSyqQXAVEA0ou/5C4ICAL2CNAa8D+I8YRBjrHj0jEdCElaA86HG481gDt3/oq43LgrVQ0/sgsjKiA3wIfl4HbKuBQSBBqOgCgADcdQUhAEBIHUIMAeOE8XZGPoiSFLzkV6DvLjwZ3BTqgAQpzL9DlcbucNJ+3UESXgBkocGqFSgNtsJil7uhEQBSDdT0DyFwQEgVgQCEL4P2DOqv8Bbix0MIRpDTgXrhU1QyCHDm6Fywl6cGKj4tImFa3bdZ3bc4ddZg8ccvCMvoP2ntNtu53+blrekjP+GzoB+AKU5msw5yTAERIE4kNAFID4cJNYgoAgkF4EOAOfa+5vQzF8YKfEcfQXIMyedCe49YkT7rh2n8sK64eZ3nfq1nf+KRffP/n2/34y6eE3fl7+4IvTmtz6yPjtr7jz1QHnXPXIzhfe+HTfq//5Ztd7np7U4pG35my+95nJP59z9SNf9915n580zRWPQsBVB1SA+poWKsMDpHjpR0AUgPQ/AymBICAIxIcAlxzfh6hsDGfBjYU4lk5rwNl1InGyIHvW3JWwjnf0y5LSJtXHnXv75Htenr3ygntH9ey35zHDWrbpvJfL5eYS6OiR4KspVd6krHn/gbsfvM+FNzw16OHXZ684//r/TWresv0iBMdCtAB8hQgDwUKCQMwIiAIQM2QSQRAQBDIMATb+VAI4Zk+lwGnxaOp/CcJjwbuAJ4JpAYBjTu6CQu/pVzz03e3PTXPvuN+IYT53QduAoVQBWnbzWOYhmsvVYcfBw/e68/GJba+55+1J5c3brDaXjghpDR+We3u4WURS1ExAwJUJhZAyCAKCgCDQQAQ4DMClekORDocH4DimwyFJc3ovuJa0y97Hzr77xZ+qe+x26B4eQxWh3a+Vd8epANQmoFRx114D9vrnE18Wn3jObZ9rmsb5DnWCTS9bIuRjMJUBOEKCgDMERAFwhpNICQKCQHYgwD33OUGQ2+o6bUBtawazfuDCW1747sgL7h3g0VzN6jb8NZHdNRcNdTWt/zW0ygAAEABJREFUbNhBpx5w91OTZsMasNZhcj0hNxrM1QtwMpukdJmBgCgAmfEcpBSCgCCQOAS4RJBb9e6NJLl0EE781LS8ZeVtz3y3qF3foXsElHk3X9OiqQUNybfFIAwLVHfq1odnHDhJaC8I3Q4WEgQcISAKgCOYREgQEASyEIHvUGZuHsST9+KZaa+aNG2+4aqHPq12lTTpYdi075qFcoByxEWwPHS67oFRnXr22ZWbADlJg0sXuTrCiWyaZCTbTEEgWQoArWEcizsRFRVWKpsx4CEleIxCgkBWIsDtg69CyWO2BnCW/9UPf+5RBcWtgg4adxv9AEWIj6BYtLj8jpfbd+rax4kSwG8vt0AujC83iZVPCCRDAegLAH8BU/t+F66wUtmMAY8p5QQjnoCGxykkCGQlApNRas4NYONo21Zrmsu4+j+frt2kF7RzuZ19Jm0TRQHiJSoB197/blnjps1WOkhjR8hcAs5IkkJlDgLO3mzn5eUElLchvgNYKHcQOAxVeR+sgYUEgWxFgKeTXozCnw62pNOu/u/MSnejTuUlbuW0YdedClrmbB7ocrk73/jg+39rziYbcC5AY/PUJEQQUCrRCgCP4ewvwOYkAhzS4T7sOVk5qVReIdDbqra9+g1d1KrPXjsZaPqd9v6ZXoB/kszlzdvsdsQp1/J8ArucWkEgA60AKJVQxiCQaAVANqPImEeblIJweCcpCUuigkCKEChBPqYNI3rX6sSr/9ckEDS0psVuFUuvPphkCwDKHaLhR567c+OmzVeEbqz/XItgmQsAEISiI5BoBWB59GzEN0cQkOebIw8yj6txKureFhyV9j7igl8qgu4WDCwu4Hw6Xjljf4oUAKVpLc+56mEnmx1xS+IjnJU+NVKSS2YhkGgFgFtS8rSrzKqllCYRCCxEIp+ChQSBbEbgNKvC73bERZ1rlvsZSrMSjQijtSAY4Zscj179dt+9SXnLpQ5Stzv50EESIpKrCCRaAeCuVZcCrFQMhyEboRQhwJnH7DlVpig/yUYQSAYC3Pufm+VETXvwPsfN8+punhaoSgth/o8qZe3pi2u3Aes0TUIbH3/2bU42COIRyGUmaaTYW7LLNAQSrQCwfu/gD5eh3AP3NfBIYZWtGLyOZ3czmM9zClwhQSCbEeBqFtMx8T2PuaxIV0aofsUF8X0aPVuih9JI9p8BuwznZEa7HFnfA5NdFkk/OxGI7y23r+tciNwBPhN8krDKVgzOwLN7ELwGLCQIZDsCB5lVwOV2G+5GLXm8bkjE5YrN/B+KhD8cBkiVFcBdUNCrS88BTjYHOgRFSztJATIPgWQpAJlXUymRICAI5DsCA80A2HnPo5f4dYP7mIRE4mz/Q3Gr7PrkIanE/NnzwFM4N8cusd3sBCQ8PxEQBSA/n7vUWhDINwTYuPcxq3S/oUfXs97HZwFg+lwO6EnRXIDt+g8JrVhgvhbM5bulFuEpCJIsMhEBUQAy8alImQQBQSDRCHCPkmKzRJu169YkPKxh3fgqKAANSyG8NGZ3ZeWtaoctzGTgT+VHdmcFEELhCIgCEI6H3AkCgkBuItDRqlqFJU1Ds/+tZGIJY+O/Oai2TimMJWZssi53QWd3QSFXX9lF7GInkMxwSTszERAFIDOfi5RKEBAEEouA5VI4XdOK6mZXsxdAXb9Yr7kxUAqGAtzNmrdZ7aBsnRzIiEieISAKQJ49cKmuIJCnCFj28HWlhX0LjURoAAC6WlfKC8Zl0qi0UZmTHJonrQC2CYtApiIQ9tJnaiGlXIKAICAINBCBxlbxYbIPm/XnD8DHKoLDMKZSgeY5mUsDC4qKnWy8xjMQHJZaxPIFAVEA8uVJSz0FgfxGACPy5gCEtf4Qqw4EE3pU6mYoAbQGIOmEU8XGtX4HiYYNcTiQT5iIJJS5CIgCkLnPRkomCAgCiUPAZ5WUpvRA3fCAbqgCjf33ur4Nu+bKgNDEwMQmqzZtXGN6uFGdElfVuZZLQSCEgCgAIRjkjyAgCOQ4ApbnWGh6MKKBDATQbU8wKD40/huRrB+coKQrfd7qdg7S2uBAJgkikmQmIyAKQCY/HSmbICAIJAqBZVYJ+as2VtcPr/AFlbv+2EB9oTjuuVHQJigAtAbwOo4kaqP4fd4/ccN1/nAsSU5ptYQnPwNFAcjP5y61FgTyDYFFVhVeOm9WxDi6F61zQRJX8oesAUGlqAjwGsYBqyJGDVu26PclUQMiPedFeiXfR3LIbASSoQC4UeWzwKPBnwmrVGHwFLDmbmdwhAQBQaAeAmwovfX8am+/+/iZZrU3dS42ewIJnQxYJ+nQJRt9Nv5UAtYHlKoIblk2CN3DVPXQEYn7C2yC7OLFfzld309LQShP+SMI1CCQDAXgbST+Mvg48AHCKlUYXAysZ4CJOxwhQUAQqIMAJwHOrnMfdrli0R9Ni1xahIJQicF60/2Dw1Jo+A3adeXFHy4b3IDGnQoB3Y24ZmO/AQrCOvB63FdiCIFKwuejH3MyAXAFSudksyCIJZIkrUxHINEKwFGo8AlgofQg0AjZvgR2ckAIxIQEgbxCYLpVbTet+DNqI7m+2qeKkjAXwKosDIMuoNjIc0sC7iqIdj/cKhDwLNqwdkV7ytrwtzbhEpynCCRaATg8T3HMpGpzy9ODMqlAUhZBIEMQ+MqqHB89d0sLTWkRItVohfWgnpQJgRGZOfRgKb8e86TlxMY6SX1T5zpll5JR5iOQaAVAep6Z8cyjjmdmRtGkFIJA2hD4BDlzKABOJK1c8mcjl69iZWSIUmurAqoY/W+NLW80gRT7FWrGpq/HvjjYYbbjHcqJWJ4hkGgF4Oc8wy9Tq/tjphZMyiUIpBGBjcj7a7ApjX/hlkItihVAR+O/qtKvGiV4cyDTglgE8KM96f2nvjcMvdBCrCaI84LSsAKgJntxMxkBvkuJLN/jSGwtWCh9CLyFrH8ACwkCgkAkApygHOm71eeP2d+08G9cunTrbZjj1w21psqvGuOrqYWFpPbGHfAs/HTU4/s7zPVdh3IilocI4FVOaK252QQnAs5NaKqSmBMEOEeISwEvcCIsMoJAniIwBvW27KS8cu+pLWEGCEAugjyBrUqAW0WxE6ik/ytyqeDz957FXQtRAtvsPJDgpGA4qSXJLTsQSLQCwFp/hz87bOX94B4orJKNwV7AmNuBXgrXcstThAsJAvmMABvF560AqK7YWDJl9H9WmX0cPQFdrazwqSYYDoCiYJVUQsOKUaCZX7z1yaL5P/d1mPAbkFsFFhIEoiKAVyqqfyI8aQXgrNvPkZiwUsnEgMt81gBnIUFAELBH4CGIVIBNaepnb3RY/uvXC8xM/b6goZZU+JXCsECyhwRcKEQjl6HWrVgya/QL9xxqWujwAFoEHwr3StWd5JMtCCRTAcgWDKScgoAgkF8IcL0/5ytZ1nrk41f38K5Z+LeZkG4YalWlT62v9qumsAaUoKFO5CoBfpzZ8KtgUK3dVLXisX8cyZ0+kYtZicL8X8Tdb2AhQcAUAb5jpoESIAgIAoJAjiJwP+oVdbIf/GvpuTuO6+pZ+aflOQLcLXAxhgSqfYGQItAIo/MNOUSoAE08rQqFRlCtrvSrzZVVKx69clhpwOctqS2Y9QWtG3daiyQvVFLOHgREAcieZyUlFQQEgcQhsBlJXQ22JAO9/OfvOqnLqt8m/UFTvJkwRgLUBm9QLdrsUxuq/KpI11U5vq5syDl2z+P60K5HRKcf9AVFmSa4aAJTvx4IhuYYrKwMqEDFur8fvWJYy4DfVx4R2dzjFgQtBwsJApYI4BW1DJdAQUAQEARyFYFRqNg7YFt697Ert5v89r3LC10KA//m4tAXFC0Cy9BzX7TZq9ZheMDvC6oCQ1ecNNgMjXxzaAPkMjT2jTRdufSgqvYG1EooD4s3+dTa6gCnFuiLfxz/w2PX7t9VDwacrPevKdSXuLAd3oBMkkiSzSYERAHIpqclZRUEBIFEI3AhEpwPtqUfvxrd/smr9jQC65cssLIG1CREq0CVX1drPQG1PKQQ+NRfG71qwYYt/Dca+yWb/WpVVUBthPXAhwia0mA98K545/5TVr///C271qTl0OXchrMha4CFBAFbBFy2EiIgCAgCgkDuIrAJVTsRzHFzONbk9VQWPX3LkT0+ePi8Da7qdUs1TSWksdWQbaHuWwsrw88PXzak3YpFvzs55Q+xaomWCdbDcr5CrXSSLiTZ7EJAFIDsel5SWkFAEEg8Aj8hyZPAAbAj+vuPGc0eu3Z4x9duO2L95kWz5xdpeiWUAUdx6woVuzVPYOOyP8c/cfmiRy7bveWMr0f1rxvu8JpKCPcAsdzm2GFaIpZHCIgCkEcPW6oqCAgCpgiMR8i54CDYMW1Ys7TFKw+c1fPhiwc3fvUfB6//6/v3fvevX7SwMOhZWeTSNxe5lY/zBopcmq/YrSqLDN86fdOKBSvnfP3L2P9esOKhC3cqefrmw3vP+2VyF8eZRgpyMuPzkd6p9pH8sg0BUQCy7YlJeQUBQSBZCLyGhE8F05wOJzbauH5V849fvnuHZ245utsjlw9t+/BFg5s+fOGgokcuGlT48EU7FT104aDGD1+6e4snbzq0x8j/Xb3jwt+nc/fO2DIJl9Zxy8b/MbhCgkDMCIgCEDNkEkEQEARyGAEennME6rcenMlUjcJx2OK/cDOCpBDZh4AoANn3zKTEgoAgkFwEPkXyu4F/BWcicdXC3ijYaLCQIBA3AslWAJqhZM2FVbZiwOeHxyckCOQdAvNQYyoB7GHT1I7bjKDXUYqdwdPBGURSlGxEIBkKQCMAwTGpDXBpRlsHV1ipbMSAz28lnt+VYK5UgiMkCOQNAlWoKcfYearpz7hOJ1EhOQQFOAPMpYtwhASBhiGQDAXgFRTpCnAsW1dCXChDEWiDcrEXJLuLAQihvETgG9R6EPg88BJwKolb+l6LDLk88BO4GUlSqOxEINEKwGDAcAJYKPcQuARV2gEsJAjkIwJcHsgT9nqg8qeDfwQnk2hxuAwZ9AQ/AvaAhQSBhCKQaAUg1q0rE1oZSSypCHAIYK+k5iCJCwKZjwCXCL6BYu4CHgi+D/wHOBHEyX20tg1BYgPAT4I52x9OJpOULVsRSLQC4MtWIKTcjhCQ5+sIJhHKEwRmo563gbcHdwbTMsBGeyKuF4PNiDv3LUPgFPBT4HPBtK71gss5B9/DFRIEko5AohWAySgxTWVwhHIMAfZEPs+xOkl1BIFEIcC5AbQM0Gx/ABLlzn5uuC3BNOOzcafbAfcl4I7gPcDcwvcluHPBWUlS6OxFINEKAF9irgDIXkSk5NEQYI/lOgQsBQsJAoKAMwS4fJCrfxZAnOZ9upzUJ5Y0ACKUfgQSrQCwRtfjz+XgH8CrwFxKJqxUNmLA58cDRrj8iKZKPE4hQUAQEARqEBA3mxFIhgJArfcJgMJNNNrCbSGsshUDPr998fy4MxocIUFAEBAEBOL9CSsAAAWiSURBVIFcQSAZCkCuYCP1EAQEAUFAELBAQIKyGwFRALL7+UnpBQFBQBAQBASBuBAQBSAu2CSSICAICAL5joDUP9sREAUg25+glF8QEAQEAUFAEIgDAVEA4gBNoggCgoAgkO8ISP2zHwFRALL/GUoNBAFBQBAQBASBmBEQBSBmyCSCICAICAL5joDUPxcQEAUgF56i1EEQEAQEAUFAEIgRAVEAYgRMxAUBQUAQyHcEpP65gQAVgM0WVeGufhbBEiQImCJQZBqyJcDqvdsiIX8FAUFAEBAEkoYAFQAeTmGWAcMHmQWKvyBggcCBFmEM4nGodIUFAUEgqxCQwuYKAmzgf7SpzGiEHw3uCe4hrAQDZYnBdnhHzgI/CbYiu/fOKq6ECQKCgCAgCDQQASoAH9mk0R3h74PngXmkpbBSgoE5BjwS+mW8K63AVmT33lnFlTBBQBBIEwKSbe4gQAWAPfy/cqdKUpMsQGAsyvgnWEgQEAQEAUEgTQhQAfAh7zvBQoJAKhDwI5NbwUKCgCCQdQhIgXMJASoArM9r+PMsWEgQSDYCVyKD2WAhQUAQEAQEgTQiUKMAsAhX4M9bYCFBIBkIcEkpe/5PJyNxSVMQEASSj4DkkFsI1FUAOBRwGqp3LXgTWEgQSBQCi5DQMeD7wUKCgCAgCAgCGYBAXQWAxTHw5xEwl/z9E+5MsJAgEA8CAUT6Cnw5mEsDZdY/gBASBLIXASl5riFQXwGoqd8aXNwF5iZAzeH2A+8P5uYuwkoJBuYY7I33hA1+Odz9wE+AvWAhQUAQEAQEgQxCwEwBqFvEDbiZA/4S/LmwEgyUJQaT8I5wiV8VXCFBQBDIEQSkGrmHgBMFIPdqLTUSBAQBQUAQEATyHAFRAPL8BZDqCwKCgCBgj4BI5CICogDk4lOVOgkCgoAgIAgIAjYIiAJgA5AECwKCgCCQ7whI/XMTAVEAcvO5Sq0EAUFAEBAEBAFLBEQBsIRHAgUBQUAQyHcEpP65ioAoALn6ZKVegoAgIAgIAoKABQKiAFiAI0GCgCAgCOQ7AlL/3EVAFIDcfbZSM0FAEBAEBAFBwBQBUQBMoZEAQUAQEATyHQGpfy4jIApALj9dqZsgIAgIAoKAIGCCgCgAJsCItyAgCAgC+Y6A1D+3ERAFILefr9ROEBAEBAFBQBCIioAoAFFhEU9BQBAQBPIdAal/riMgCkCuP2GpnyAgCAgCgoAgEAUBUQCigCJegoAgIAjkOwJS/9xHQBSA3H/GUkNBQBAQBAQBQSACAVEAIiARD0FAEBAE8h0BqX8+ICAKQD48ZamjICAICAKCgCBQDwFRAOoBIreCgCAgCOQ7AlL//EBAFID8eM5SS0FAEBAEBAFBIAwBUQDC4JAbQUAQEATyHQGpf74gIApAvjxpqacgIAgIAoKAIFAHAVEA6oAhl4KAICAI5DsCUv/8QUAUgPx51lJTQUAQEAQEAUGgFgFRAGqhkAtBQBAQBPIdAal/PiEgCkA+PW2pqyAgCAgCgoAgsBUBUQC2AiGOICAICAL5joDUP78QEAUgv5631FYQEAQEAUFAEAghIApACAb5IwgIAoJAviMg9c83BEQByLcnLvUVBAQBQUAQEASAgCgAAEFIEBAEBIF8R0Dqn38IiAKQf89caiwICAKCgCAgCChRAOQlEAQEAUEg7xEQAPIRAVEA8vGpS50FAUFAEBAE8h4BUQDy/hUQAAQBQSDfEZD65ycCogDk53OXWgsCgoAgIAjkOQKiAOT5CyDVFwQEgXxHQOqfrwiIApCvT17qLQgIAoKAIJDXCIgCkNePXyovCAgC+Y6A1D9/ERAFIH+fvdRcEBAEBAFBII8REAUgjx++VF0QEATyHQGpfz4jIApAPj99qbsgIAgIAoJA3iIgCkDePnqpuCAgCOQ7AlL//Ebg/wEAAP//nKCZgwAAAAZJREFUAwCyYebRsfz6QAAAAABJRU5ErkJggg==;fontStyle=0;fontSize=14;" vertex="1" parent="1">
          <mxGeometry x="1746.14" y="730" width="85.71" height="85.71" as="geometry" />
        </mxCell>
      </root>
    </mxGraphModel>
  </diagram>
</mxfile>
